<?xml version="1.0" encoding="utf-8"?>
<!-- Generator: Adobe Illustrator 24.1.1, SVG Export Plug-In . SVG Version: 6.00 Build 0)  -->
<svg version="1.1" xmlns="http://www.w3.org/2000/svg" xmlns:xlink="http://www.w3.org/1999/xlink" x="0px" y="0px"
	 viewBox="0 0 786.7 536.6" style="enable-background:new 0 0 786.7 536.6;" xml:space="preserve">
<style type="text/css">
	.st0{display:none;}
	.st1{fill:#26099F;stroke:#26099F;stroke-width:11;stroke-linecap:round;stroke-miterlimit:10;}
	.st2{fill:#470240;}
	.st3{fill:#26099F;stroke:#26099F;stroke-width:2;stroke-miterlimit:10;}
	.st4{display:inline;fill:none;stroke:#26099F;stroke-width:15;stroke-miterlimit:10;}
	.st5{display:inline;fill:#470240;}
	.st6{display:inline;opacity:0.5;}
	.st7{fill:#26099F;}
</style>
<g id="Layer_1" class="st0">
	
		<image style="display:inline;overflow:visible;" width="600" height="263" xlink:href="74033FA9.jpg"  transform="matrix(1.3789 0 0 1.3789 -6.2778 120.8862)">
	</image>
</g>
<g id="Layer_2">
	<line class="st1" x1="438.6" y1="432.5" x2="502" y2="349.2"/>
	<path class="st2" d="M764.6,302.5c13.1,16.7,13.1,42.6-21.5,57.4c-34.7,14.7-117.1,13.9-151.4,14.3c-34.3,0.4-429.6,14-474.6,2.9
		c-45-11.2-64.7-26.4-71.8-47.5c0,0,6.3,4.3,11.9,0.2c10.3-7.7-2.5-26.6-18.3-12.9c-17.6,15.2,51.7,80.2,16.7,90.8
		c-17,5.1-32.2-0.5-42-6.2c-5.2-3.1-11.5,1.8-10,7.6c1.9,7.6,5.6,15.8,13.1,20.1c15.9,9.2,364,17.5,470.8,10.4s259-16.9,290.8-83.6
		c14-29.5-3.2-60.5-3.2-60.5s-18.1-30.8-40.7-44.3c-3.1-1.8-6.4,1.9-4.3,4.7c4.6,6.1,8.8,14.4,7.9,23.2
		c-0.7,6.4-12.9,11.1-12.5,22.5c0.1,1.4,0.5,2.9,1.1,4.4c1.8,4.3,7.9,4.2,9.7,0c2.6-5.9,7.8-12,18.1-10.5
		C761.2,296.3,764.6,302.5,764.6,302.5z"/>
	<line class="st1" x1="613.9" y1="473.9" x2="568.2" y2="351.8"/>
	<path class="st3" d="M220,393.7c0,0,197.4-1.6,238.4,0s148.2-2.2,178.2-8.6"/>
	<path class="st3" d="M71.1,412.5c0,0,157.4,2.5,192.5,4.2c35.1,1.7,138.5-12.2,164.6-8"/>
</g>
<g id="Layer_3" class="st0">
	<line class="st4" x1="318.4" y1="166.5" x2="318.4" y2="387.2"/>
	<path class="st5" d="M159.7,177.1c0,0,27.6,64.3,24.6,177.3c0,0,27.4-22.5,134.1-26.1c80.9-2.7,158.1,18.1,158.1,18.1
		s3.7-41.5-2.9-83.2s-32.1-86.1-32.1-86.1s-68.8-0.3-121.5,0C262.5,177.4,159.7,177.1,159.7,177.1z"/>
	<g class="st6">
		<g>
			<path class="st7" d="M181.8,445.8c-0.4-0.1-0.8-0.5-1-1l-24.7-73.1c-0.3-0.8,0.1-1.8,0.8-2.1c0.7-0.3,1.6,0.1,1.9,0.9l24.7,73.1
				c0.3,0.8-0.1,1.8-0.8,2.1C182.4,445.8,182.1,445.8,181.8,445.8z"/>
		</g>
		<g>
			<polygon class="st7" points="183.7,442.5 179.3,444.3 183.2,455.4 190.7,458.4 			"/>
			<path class="st7" d="M190.4,459.5C190.4,459.5,190.4,459.5,190.4,459.5l-7.6-3.1c-0.3-0.1-0.5-0.3-0.6-0.6l-3.9-11.2
				c-0.1-0.3-0.1-0.6,0-0.8c0.1-0.3,0.3-0.5,0.6-0.6l4.4-1.7c0.5-0.2,1,0.1,1.2,0.5l7,15.9c0.2,0.4,0.1,0.9-0.1,1.2
				C191.1,459.5,190.8,459.6,190.4,459.5z M183.9,454.6l4.8,2l-5.5-12.7l-2.7,1L183.9,454.6z"/>
		</g>
	</g>
	<g class="st6">
		<g>
			<path class="st7" d="M198.7,445.8c-0.4-0.1-0.8-0.5-1-1L173,371.7c-0.3-0.8,0.1-1.8,0.8-2.1c0.7-0.3,1.6,0.1,1.9,0.9l24.7,73.1
				c0.3,0.8-0.1,1.8-0.8,2.1C199.2,445.8,198.9,445.8,198.7,445.8z"/>
		</g>
		<g>
			<polygon class="st7" points="200.5,442.5 196.1,444.3 200,455.4 207.5,458.4 			"/>
			<path class="st7" d="M207.3,459.5C207.2,459.5,207.2,459.5,207.3,459.5l-7.6-3.1c-0.3-0.1-0.5-0.3-0.6-0.6l-3.9-11.2
				c-0.1-0.3-0.1-0.6,0-0.8c0.1-0.3,0.3-0.5,0.6-0.6l4.4-1.7c0.5-0.2,1,0.1,1.2,0.5l7,15.9c0.2,0.4,0.1,0.9-0.1,1.2
				C208,459.5,207.6,459.6,207.3,459.5z M200.7,454.6l4.8,2l-5.5-12.7l-2.7,1L200.7,454.6z"/>
		</g>
	</g>
	<g class="st6">
		<g>
			<path class="st7" d="M213.6,445.8c-0.4-0.1-0.8-0.5-1-1l-24.7-73.1c-0.3-0.8,0.1-1.8,0.8-2.1c0.7-0.3,1.6,0.1,1.9,0.9l24.7,73.1
				c0.3,0.8-0.1,1.8-0.8,2.1C214.1,445.8,213.8,445.8,213.6,445.8z"/>
		</g>
		<g>
			<polygon class="st7" points="215.4,442.5 211,444.3 214.9,455.4 222.4,458.4 			"/>
			<path class="st7" d="M222.2,459.5C222.1,459.5,222.1,459.5,222.2,459.5l-7.6-3.1c-0.3-0.1-0.5-0.3-0.6-0.6l-3.9-11.2
				c-0.1-0.3-0.1-0.6,0-0.8c0.1-0.3,0.3-0.5,0.6-0.6l4.4-1.7c0.5-0.2,1,0.1,1.2,0.5l7,15.9c0.2,0.4,0.1,0.9-0.1,1.2
				C222.9,459.5,222.5,459.6,222.2,459.5z M215.6,454.6l4.8,2l-5.5-12.7l-2.7,1L215.6,454.6z"/>
		</g>
	</g>
	<g class="st6">
		<g>
			<path class="st7" d="M227.6,445.8c-0.4-0.1-0.8-0.5-1-1l-24.7-73.1c-0.3-0.8,0.1-1.8,0.8-2.1c0.7-0.3,1.6,0.1,1.9,0.9l24.7,73.1
				c0.3,0.8-0.1,1.8-0.8,2.1C228.2,445.8,227.9,445.8,227.6,445.8z"/>
		</g>
		<g>
			<polygon class="st7" points="229.4,442.5 225,444.3 228.9,455.4 236.4,458.4 			"/>
			<path class="st7" d="M236.2,459.5C236.2,459.5,236.1,459.5,236.2,459.5l-7.6-3.1c-0.3-0.1-0.5-0.3-0.6-0.6l-3.9-11.2
				c-0.1-0.3-0.1-0.6,0-0.8c0.1-0.3,0.3-0.5,0.6-0.6l4.4-1.7c0.5-0.2,1,0.1,1.2,0.5l7,15.9c0.2,0.4,0.1,0.9-0.1,1.2
				C236.9,459.5,236.5,459.6,236.2,459.5z M229.7,454.6l4.8,2l-5.5-12.7l-2.7,1L229.7,454.6z"/>
		</g>
	</g>
	<g class="st6">
		<g>
			<path class="st7" d="M244.4,445.8c-0.4-0.1-0.8-0.5-1-1l-24.7-73.1c-0.3-0.8,0.1-1.8,0.8-2.1c0.7-0.3,1.6,0.1,1.9,0.9l24.7,73.1
				c0.3,0.8-0.1,1.8-0.8,2.1C245,445.8,244.7,445.8,244.4,445.8z"/>
		</g>
		<g>
			<polygon class="st7" points="246.3,442.5 241.9,444.3 245.7,455.4 253.2,458.4 			"/>
			<path class="st7" d="M253,459.5C253,459.5,252.9,459.5,253,459.5l-7.6-3.1c-0.3-0.1-0.5-0.3-0.6-0.6l-3.9-11.2
				c-0.1-0.3-0.1-0.6,0-0.8c0.1-0.3,0.3-0.5,0.6-0.6l4.4-1.7c0.5-0.2,1,0.1,1.2,0.5l7,15.9c0.2,0.4,0.1,0.9-0.1,1.2
				C253.7,459.5,253.4,459.6,253,459.5z M246.5,454.6l4.8,2l-5.5-12.7l-2.7,1L246.5,454.6z"/>
		</g>
	</g>
	<g class="st6">
		<g>
			<path class="st7" d="M259.3,445.8c-0.4-0.1-0.8-0.5-1-1l-24.7-73.1c-0.3-0.8,0.1-1.8,0.8-2.1c0.7-0.3,1.6,0.1,1.9,0.9l24.7,73.1
				c0.3,0.8-0.1,1.8-0.8,2.1C259.9,445.8,259.6,445.8,259.3,445.8z"/>
		</g>
		<g>
			<polygon class="st7" points="261.2,442.5 256.8,444.3 260.6,455.4 268.1,458.4 			"/>
			<path class="st7" d="M267.9,459.5C267.9,459.5,267.9,459.5,267.9,459.5l-7.6-3.1c-0.3-0.1-0.5-0.3-0.6-0.6l-3.9-11.2
				c-0.1-0.3-0.1-0.6,0-0.8c0.1-0.3,0.3-0.5,0.6-0.6l4.4-1.7c0.5-0.2,1,0.1,1.2,0.5l7,15.9c0.2,0.4,0.1,0.9-0.1,1.2
				C268.6,459.5,268.3,459.6,267.9,459.5z M261.4,454.6l4.8,2l-5.5-12.7l-2.7,1L261.4,454.6z"/>
		</g>
	</g>
	<g class="st6">
		<g>
			<path class="st7" d="M273.3,445.8c-0.4-0.1-0.8-0.5-1-1l-24.7-73.1c-0.3-0.8,0.1-1.8,0.8-2.1c0.7-0.3,1.6,0.1,1.9,0.9l24.7,73.1
				c0.3,0.8-0.1,1.8-0.8,2.1C273.9,445.8,273.6,445.8,273.3,445.8z"/>
		</g>
		<g>
			<polygon class="st7" points="275.2,442.5 270.8,444.3 274.7,455.4 282.2,458.4 			"/>
			<path class="st7" d="M281.9,459.5C281.9,459.5,281.9,459.5,281.9,459.5l-7.6-3.1c-0.3-0.1-0.5-0.3-0.6-0.6l-3.9-11.2
				c-0.1-0.3-0.1-0.6,0-0.8c0.1-0.3,0.3-0.5,0.6-0.6l4.4-1.7c0.5-0.2,1,0.1,1.2,0.5l7,15.9c0.2,0.4,0.1,0.9-0.1,1.2
				C282.6,459.5,282.3,459.6,281.9,459.5z M275.4,454.6l4.8,2l-5.5-12.7l-2.7,1L275.4,454.6z"/>
		</g>
	</g>
	<g class="st6">
		<g>
			<path class="st7" d="M290.2,445.8c-0.4-0.1-0.8-0.5-1-1l-24.7-73.1c-0.3-0.8,0.1-1.8,0.8-2.1c0.7-0.3,1.6,0.1,1.9,0.9l24.7,73.1
				c0.3,0.8-0.1,1.8-0.8,2.1C290.7,445.8,290.4,445.8,290.2,445.8z"/>
		</g>
		<g>
			<polygon class="st7" points="292,442.5 287.6,444.3 291.5,455.4 299,458.4 			"/>
			<path class="st7" d="M298.8,459.5C298.7,459.5,298.7,459.5,298.8,459.5l-7.6-3.1c-0.3-0.1-0.5-0.3-0.6-0.6l-3.9-11.2
				c-0.1-0.3-0.1-0.6,0-0.8c0.1-0.3,0.3-0.5,0.6-0.6l4.4-1.7c0.5-0.2,1,0.1,1.2,0.5l7,15.9c0.2,0.4,0.1,0.9-0.1,1.2
				C299.5,459.5,299.1,459.6,298.8,459.5z M292.2,454.6l4.8,2l-5.5-12.7l-2.7,1L292.2,454.6z"/>
		</g>
	</g>
	<g class="st6">
		<g>
			<path class="st7" d="M305.1,445.8c-0.4-0.1-0.8-0.5-1-1l-24.7-73.1c-0.3-0.8,0.1-1.8,0.8-2.1c0.7-0.3,1.6,0.1,1.9,0.9l24.7,73.1
				c0.3,0.8-0.1,1.8-0.8,2.1C305.6,445.8,305.3,445.8,305.1,445.8z"/>
		</g>
		<g>
			<polygon class="st7" points="306.9,442.5 302.5,444.3 306.4,455.4 313.9,458.4 			"/>
			<path class="st7" d="M313.7,459.5C313.6,459.5,313.6,459.5,313.7,459.5l-7.6-3.1c-0.3-0.1-0.5-0.3-0.6-0.6l-3.9-11.2
				c-0.1-0.3-0.1-0.6,0-0.8c0.1-0.3,0.3-0.5,0.6-0.6l4.4-1.7c0.5-0.2,1,0.1,1.2,0.5l7,15.9c0.2,0.4,0.1,0.9-0.1,1.2
				C314.4,459.5,314,459.6,313.7,459.5z M307.1,454.6l4.8,2l-5.5-12.7l-2.7,1L307.1,454.6z"/>
		</g>
	</g>
	<g class="st6">
		<g>
			<path class="st7" d="M319.1,445.8c-0.4-0.1-0.8-0.5-1-1l-24.7-73.1c-0.3-0.8,0.1-1.8,0.8-2.1c0.7-0.3,1.6,0.1,1.9,0.9l24.7,73.1
				c0.3,0.8-0.1,1.8-0.8,2.1C319.7,445.8,319.4,445.8,319.1,445.8z"/>
		</g>
		<g>
			<polygon class="st7" points="320.9,442.5 316.5,444.3 320.4,455.4 327.9,458.4 			"/>
			<path class="st7" d="M327.7,459.5C327.6,459.5,327.6,459.5,327.7,459.5l-7.6-3.1c-0.3-0.1-0.5-0.3-0.6-0.6l-3.9-11.2
				c-0.1-0.3-0.1-0.6,0-0.8c0.1-0.3,0.3-0.5,0.6-0.6l4.4-1.7c0.5-0.2,1,0.1,1.2,0.5l7,15.9c0.2,0.4,0.1,0.9-0.1,1.2
				C328.4,459.5,328,459.6,327.7,459.5z M321.1,454.6l4.8,2l-5.5-12.7l-2.7,1L321.1,454.6z"/>
		</g>
	</g>
	<g class="st6">
		<g>
			<path class="st7" d="M335.9,445.8c-0.4-0.1-0.8-0.5-1-1l-24.7-73.1c-0.3-0.8,0.1-1.8,0.8-2.1c0.7-0.3,1.6,0.1,1.9,0.9l24.7,73.1
				c0.3,0.8-0.1,1.8-0.8,2.1C336.5,445.8,336.2,445.8,335.9,445.8z"/>
		</g>
		<g>
			<polygon class="st7" points="337.8,442.5 333.3,444.3 337.2,455.4 344.7,458.4 			"/>
			<path class="st7" d="M344.5,459.5C344.5,459.5,344.4,459.5,344.5,459.5l-7.6-3.1c-0.3-0.1-0.5-0.3-0.6-0.6l-3.9-11.2
				c-0.1-0.3-0.1-0.6,0-0.8c0.1-0.3,0.3-0.5,0.6-0.6l4.4-1.7c0.5-0.2,1,0.1,1.2,0.5l7,15.9c0.2,0.4,0.1,0.9-0.1,1.2
				C345.2,459.5,344.8,459.6,344.5,459.5z M338,454.6l4.8,2l-5.5-12.7l-2.7,1L338,454.6z"/>
		</g>
	</g>
	<g class="st6">
		<g>
			<path class="st7" d="M350.8,445.8c-0.4-0.1-0.8-0.5-1-1l-24.7-73.1c-0.3-0.8,0.1-1.8,0.8-2.1c0.7-0.3,1.6,0.1,1.9,0.9l24.7,73.1
				c0.3,0.8-0.1,1.8-0.8,2.1C351.4,445.8,351.1,445.8,350.8,445.8z"/>
		</g>
		<g>
			<polygon class="st7" points="352.7,442.5 348.3,444.3 352.1,455.4 359.6,458.4 			"/>
			<path class="st7" d="M359.4,459.5C359.4,459.5,359.3,459.5,359.4,459.5l-7.6-3.1c-0.3-0.1-0.5-0.3-0.6-0.6l-3.9-11.2
				c-0.1-0.3-0.1-0.6,0-0.8c0.1-0.3,0.3-0.5,0.6-0.6l4.4-1.7c0.5-0.2,1,0.1,1.2,0.5l7,15.9c0.2,0.4,0.1,0.9-0.1,1.2
				C360.1,459.5,359.7,459.6,359.4,459.5z M352.9,454.6l4.8,2l-5.5-12.7l-2.7,1L352.9,454.6z"/>
		</g>
	</g>
	<g class="st6">
		<g>
			<path class="st7" d="M365.4,445.8c-0.4-0.1-0.8-0.5-1-1l-24.7-73.1c-0.3-0.8,0.1-1.8,0.8-2.1c0.7-0.3,1.6,0.1,1.9,0.9l24.7,73.1
				c0.3,0.8-0.1,1.8-0.8,2.1C366,445.8,365.7,445.8,365.4,445.8z"/>
		</g>
		<g>
			<polygon class="st7" points="367.3,442.5 362.9,444.3 366.7,455.4 374.2,458.4 			"/>
			<path class="st7" d="M374,459.5C374,459.5,374,459.5,374,459.5l-7.6-3.1c-0.3-0.1-0.5-0.3-0.6-0.6l-3.9-11.2
				c-0.1-0.3-0.1-0.6,0-0.8c0.1-0.3,0.3-0.5,0.6-0.6l4.4-1.7c0.5-0.2,1,0.1,1.2,0.5l7,15.9c0.2,0.4,0.1,0.9-0.1,1.2
				C374.7,459.5,374.4,459.6,374,459.5z M367.5,454.6l4.8,2l-5.5-12.7l-2.7,1L367.5,454.6z"/>
		</g>
	</g>
	<g class="st6">
		<g>
			<path class="st7" d="M382.2,445.8c-0.4-0.1-0.8-0.5-1-1l-24.7-73.1c-0.3-0.8,0.1-1.8,0.8-2.1c0.7-0.3,1.6,0.1,1.9,0.9l24.7,73.1
				c0.3,0.8-0.1,1.8-0.8,2.1C382.8,445.8,382.5,445.8,382.2,445.8z"/>
		</g>
		<g>
			<polygon class="st7" points="384.1,442.5 379.7,444.3 383.6,455.4 391.1,458.4 			"/>
			<path class="st7" d="M390.8,459.5C390.8,459.5,390.8,459.5,390.8,459.5l-7.6-3.1c-0.3-0.1-0.5-0.3-0.6-0.6l-3.9-11.2
				c-0.1-0.3-0.1-0.6,0-0.8c0.1-0.3,0.3-0.5,0.6-0.6l4.4-1.7c0.5-0.2,1,0.1,1.2,0.5l7,15.9c0.2,0.4,0.1,0.9-0.1,1.2
				C391.6,459.5,391.2,459.6,390.8,459.5z M384.3,454.6l4.8,2l-5.5-12.7l-2.7,1L384.3,454.6z"/>
		</g>
	</g>
	<g class="st6">
		<g>
			<path class="st7" d="M397.1,445.8c-0.4-0.1-0.8-0.5-1-1l-24.7-73.1c-0.3-0.8,0.1-1.8,0.8-2.1c0.7-0.3,1.6,0.1,1.9,0.9l24.7,73.1
				c0.3,0.8-0.1,1.8-0.8,2.1C397.7,445.8,397.4,445.8,397.1,445.8z"/>
		</g>
		<g>
			<polygon class="st7" points="399,442.5 394.6,444.3 398.5,455.4 406,458.4 			"/>
			<path class="st7" d="M405.7,459.5C405.7,459.5,405.7,459.5,405.7,459.5l-7.6-3.1c-0.3-0.1-0.5-0.3-0.6-0.6l-3.9-11.2
				c-0.1-0.3-0.1-0.6,0-0.8c0.1-0.3,0.3-0.5,0.6-0.6l4.4-1.7c0.5-0.2,1,0.1,1.2,0.5l7,15.9c0.2,0.4,0.1,0.9-0.1,1.2
				C406.5,459.5,406.1,459.6,405.7,459.5z M399.2,454.6l4.8,2l-5.5-12.7l-2.7,1L399.2,454.6z"/>
		</g>
	</g>
	<g class="st6">
		<g>
			<path class="st7" d="M411.2,445.8c-0.4-0.1-0.8-0.5-1-1l-24.7-73.1c-0.3-0.8,0.1-1.8,0.8-2.1c0.7-0.3,1.6,0.1,1.9,0.9l24.7,73.1
				c0.3,0.8-0.1,1.8-0.8,2.1C411.7,445.8,411.4,445.8,411.2,445.8z"/>
		</g>
		<g>
			<polygon class="st7" points="413,442.5 408.6,444.3 412.5,455.4 420,458.4 			"/>
			<path class="st7" d="M419.8,459.5C419.7,459.5,419.7,459.5,419.8,459.5l-7.6-3.1c-0.3-0.1-0.5-0.3-0.6-0.6l-3.9-11.2
				c-0.1-0.3-0.1-0.6,0-0.8c0.1-0.3,0.3-0.5,0.6-0.6l4.4-1.7c0.5-0.2,1,0.1,1.2,0.5l7,15.9c0.2,0.4,0.1,0.9-0.1,1.2
				C420.5,459.5,420.1,459.6,419.8,459.5z M413.2,454.6l4.8,2l-5.5-12.7l-2.7,1L413.2,454.6z"/>
		</g>
	</g>
	<g class="st6">
		<g>
			<path class="st7" d="M428,445.8c-0.4-0.1-0.8-0.5-1-1l-24.7-73.1c-0.3-0.8,0.1-1.8,0.8-2.1c0.7-0.3,1.6,0.1,1.9,0.9l24.7,73.1
				c0.3,0.8-0.1,1.8-0.8,2.1C428.6,445.8,428.3,445.8,428,445.8z"/>
		</g>
		<g>
			<polygon class="st7" points="429.8,442.5 425.4,444.3 429.3,455.4 436.8,458.4 			"/>
			<path class="st7" d="M436.6,459.5C436.6,459.5,436.5,459.5,436.6,459.5l-7.6-3.1c-0.3-0.1-0.5-0.3-0.6-0.6l-3.9-11.2
				c-0.1-0.3-0.1-0.6,0-0.8c0.1-0.3,0.3-0.5,0.6-0.6l4.4-1.7c0.5-0.2,1,0.1,1.2,0.5l7,15.9c0.2,0.4,0.1,0.9-0.1,1.2
				C437.3,459.5,436.9,459.6,436.6,459.5z M430.1,454.6l4.8,2l-5.5-12.7l-2.7,1L430.1,454.6z"/>
		</g>
	</g>
	<g class="st6">
		<g>
			<path class="st7" d="M442.9,445.8c-0.4-0.1-0.8-0.5-1-1l-24.7-73.1c-0.3-0.8,0.1-1.8,0.8-2.1c0.7-0.3,1.6,0.1,1.9,0.9l24.7,73.1
				c0.3,0.8-0.1,1.8-0.8,2.1C443.5,445.8,443.2,445.8,442.9,445.8z"/>
		</g>
		<g>
			<polygon class="st7" points="444.7,442.5 440.3,444.3 444.2,455.4 451.7,458.4 			"/>
			<path class="st7" d="M451.5,459.5C451.5,459.5,451.4,459.5,451.5,459.5l-7.6-3.1c-0.3-0.1-0.5-0.3-0.6-0.6l-3.9-11.2
				c-0.1-0.3-0.1-0.6,0-0.8c0.1-0.3,0.3-0.5,0.6-0.6l4.4-1.7c0.5-0.2,1,0.1,1.2,0.5l7,15.9c0.2,0.4,0.1,0.9-0.1,1.2
				C452.2,459.5,451.8,459.6,451.5,459.5z M445,454.6l4.8,2l-5.5-12.7l-2.7,1L445,454.6z"/>
		</g>
	</g>
	<g class="st6">
		<g>
			<path class="st7" d="M456.9,445.8c-0.4-0.1-0.8-0.5-1-1l-24.7-73.1c-0.3-0.8,0.1-1.8,0.8-2.1c0.7-0.3,1.6,0.1,1.9,0.9l24.7,73.1
				c0.3,0.8-0.1,1.8-0.8,2.1C457.5,445.8,457.2,445.8,456.9,445.8z"/>
		</g>
		<g>
			<polygon class="st7" points="458.8,442.5 454.4,444.3 458.2,455.4 465.7,458.4 			"/>
			<path class="st7" d="M465.5,459.5C465.5,459.5,465.4,459.5,465.5,459.5l-7.6-3.1c-0.3-0.1-0.5-0.3-0.6-0.6l-3.9-11.2
				c-0.1-0.3-0.1-0.6,0-0.8c0.1-0.3,0.3-0.5,0.6-0.6l4.4-1.7c0.5-0.2,1,0.1,1.2,0.5l7,15.9c0.2,0.4,0.1,0.9-0.1,1.2
				C466.2,459.5,465.8,459.6,465.5,459.5z M459,454.6l4.8,2l-5.5-12.7l-2.7,1L459,454.6z"/>
		</g>
	</g>
	<g class="st6">
		<g>
			<path class="st7" d="M473.7,445.8c-0.4-0.1-0.8-0.5-1-1L448,371.7c-0.3-0.8,0.1-1.8,0.8-2.1c0.7-0.3,1.6,0.1,1.9,0.9l24.7,73.1
				c0.3,0.8-0.1,1.8-0.8,2.1C474.3,445.8,474,445.8,473.7,445.8z"/>
		</g>
		<g>
			<polygon class="st7" points="475.6,442.5 471.2,444.3 475.1,455.4 482.6,458.4 			"/>
			<path class="st7" d="M482.3,459.5C482.3,459.5,482.3,459.5,482.3,459.5l-7.6-3.1c-0.3-0.1-0.5-0.3-0.6-0.6l-3.9-11.2
				c-0.1-0.3-0.1-0.6,0-0.8c0.1-0.3,0.3-0.5,0.6-0.6l4.4-1.7c0.5-0.2,1,0.1,1.2,0.5l7,15.9c0.2,0.4,0.1,0.9-0.1,1.2
				C483,459.5,482.7,459.6,482.3,459.5z M475.8,454.6l4.8,2l-5.5-12.7l-2.7,1L475.8,454.6z"/>
		</g>
	</g>
	<g class="st6">
		<g>
			<path class="st7" d="M488.6,445.8c-0.4-0.1-0.8-0.5-1-1L463,371.7c-0.3-0.8,0.1-1.8,0.8-2.1c0.7-0.3,1.6,0.1,1.9,0.9l24.7,73.1
				c0.3,0.8-0.1,1.8-0.8,2.1C489.2,445.8,488.9,445.8,488.6,445.8z"/>
		</g>
		<g>
			<polygon class="st7" points="490.5,442.5 486.1,444.3 490,455.4 497.5,458.4 			"/>
			<path class="st7" d="M497.2,459.5C497.2,459.5,497.2,459.5,497.2,459.5l-7.6-3.1c-0.3-0.1-0.5-0.3-0.6-0.6l-3.9-11.2
				c-0.1-0.3-0.1-0.6,0-0.8c0.1-0.3,0.3-0.5,0.6-0.6l4.4-1.7c0.5-0.2,1,0.1,1.2,0.5l7,15.9c0.2,0.4,0.1,0.9-0.1,1.2
				C498,459.5,497.6,459.6,497.2,459.5z M490.7,454.6l4.8,2l-5.5-12.7l-2.7,1L490.7,454.6z"/>
		</g>
	</g>
	<g class="st6">
		<g>
			<path class="st7" d="M502.7,445.8c-0.4-0.1-0.8-0.5-1-1L477,371.7c-0.3-0.8,0.1-1.8,0.8-2.1c0.7-0.3,1.6,0.1,1.9,0.9l24.7,73.1
				c0.3,0.8-0.1,1.8-0.8,2.1C503.2,445.8,502.9,445.8,502.7,445.8z"/>
		</g>
		<g>
			<polygon class="st7" points="504.5,442.5 500.1,444.3 504,455.4 511.5,458.4 			"/>
			<path class="st7" d="M511.2,459.5C511.2,459.5,511.2,459.5,511.2,459.5l-7.6-3.1c-0.3-0.1-0.5-0.3-0.6-0.6l-3.9-11.2
				c-0.1-0.3-0.1-0.6,0-0.8c0.1-0.3,0.3-0.5,0.6-0.6l4.4-1.7c0.5-0.2,1,0.1,1.2,0.5l7,15.9c0.2,0.4,0.1,0.9-0.1,1.2
				C512,459.5,511.6,459.6,511.2,459.5z M504.7,454.6l4.8,2l-5.5-12.7l-2.7,1L504.7,454.6z"/>
		</g>
	</g>
	<g class="st6">
		<g>
			<path class="st7" d="M519.5,445.8c-0.4-0.1-0.8-0.5-1-1l-24.7-73.1c-0.3-0.8,0.1-1.8,0.8-2.1c0.7-0.3,1.6,0.1,1.9,0.9l24.7,73.1
				c0.3,0.8-0.1,1.8-0.8,2.1C520.1,445.8,519.8,445.8,519.5,445.8z"/>
		</g>
		<g>
			<polygon class="st7" points="521.3,442.5 516.9,444.3 520.8,455.4 528.3,458.4 			"/>
			<path class="st7" d="M528.1,459.5C528,459.5,528,459.5,528.1,459.5l-7.6-3.1c-0.3-0.1-0.5-0.3-0.6-0.6l-3.9-11.2
				c-0.1-0.3-0.1-0.6,0-0.8c0.1-0.3,0.3-0.5,0.6-0.6l4.4-1.7c0.5-0.2,1,0.1,1.2,0.5l7,15.9c0.2,0.4,0.1,0.9-0.1,1.2
				C528.8,459.5,528.4,459.6,528.1,459.5z M521.5,454.6l4.8,2l-5.5-12.7l-2.7,1L521.5,454.6z"/>
		</g>
	</g>
	<g class="st6">
		<g>
			<path class="st7" d="M534.4,445.8c-0.4-0.1-0.8-0.5-1-1l-24.7-73.1c-0.3-0.8,0.1-1.8,0.8-2.1c0.7-0.3,1.6,0.1,1.9,0.9l24.7,73.1
				c0.3,0.8-0.1,1.8-0.8,2.1C535,445.8,534.7,445.8,534.4,445.8z"/>
		</g>
		<g>
			<polygon class="st7" points="536.2,442.5 531.8,444.3 535.7,455.4 543.2,458.4 			"/>
			<path class="st7" d="M543,459.5C543,459.5,542.9,459.5,543,459.5l-7.6-3.1c-0.3-0.1-0.5-0.3-0.6-0.6l-3.9-11.2
				c-0.1-0.3-0.1-0.6,0-0.8c0.1-0.3,0.3-0.5,0.6-0.6l4.4-1.7c0.5-0.2,1,0.1,1.2,0.5l7,15.9c0.2,0.4,0.1,0.9-0.1,1.2
				C543.7,459.5,543.3,459.6,543,459.5z M536.5,454.6l4.8,2l-5.5-12.7l-2.7,1L536.5,454.6z"/>
		</g>
	</g>
	<g class="st6">
		<g>
			<path class="st7" d="M548.4,445.8c-0.4-0.1-0.8-0.5-1-1l-24.7-73.1c-0.3-0.8,0.1-1.8,0.8-2.1c0.7-0.3,1.6,0.1,1.9,0.9l24.7,73.1
				c0.3,0.8-0.1,1.8-0.8,2.1C549,445.8,548.7,445.8,548.4,445.8z"/>
		</g>
		<g>
			<polygon class="st7" points="550.3,442.5 545.8,444.3 549.7,455.4 557.2,458.4 			"/>
			<path class="st7" d="M557,459.5C557,459.5,556.9,459.5,557,459.5l-7.6-3.1c-0.3-0.1-0.5-0.3-0.6-0.6l-3.9-11.2
				c-0.1-0.3-0.1-0.6,0-0.8c0.1-0.3,0.3-0.5,0.6-0.6l4.4-1.7c0.5-0.2,1,0.1,1.2,0.5l7,15.9c0.2,0.4,0.1,0.9-0.1,1.2
				C557.7,459.5,557.3,459.6,557,459.5z M550.5,454.6l4.8,2l-5.5-12.7l-2.7,1L550.5,454.6z"/>
		</g>
	</g>
	<g class="st6">
		<g>
			<path class="st7" d="M562.4,445.8c-0.4-0.1-0.8-0.5-1-1l-24.7-73.1c-0.3-0.8,0.1-1.8,0.8-2.1c0.7-0.3,1.6,0.1,1.9,0.9l24.7,73.1
				c0.3,0.8-0.1,1.8-0.8,2.1C563,445.8,562.7,445.8,562.4,445.8z"/>
		</g>
		<g>
			<polygon class="st7" points="564.3,442.5 559.9,444.3 563.7,455.4 571.2,458.4 			"/>
			<path class="st7" d="M571,459.5C571,459.5,570.9,459.5,571,459.5l-7.6-3.1c-0.3-0.1-0.5-0.3-0.6-0.6l-3.9-11.2
				c-0.1-0.3-0.1-0.6,0-0.8c0.1-0.3,0.3-0.5,0.6-0.6l4.4-1.7c0.5-0.2,1,0.1,1.2,0.5l7,15.9c0.2,0.4,0.1,0.9-0.1,1.2
				C571.7,459.5,571.4,459.6,571,459.5z M564.5,454.6l4.8,2l-5.5-12.7l-2.7,1L564.5,454.6z"/>
		</g>
	</g>
	<g class="st6">
		<g>
			<path class="st7" d="M579.2,445.8c-0.4-0.1-0.8-0.5-1-1l-24.7-73.1c-0.3-0.8,0.1-1.8,0.8-2.1c0.7-0.3,1.6,0.1,1.9,0.9l24.7,73.1
				c0.3,0.8-0.1,1.8-0.8,2.1C579.8,445.8,579.5,445.8,579.2,445.8z"/>
		</g>
		<g>
			<polygon class="st7" points="581.1,442.5 576.7,444.3 580.6,455.4 588.1,458.4 			"/>
			<path class="st7" d="M587.8,459.5C587.8,459.5,587.8,459.5,587.8,459.5l-7.6-3.1c-0.3-0.1-0.5-0.3-0.6-0.6l-3.9-11.2
				c-0.1-0.3-0.1-0.6,0-0.8c0.1-0.3,0.3-0.5,0.6-0.6l4.4-1.7c0.5-0.2,1,0.1,1.2,0.5l7,15.9c0.2,0.4,0.1,0.9-0.1,1.2
				C588.5,459.5,588.2,459.6,587.8,459.5z M581.3,454.6l4.8,2l-5.5-12.7l-2.7,1L581.3,454.6z"/>
		</g>
	</g>
	<g class="st6">
		<g>
			<path class="st7" d="M594.1,445.8c-0.4-0.1-0.8-0.5-1-1l-24.7-73.1c-0.3-0.8,0.1-1.8,0.8-2.1c0.7-0.3,1.6,0.1,1.9,0.9l24.7,73.1
				c0.3,0.8-0.1,1.8-0.8,2.1C594.7,445.8,594.4,445.8,594.1,445.8z"/>
		</g>
		<g>
			<polygon class="st7" points="596,442.5 591.6,444.3 595.5,455.4 603,458.4 			"/>
			<path class="st7" d="M602.7,459.5C602.7,459.5,602.7,459.5,602.7,459.5l-7.6-3.1c-0.3-0.1-0.5-0.3-0.6-0.6l-3.9-11.2
				c-0.1-0.3-0.1-0.6,0-0.8c0.1-0.3,0.3-0.5,0.6-0.6l4.4-1.7c0.5-0.2,1,0.1,1.2,0.5l7,15.9c0.2,0.4,0.1,0.9-0.1,1.2
				C603.5,459.5,603.1,459.6,602.7,459.5z M596.2,454.6l4.8,2l-5.5-12.7l-2.7,1L596.2,454.6z"/>
		</g>
	</g>
	<g class="st6">
		<g>
			<path class="st7" d="M608.2,445.8c-0.4-0.1-0.8-0.5-1-1l-24.7-73.1c-0.3-0.8,0.1-1.8,0.8-2.1c0.7-0.3,1.6,0.1,1.9,0.9l24.7,73.1
				c0.3,0.8-0.1,1.8-0.8,2.1C608.7,445.8,608.4,445.8,608.2,445.8z"/>
		</g>
		<g>
			<polygon class="st7" points="610,442.5 605.6,444.3 609.5,455.4 617,458.4 			"/>
			<path class="st7" d="M616.8,459.5C616.7,459.5,616.7,459.5,616.8,459.5l-7.6-3.1c-0.3-0.1-0.5-0.3-0.6-0.6l-3.9-11.2
				c-0.1-0.3-0.1-0.6,0-0.8c0.1-0.3,0.3-0.5,0.6-0.6l4.4-1.7c0.5-0.2,1,0.1,1.2,0.5l7,15.9c0.2,0.4,0.1,0.9-0.1,1.2
				C617.5,459.5,617.1,459.6,616.8,459.5z M610.2,454.6l4.8,2l-5.5-12.7l-2.7,1L610.2,454.6z"/>
		</g>
	</g>
	<g class="st6">
		<g>
			<path class="st7" d="M625,445.8c-0.4-0.1-0.8-0.5-1-1l-24.7-73.1c-0.3-0.8,0.1-1.8,0.8-2.1c0.7-0.3,1.6,0.1,1.9,0.9l24.7,73.1
				c0.3,0.8-0.1,1.8-0.8,2.1C625.6,445.8,625.3,445.8,625,445.8z"/>
		</g>
		<g>
			<polygon class="st7" points="626.8,442.5 622.4,444.3 626.3,455.4 633.8,458.4 			"/>
			<path class="st7" d="M633.6,459.5C633.6,459.5,633.5,459.5,633.6,459.5l-7.6-3.1c-0.3-0.1-0.5-0.3-0.6-0.6l-3.9-11.2
				c-0.1-0.3-0.1-0.6,0-0.8c0.1-0.3,0.3-0.5,0.6-0.6l4.4-1.7c0.5-0.2,1,0.1,1.2,0.5l7,15.9c0.2,0.4,0.1,0.9-0.1,1.2
				C634.3,459.5,633.9,459.6,633.6,459.5z M627.1,454.6l4.8,2l-5.5-12.7l-2.7,1L627.1,454.6z"/>
		</g>
	</g>
	<g class="st6">
		<g>
			<path class="st7" d="M639.9,445.8c-0.4-0.1-0.8-0.5-1-1l-24.7-73.1c-0.3-0.8,0.1-1.8,0.8-2.1c0.7-0.3,1.6,0.1,1.9,0.9l24.7,73.1
				c0.3,0.8-0.1,1.8-0.8,2.1C640.5,445.8,640.2,445.8,639.9,445.8z"/>
		</g>
		<g>
			<polygon class="st7" points="641.7,442.5 637.3,444.3 641.2,455.4 648.7,458.4 			"/>
			<path class="st7" d="M648.5,459.5C648.5,459.5,648.4,459.5,648.5,459.5l-7.6-3.1c-0.3-0.1-0.5-0.3-0.6-0.6l-3.9-11.2
				c-0.1-0.3-0.1-0.6,0-0.8c0.1-0.3,0.3-0.5,0.6-0.6l4.4-1.7c0.5-0.2,1,0.1,1.2,0.5l7,15.9c0.2,0.4,0.1,0.9-0.1,1.2
				C649.2,459.5,648.8,459.6,648.5,459.5z M642,454.6l4.8,2l-5.5-12.7l-2.7,1L642,454.6z"/>
		</g>
	</g>
</g>
</svg>
