<?xml version="1.0" encoding="utf-8"?>
<!-- Generator: Adobe Illustrator 24.1.1, SVG Export Plug-In . SVG Version: 6.00 Build 0)  -->
<svg version="1.1" xmlns="http://www.w3.org/2000/svg" xmlns:xlink="http://www.w3.org/1999/xlink" x="0px" y="0px"
	 viewBox="0 0 492.6 648.3" style="enable-background:new 0 0 492.6 648.3;" xml:space="preserve">
<style type="text/css">
	.st0{display:none;}
	.st1{display:inline;fill:#470240;stroke:#E3145E;stroke-width:6;stroke-miterlimit:10;}
	.st2{display:inline;}
	.st3{fill:#E3AFB0;}
	.st4{fill:#E3145E;}
	.st5{clip-path:url(#SVGID_2_);}
	.st6{display:inline;fill:#E3AFB0;}
	.st7{display:inline;fill:#E3145E;}
	.st8{clip-path:url(#SVGID_4_);}
	.st9{clip-path:url(#SVGID_6_);}
	.st10{clip-path:url(#SVGID_8_);}
	.st11{clip-path:url(#SVGID_10_);}
	.st12{clip-path:url(#SVGID_12_);}
	.st13{fill:#470240;stroke:#E3145E;stroke-width:6;stroke-miterlimit:10;}
</style>
<g id="Layer_1" class="st0">
	
		<image style="display:inline;overflow:visible;" width="440" height="568" xlink:href="7BB75853.jpg"  transform="matrix(1.2567 0 0 1.2567 -16.9621 -102.4494)">
	</image>
</g>
<g id="Layer_2" class="st0">
	<rect x="140.3" y="64.8" class="st1" width="115.7" height="526.2"/>
	<rect x="255.2" y="64.8" class="st1" width="115.7" height="526.2"/>
	
		<image style="display:inline;overflow:visible;" width="1136" height="352" xlink:href="../Phase 2 - Wireframing/psychopomp_color.png"  transform="matrix(0.12 0 0 0.12 -65.7016 -228.3241)">
	</image>
	<g class="st2">
		<polygon class="st3" points="422.1,121.8 422.1,588.4 407,604.3 357.4,604.3 357.4,116.2 407.1,116.2 		"/>
		<polygon class="st4" points="407,604.3 407.1,116.2 422.1,121.8 422.1,588.4 		"/>
	</g>
	<g class="st2">
		<g>
			<path class="st4" d="M137.3,498.6c3.2,0,3.2-5,0-5C134.1,493.6,134.1,498.6,137.3,498.6L137.3,498.6z"/>
		</g>
	</g>
	<g class="st2">
		<g>
			<defs>
				<rect id="SVGID_1_" x="274.6" y="113.8" width="69.7" height="111.1"/>
			</defs>
			<clipPath id="SVGID_2_">
				<use xlink:href="#SVGID_1_"  style="overflow:visible;"/>
			</clipPath>
			<g class="st5">
				<g>
					<g>
						<path class="st4" d="M346.5,92.3v24.6h-10.3C336.3,116.9,337.1,93.1,346.5,92.3z"/>
						<path class="st3" d="M346.5,92.3v24.6h10.3C356.8,116.9,356,93.1,346.5,92.3z"/>
					</g>
					<g>
						<path class="st4" d="M328.3,92.3v24.6H318C318,116.9,318.8,93.1,328.3,92.3z"/>
						<path class="st3" d="M328.3,92.3v24.6h10.3C338.5,116.9,337.7,93.1,328.3,92.3z"/>
					</g>
					<g>
						<path class="st4" d="M310,92.3v24.6h-10.3C299.7,116.9,300.5,93.1,310,92.3z"/>
						<path class="st3" d="M310,92.3v24.6h10.3C320.3,116.9,319.5,93.1,310,92.3z"/>
					</g>
					<g>
						<path class="st4" d="M291.7,92.3v24.6h-10.3C281.4,116.9,282.3,93.1,291.7,92.3z"/>
						<path class="st3" d="M291.7,92.3v24.6H302C302,116.9,301.2,93.1,291.7,92.3z"/>
					</g>
					<g>
						<path class="st4" d="M273.4,92.3v24.6h-10.3C263.2,116.9,264,93.1,273.4,92.3z"/>
						<path class="st3" d="M273.4,92.3v24.6h10.3C283.7,116.9,282.9,93.1,273.4,92.3z"/>
					</g>
				</g>
				<g>
					<g>
						<path class="st4" d="M338.5,104.6v24.6h-10.3C328.3,129.2,329.1,105.4,338.5,104.6z"/>
						<path class="st3" d="M338.5,104.6v24.6h10.3C348.8,129.2,348,105.4,338.5,104.6z"/>
					</g>
					<g>
						<path class="st4" d="M320.3,104.6v24.6H310C310,129.2,310.8,105.4,320.3,104.6z"/>
						<path class="st3" d="M320.3,104.6v24.6h10.3C330.5,129.2,329.7,105.4,320.3,104.6z"/>
					</g>
					<g>
						<path class="st4" d="M302,104.6v24.6h-10.3C291.7,129.2,292.5,105.4,302,104.6z"/>
						<path class="st3" d="M302,104.6v24.6h10.3C312.3,129.2,311.5,105.4,302,104.6z"/>
					</g>
					<g>
						<path class="st4" d="M283.7,104.6v24.6h-10.3C273.4,129.2,274.3,105.4,283.7,104.6z"/>
						<path class="st3" d="M283.7,104.6v24.6H294C294,129.2,293.2,105.4,283.7,104.6z"/>
					</g>
					<g>
						<path class="st4" d="M265.4,104.6v24.6h-10.3C255.2,129.2,256,105.4,265.4,104.6z"/>
						<path class="st3" d="M265.4,104.6v24.6h10.3C275.7,129.2,274.9,105.4,265.4,104.6z"/>
					</g>
				</g>
				<g>
					<g>
						<path class="st4" d="M346.5,113.8v24.6h-10.3C336.3,138.4,337.1,114.6,346.5,113.8z"/>
						<path class="st3" d="M346.5,113.8v24.6h10.3C356.8,138.4,356,114.6,346.5,113.8z"/>
					</g>
					<g>
						<path class="st4" d="M328.3,113.8v24.6H318C318,138.4,318.8,114.6,328.3,113.8z"/>
						<path class="st3" d="M328.3,113.8v24.6h10.3C338.5,138.4,337.7,114.6,328.3,113.8z"/>
					</g>
					<g>
						<path class="st4" d="M310,113.8v24.6h-10.3C299.7,138.4,300.5,114.6,310,113.8z"/>
						<path class="st3" d="M310,113.8v24.6h10.3C320.3,138.4,319.5,114.6,310,113.8z"/>
					</g>
					<g>
						<path class="st4" d="M291.7,113.8v24.6h-10.3C281.4,138.4,282.3,114.6,291.7,113.8z"/>
						<path class="st3" d="M291.7,113.8v24.6H302C302,138.4,301.2,114.6,291.7,113.8z"/>
					</g>
					<g>
						<path class="st4" d="M273.4,113.8v24.6h-10.3C263.2,138.4,264,114.6,273.4,113.8z"/>
						<path class="st3" d="M273.4,113.8v24.6h10.3C283.7,138.4,282.9,114.6,273.4,113.8z"/>
					</g>
				</g>
				<g>
					<g>
						<path class="st4" d="M354.5,126.1v24.6h-10.3C344.3,150.7,345.1,126.9,354.5,126.1z"/>
						<path class="st3" d="M354.5,126.1v24.6h10.3C364.8,150.7,364,126.9,354.5,126.1z"/>
					</g>
					<g>
						<path class="st4" d="M336.3,126.1v24.6H326C326,150.7,326.8,126.9,336.3,126.1z"/>
						<path class="st3" d="M336.3,126.1v24.6h10.3C346.5,150.7,345.7,126.9,336.3,126.1z"/>
					</g>
					<g>
						<path class="st4" d="M318,126.1v24.6h-10.3C307.7,150.7,308.5,126.9,318,126.1z"/>
						<path class="st3" d="M318,126.1v24.6h10.3C328.3,150.7,327.4,126.9,318,126.1z"/>
					</g>
					<g>
						<path class="st4" d="M299.7,126.1v24.6h-10.3C289.4,150.7,290.2,126.9,299.7,126.1z"/>
						<path class="st3" d="M299.7,126.1v24.6H310C310,150.7,309.2,126.9,299.7,126.1z"/>
					</g>
					<g>
						<path class="st4" d="M281.4,126.1v24.6h-10.3C271.2,150.7,272,126.9,281.4,126.1z"/>
						<path class="st3" d="M281.4,126.1v24.6h10.3C291.7,150.7,290.9,126.9,281.4,126.1z"/>
					</g>
				</g>
				<g>
					<g>
						<path class="st4" d="M346.5,138.4V163h-10.3C336.3,163,337.1,139.2,346.5,138.4z"/>
						<path class="st3" d="M346.5,138.4V163h10.3C356.8,163,356,139.2,346.5,138.4z"/>
					</g>
					<g>
						<path class="st4" d="M328.3,138.4V163H318C318,163,318.8,139.2,328.3,138.4z"/>
						<path class="st3" d="M328.3,138.4V163h10.3C338.5,163,337.7,139.2,328.3,138.4z"/>
					</g>
					<g>
						<path class="st4" d="M310,138.4V163h-10.3C299.7,163,300.5,139.2,310,138.4z"/>
						<path class="st3" d="M310,138.4V163h10.3C320.3,163,319.5,139.2,310,138.4z"/>
					</g>
					<g>
						<path class="st4" d="M291.7,138.4V163h-10.3C281.4,163,282.3,139.2,291.7,138.4z"/>
						<path class="st3" d="M291.7,138.4V163H302C302,163,301.2,139.2,291.7,138.4z"/>
					</g>
					<g>
						<path class="st4" d="M273.4,138.4V163h-10.3C263.2,163,264,139.2,273.4,138.4z"/>
						<path class="st3" d="M273.4,138.4V163h10.3C283.7,163,282.9,139.2,273.4,138.4z"/>
					</g>
				</g>
				<g>
					<g>
						<path class="st4" d="M354.5,147.6v24.6h-10.3C344.3,172.2,345.1,148.4,354.5,147.6z"/>
						<path class="st3" d="M354.5,147.6v24.6h10.3C364.8,172.2,364,148.4,354.5,147.6z"/>
					</g>
					<g>
						<path class="st4" d="M336.3,147.6v24.6H326C326,172.2,326.8,148.4,336.3,147.6z"/>
						<path class="st3" d="M336.3,147.6v24.6h10.3C346.5,172.2,345.7,148.4,336.3,147.6z"/>
					</g>
					<g>
						<path class="st4" d="M318,147.6v24.6h-10.3C307.7,172.2,308.5,148.4,318,147.6z"/>
						<path class="st3" d="M318,147.6v24.6h10.3C328.3,172.2,327.4,148.4,318,147.6z"/>
					</g>
					<g>
						<path class="st4" d="M299.7,147.6v24.6h-10.3C289.4,172.2,290.2,148.4,299.7,147.6z"/>
						<path class="st3" d="M299.7,147.6v24.6H310C310,172.2,309.2,148.4,299.7,147.6z"/>
					</g>
					<g>
						<path class="st4" d="M281.4,147.6v24.6h-10.3C271.2,172.2,272,148.4,281.4,147.6z"/>
						<path class="st3" d="M281.4,147.6v24.6h10.3C291.7,172.2,290.9,148.4,281.4,147.6z"/>
					</g>
				</g>
				<g>
					<g>
						<path class="st4" d="M346.5,157.3v24.6h-10.3C336.3,181.9,337.1,158.1,346.5,157.3z"/>
						<path class="st3" d="M346.5,157.3v24.6h10.3C356.8,181.9,356,158.1,346.5,157.3z"/>
					</g>
					<g>
						<path class="st4" d="M328.3,157.3v24.6H318C318,181.9,318.8,158.1,328.3,157.3z"/>
						<path class="st3" d="M328.3,157.3v24.6h10.3C338.5,181.9,337.7,158.1,328.3,157.3z"/>
					</g>
					<g>
						<path class="st4" d="M310,157.3v24.6h-10.3C299.7,181.9,300.5,158.1,310,157.3z"/>
						<path class="st3" d="M310,157.3v24.6h10.3C320.3,181.9,319.5,158.1,310,157.3z"/>
					</g>
					<g>
						<path class="st4" d="M291.7,157.3v24.6h-10.3C281.4,181.9,282.3,158.1,291.7,157.3z"/>
						<path class="st3" d="M291.7,157.3v24.6H302C302,181.9,301.2,158.1,291.7,157.3z"/>
					</g>
					<g>
						<path class="st4" d="M273.4,157.3v24.6h-10.3C263.2,181.9,264,158.1,273.4,157.3z"/>
						<path class="st3" d="M273.4,157.3v24.6h10.3C283.7,181.9,282.9,158.1,273.4,157.3z"/>
					</g>
				</g>
				<g>
					<g>
						<path class="st4" d="M338.5,169.6v24.6h-10.3C328.3,194.2,329.1,170.4,338.5,169.6z"/>
						<path class="st3" d="M338.5,169.6v24.6h10.3C348.8,194.2,348,170.4,338.5,169.6z"/>
					</g>
					<g>
						<path class="st4" d="M320.3,169.6v24.6H310C310,194.2,310.8,170.4,320.3,169.6z"/>
						<path class="st3" d="M320.3,169.6v24.6h10.3C330.5,194.2,329.7,170.4,320.3,169.6z"/>
					</g>
					<g>
						<path class="st4" d="M302,169.6v24.6h-10.3C291.7,194.2,292.5,170.4,302,169.6z"/>
						<path class="st3" d="M302,169.6v24.6h10.3C312.3,194.2,311.5,170.4,302,169.6z"/>
					</g>
					<g>
						<path class="st4" d="M283.7,169.6v24.6h-10.3C273.4,194.2,274.3,170.4,283.7,169.6z"/>
						<path class="st3" d="M283.7,169.6v24.6H294C294,194.2,293.2,170.4,283.7,169.6z"/>
					</g>
					<g>
						<path class="st4" d="M265.4,169.6v24.6h-10.3C255.2,194.2,256,170.4,265.4,169.6z"/>
						<path class="st3" d="M265.4,169.6v24.6h10.3C275.7,194.2,274.9,170.4,265.4,169.6z"/>
					</g>
				</g>
				<g>
					<g>
						<path class="st4" d="M346.5,178.8v24.6h-10.3C336.3,203.4,337.1,179.6,346.5,178.8z"/>
						<path class="st3" d="M346.5,178.8v24.6h10.3C356.8,203.4,356,179.6,346.5,178.8z"/>
					</g>
					<g>
						<path class="st4" d="M328.3,178.8v24.6H318C318,203.4,318.8,179.6,328.3,178.8z"/>
						<path class="st3" d="M328.3,178.8v24.6h10.3C338.5,203.4,337.7,179.6,328.3,178.8z"/>
					</g>
					<g>
						<path class="st4" d="M310,178.8v24.6h-10.3C299.7,203.4,300.5,179.6,310,178.8z"/>
						<path class="st3" d="M310,178.8v24.6h10.3C320.3,203.4,319.5,179.6,310,178.8z"/>
					</g>
					<g>
						<path class="st4" d="M291.7,178.8v24.6h-10.3C281.4,203.4,282.3,179.6,291.7,178.8z"/>
						<path class="st3" d="M291.7,178.8v24.6H302C302,203.4,301.2,179.6,291.7,178.8z"/>
					</g>
					<g>
						<path class="st4" d="M273.4,178.8v24.6h-10.3C263.2,203.4,264,179.6,273.4,178.8z"/>
						<path class="st3" d="M273.4,178.8v24.6h10.3C283.7,203.4,282.9,179.6,273.4,178.8z"/>
					</g>
				</g>
				<g>
					<g>
						<path class="st4" d="M354.5,191.1v24.6h-10.3C344.3,215.7,345.1,191.9,354.5,191.1z"/>
						<path class="st3" d="M354.5,191.1v24.6h10.3C364.8,215.7,364,191.9,354.5,191.1z"/>
					</g>
					<g>
						<path class="st4" d="M336.3,191.1v24.6H326C326,215.7,326.8,191.9,336.3,191.1z"/>
						<path class="st3" d="M336.3,191.1v24.6h10.3C346.5,215.7,345.7,191.9,336.3,191.1z"/>
					</g>
					<g>
						<path class="st4" d="M318,191.1v24.6h-10.3C307.7,215.7,308.5,191.9,318,191.1z"/>
						<path class="st3" d="M318,191.1v24.6h10.3C328.3,215.7,327.4,191.9,318,191.1z"/>
					</g>
					<g>
						<path class="st4" d="M299.7,191.1v24.6h-10.3C289.4,215.7,290.2,191.9,299.7,191.1z"/>
						<path class="st3" d="M299.7,191.1v24.6H310C310,215.7,309.2,191.9,299.7,191.1z"/>
					</g>
					<g>
						<path class="st4" d="M281.4,191.1v24.6h-10.3C271.2,215.7,272,191.9,281.4,191.1z"/>
						<path class="st3" d="M281.4,191.1v24.6h10.3C291.7,215.7,290.9,191.9,281.4,191.1z"/>
					</g>
				</g>
				<g>
					<g>
						<path class="st4" d="M346.5,203.4V228h-10.3C336.3,228,337.1,204.2,346.5,203.4z"/>
						<path class="st3" d="M346.5,203.4V228h10.3C356.8,228,356,204.2,346.5,203.4z"/>
					</g>
					<g>
						<path class="st4" d="M328.3,203.4V228H318C318,228,318.8,204.2,328.3,203.4z"/>
						<path class="st3" d="M328.3,203.4V228h10.3C338.5,228,337.7,204.2,328.3,203.4z"/>
					</g>
					<g>
						<path class="st4" d="M310,203.4V228h-10.3C299.7,228,300.5,204.2,310,203.4z"/>
						<path class="st3" d="M310,203.4V228h10.3C320.3,228,319.5,204.2,310,203.4z"/>
					</g>
					<g>
						<path class="st4" d="M291.7,203.4V228h-10.3C281.4,228,282.3,204.2,291.7,203.4z"/>
						<path class="st3" d="M291.7,203.4V228H302C302,228,301.2,204.2,291.7,203.4z"/>
					</g>
					<g>
						<path class="st4" d="M273.4,203.4V228h-10.3C263.2,228,264,204.2,273.4,203.4z"/>
						<path class="st3" d="M273.4,203.4V228h10.3C283.7,228,282.9,204.2,273.4,203.4z"/>
					</g>
				</g>
				<g>
					<g>
						<path class="st4" d="M354.5,212.6v24.6h-10.3C344.3,237.2,345.1,213.4,354.5,212.6z"/>
						<path class="st3" d="M354.5,212.6v24.6h10.3C364.8,237.2,364,213.4,354.5,212.6z"/>
					</g>
					<g>
						<path class="st4" d="M336.3,212.6v24.6H326C326,237.2,326.8,213.4,336.3,212.6z"/>
						<path class="st3" d="M336.3,212.6v24.6h10.3C346.5,237.2,345.7,213.4,336.3,212.6z"/>
					</g>
					<g>
						<path class="st4" d="M318,212.6v24.6h-10.3C307.7,237.2,308.5,213.4,318,212.6z"/>
						<path class="st3" d="M318,212.6v24.6h10.3C328.3,237.2,327.4,213.4,318,212.6z"/>
					</g>
					<g>
						<path class="st4" d="M299.7,212.6v24.6h-10.3C289.4,237.2,290.2,213.4,299.7,212.6z"/>
						<path class="st3" d="M299.7,212.6v24.6H310C310,237.2,309.2,213.4,299.7,212.6z"/>
					</g>
					<g>
						<path class="st4" d="M281.4,212.6v24.6h-10.3C271.2,237.2,272,213.4,281.4,212.6z"/>
						<path class="st3" d="M281.4,212.6v24.6h10.3C291.7,237.2,290.9,213.4,281.4,212.6z"/>
					</g>
				</g>
			</g>
		</g>
		<polygon class="st4" points="344.3,113.8 349.5,108.2 349.5,231.2 344.3,224.9 		"/>
		<polygon class="st3" points="274.6,113.8 269.3,108.2 269.3,231.1 274.6,224.9 		"/>
		<polygon class="st3" points="349.5,108.2 269.3,108.2 274.6,113.8 344.3,113.8 		"/>
		<polygon class="st4" points="349.5,231.2 269.3,231.1 274.6,224.9 344.3,224.9 		"/>
	</g>
	<rect x="166.3" y="258.3" class="st6" width="76.8" height="263.5"/>
	<rect x="173.3" y="268" class="st7" width="62.9" height="244.1"/>
	<rect x="185.2" y="279.4" class="st6" width="39" height="221.5"/>
	<rect x="271" y="258.3" class="st6" width="76.8" height="263.5"/>
	<rect x="278" y="268" class="st7" width="62.9" height="244.1"/>
	<rect x="289.9" y="279.4" class="st6" width="39" height="221.5"/>
	<g class="st2">
		<g>
			<defs>
				
					<rect id="SVGID_3_" x="169.9" y="113.8" transform="matrix(-1 -4.490642e-11 4.490642e-11 -1 409.4006 338.7652)" width="69.7" height="111.1"/>
			</defs>
			<clipPath id="SVGID_4_">
				<use xlink:href="#SVGID_3_"  style="overflow:visible;"/>
			</clipPath>
			<g class="st8">
				<g>
					<g>
						<path class="st4" d="M167.6,92.4v24.6h10.3C177.9,116.9,177,93.1,167.6,92.4z"/>
						<path class="st3" d="M167.6,92.4v24.6h-10.3C157.3,116.9,158.1,93.1,167.6,92.4z"/>
					</g>
					<g>
						<path class="st4" d="M185.9,92.4v24.6h10.3C196.1,116.9,195.3,93.1,185.9,92.4z"/>
						<path class="st3" d="M185.9,92.4v24.6h-10.3C175.6,116.9,176.4,93.1,185.9,92.4z"/>
					</g>
					<g>
						<path class="st4" d="M204.1,92.4v24.6h10.3C214.4,116.9,213.6,93.1,204.1,92.4z"/>
						<path class="st3" d="M204.1,92.4v24.6h-10.3C193.8,116.9,194.7,93.1,204.1,92.4z"/>
					</g>
					<g>
						<path class="st4" d="M222.4,92.4v24.6h10.3C232.7,116.9,231.9,93.1,222.4,92.4z"/>
						<path class="st3" d="M222.4,92.4v24.6h-10.3C212.1,116.9,212.9,93.1,222.4,92.4z"/>
					</g>
					<g>
						<path class="st4" d="M240.7,92.4v24.6H251C251,116.9,250.1,93.1,240.7,92.4z"/>
						<path class="st3" d="M240.7,92.4v24.6h-10.3C230.4,116.9,231.2,93.1,240.7,92.4z"/>
					</g>
				</g>
				<g>
					<g>
						<path class="st4" d="M175.6,104.6v24.6h10.3C185.9,129.2,185,105.4,175.6,104.6z"/>
						<path class="st3" d="M175.6,104.6v24.6h-10.3C165.3,129.2,166.1,105.4,175.6,104.6z"/>
					</g>
					<g>
						<path class="st4" d="M193.8,104.6v24.6h10.3C204.1,129.2,203.3,105.4,193.8,104.6z"/>
						<path class="st3" d="M193.8,104.6v24.6h-10.3C183.6,129.2,184.4,105.4,193.8,104.6z"/>
					</g>
					<g>
						<path class="st4" d="M212.1,104.6v24.6h10.3C222.4,129.2,221.6,105.4,212.1,104.6z"/>
						<path class="st3" d="M212.1,104.6v24.6h-10.3C201.8,129.2,202.7,105.4,212.1,104.6z"/>
					</g>
					<g>
						<path class="st4" d="M230.4,104.6v24.6h10.3C240.7,129.2,239.9,105.4,230.4,104.6z"/>
						<path class="st3" d="M230.4,104.6v24.6h-10.3C220.1,129.2,220.9,105.4,230.4,104.6z"/>
					</g>
					<g>
						<path class="st4" d="M248.7,104.6v24.6H259C259,129.2,258.1,105.4,248.7,104.6z"/>
						<path class="st3" d="M248.7,104.6v24.6h-10.3C238.4,129.2,239.2,105.4,248.7,104.6z"/>
					</g>
				</g>
				<g>
					<g>
						<path class="st4" d="M167.6,113.8v24.6h10.3C177.9,138.4,177,114.6,167.6,113.8z"/>
						<path class="st3" d="M167.6,113.8v24.6h-10.3C157.3,138.4,158.1,114.6,167.6,113.8z"/>
					</g>
					<g>
						<path class="st4" d="M185.9,113.8v24.6h10.3C196.1,138.4,195.3,114.6,185.9,113.8z"/>
						<path class="st3" d="M185.9,113.8v24.6h-10.3C175.6,138.4,176.4,114.6,185.9,113.8z"/>
					</g>
					<g>
						<path class="st4" d="M204.1,113.8v24.6h10.3C214.4,138.4,213.6,114.6,204.1,113.8z"/>
						<path class="st3" d="M204.1,113.8v24.6h-10.3C193.8,138.4,194.7,114.6,204.1,113.8z"/>
					</g>
					<g>
						<path class="st4" d="M222.4,113.8v24.6h10.3C232.7,138.4,231.9,114.6,222.4,113.8z"/>
						<path class="st3" d="M222.4,113.8v24.6h-10.3C212.1,138.4,212.9,114.6,222.4,113.8z"/>
					</g>
					<g>
						<path class="st4" d="M240.7,113.8v24.6H251C251,138.4,250.1,114.6,240.7,113.8z"/>
						<path class="st3" d="M240.7,113.8v24.6h-10.3C230.4,138.4,231.2,114.6,240.7,113.8z"/>
					</g>
				</g>
				<g>
					<g>
						<path class="st4" d="M159.6,126.1v24.6h10.3C169.9,150.7,169,126.9,159.6,126.1z"/>
						<path class="st3" d="M159.6,126.1v24.6h-10.3C149.3,150.7,150.1,126.9,159.6,126.1z"/>
					</g>
					<g>
						<path class="st4" d="M177.9,126.1v24.6h10.3C188.1,150.7,187.3,126.9,177.9,126.1z"/>
						<path class="st3" d="M177.9,126.1v24.6h-10.3C167.6,150.7,168.4,126.9,177.9,126.1z"/>
					</g>
					<g>
						<path class="st4" d="M196.1,126.1v24.6h10.3C206.4,150.7,205.6,126.9,196.1,126.1z"/>
						<path class="st3" d="M196.1,126.1v24.6h-10.3C185.9,150.7,186.7,126.9,196.1,126.1z"/>
					</g>
					<g>
						<path class="st4" d="M214.4,126.1v24.6h10.3C224.7,150.7,223.9,126.9,214.4,126.1z"/>
						<path class="st3" d="M214.4,126.1v24.6h-10.3C204.1,150.7,204.9,126.9,214.4,126.1z"/>
					</g>
					<g>
						<path class="st4" d="M232.7,126.1v24.6H243C243,150.7,242.1,126.9,232.7,126.1z"/>
						<path class="st3" d="M232.7,126.1v24.6h-10.3C222.4,150.7,223.2,126.9,232.7,126.1z"/>
					</g>
				</g>
				<g>
					<g>
						<path class="st4" d="M167.6,138.4V163h10.3C177.9,163,177,139.2,167.6,138.4z"/>
						<path class="st3" d="M167.6,138.4V163h-10.3C157.3,163,158.1,139.2,167.6,138.4z"/>
					</g>
					<g>
						<path class="st4" d="M185.9,138.4V163h10.3C196.1,163,195.3,139.2,185.9,138.4z"/>
						<path class="st3" d="M185.9,138.4V163h-10.3C175.6,163,176.4,139.2,185.9,138.4z"/>
					</g>
					<g>
						<path class="st4" d="M204.1,138.4V163h10.3C214.4,163,213.6,139.2,204.1,138.4z"/>
						<path class="st3" d="M204.1,138.4V163h-10.3C193.8,163,194.7,139.2,204.1,138.4z"/>
					</g>
					<g>
						<path class="st4" d="M222.4,138.4V163h10.3C232.7,163,231.9,139.2,222.4,138.4z"/>
						<path class="st3" d="M222.4,138.4V163h-10.3C212.1,163,212.9,139.2,222.4,138.4z"/>
					</g>
					<g>
						<path class="st4" d="M240.7,138.4V163H251C251,163,250.1,139.2,240.7,138.4z"/>
						<path class="st3" d="M240.7,138.4V163h-10.3C230.4,163,231.2,139.2,240.7,138.4z"/>
					</g>
				</g>
				<g>
					<g>
						<path class="st4" d="M159.6,147.6v24.6h10.3C169.9,172.2,169,148.4,159.6,147.6z"/>
						<path class="st3" d="M159.6,147.6v24.6h-10.3C149.3,172.2,150.1,148.4,159.6,147.6z"/>
					</g>
					<g>
						<path class="st4" d="M177.9,147.6v24.6h10.3C188.1,172.2,187.3,148.4,177.9,147.6z"/>
						<path class="st3" d="M177.9,147.6v24.6h-10.3C167.6,172.2,168.4,148.4,177.9,147.6z"/>
					</g>
					<g>
						<path class="st4" d="M196.1,147.6v24.6h10.3C206.4,172.2,205.6,148.4,196.1,147.6z"/>
						<path class="st3" d="M196.1,147.6v24.6h-10.3C185.9,172.2,186.7,148.4,196.1,147.6z"/>
					</g>
					<g>
						<path class="st4" d="M214.4,147.6v24.6h10.3C224.7,172.2,223.9,148.4,214.4,147.6z"/>
						<path class="st3" d="M214.4,147.6v24.6h-10.3C204.1,172.2,204.9,148.4,214.4,147.6z"/>
					</g>
					<g>
						<path class="st4" d="M232.7,147.6v24.6H243C243,172.2,242.1,148.4,232.7,147.6z"/>
						<path class="st3" d="M232.7,147.6v24.6h-10.3C222.4,172.2,223.2,148.4,232.7,147.6z"/>
					</g>
				</g>
				<g>
					<g>
						<path class="st4" d="M167.6,157.3v24.6h10.3C177.9,181.9,177,158.1,167.6,157.3z"/>
						<path class="st3" d="M167.6,157.3v24.6h-10.3C157.3,181.9,158.1,158.1,167.6,157.3z"/>
					</g>
					<g>
						<path class="st4" d="M185.9,157.3v24.6h10.3C196.1,181.9,195.3,158.1,185.9,157.3z"/>
						<path class="st3" d="M185.9,157.3v24.6h-10.3C175.6,181.9,176.4,158.1,185.9,157.3z"/>
					</g>
					<g>
						<path class="st4" d="M204.1,157.3v24.6h10.3C214.4,181.9,213.6,158.1,204.1,157.3z"/>
						<path class="st3" d="M204.1,157.3v24.6h-10.3C193.8,181.9,194.7,158.1,204.1,157.3z"/>
					</g>
					<g>
						<path class="st4" d="M222.4,157.3v24.6h10.3C232.7,181.9,231.9,158.1,222.4,157.3z"/>
						<path class="st3" d="M222.4,157.3v24.6h-10.3C212.1,181.9,212.9,158.1,222.4,157.3z"/>
					</g>
					<g>
						<path class="st4" d="M240.7,157.3v24.6H251C251,181.9,250.1,158.1,240.7,157.3z"/>
						<path class="st3" d="M240.7,157.3v24.6h-10.3C230.4,181.9,231.2,158.1,240.7,157.3z"/>
					</g>
				</g>
				<g>
					<g>
						<path class="st4" d="M175.6,169.6v24.6h10.3C185.9,194.2,185,170.4,175.6,169.6z"/>
						<path class="st3" d="M175.6,169.6v24.6h-10.3C165.3,194.2,166.1,170.4,175.6,169.6z"/>
					</g>
					<g>
						<path class="st4" d="M193.8,169.6v24.6h10.3C204.1,194.2,203.3,170.4,193.8,169.6z"/>
						<path class="st3" d="M193.8,169.6v24.6h-10.3C183.6,194.2,184.4,170.4,193.8,169.6z"/>
					</g>
					<g>
						<path class="st4" d="M212.1,169.6v24.6h10.3C222.4,194.2,221.6,170.4,212.1,169.6z"/>
						<path class="st3" d="M212.1,169.6v24.6h-10.3C201.8,194.2,202.7,170.4,212.1,169.6z"/>
					</g>
					<g>
						<path class="st4" d="M230.4,169.6v24.6h10.3C240.7,194.2,239.9,170.4,230.4,169.6z"/>
						<path class="st3" d="M230.4,169.6v24.6h-10.3C220.1,194.2,220.9,170.4,230.4,169.6z"/>
					</g>
					<g>
						<path class="st4" d="M248.7,169.6v24.6H259C259,194.2,258.1,170.4,248.7,169.6z"/>
						<path class="st3" d="M248.7,169.6v24.6h-10.3C238.4,194.2,239.2,170.4,248.7,169.6z"/>
					</g>
				</g>
				<g>
					<g>
						<path class="st4" d="M167.6,178.8v24.6h10.3C177.9,203.4,177,179.6,167.6,178.8z"/>
						<path class="st3" d="M167.6,178.8v24.6h-10.3C157.3,203.4,158.1,179.6,167.6,178.8z"/>
					</g>
					<g>
						<path class="st4" d="M185.9,178.8v24.6h10.3C196.1,203.4,195.3,179.6,185.9,178.8z"/>
						<path class="st3" d="M185.9,178.8v24.6h-10.3C175.6,203.4,176.4,179.6,185.9,178.8z"/>
					</g>
					<g>
						<path class="st4" d="M204.1,178.8v24.6h10.3C214.4,203.4,213.6,179.6,204.1,178.8z"/>
						<path class="st3" d="M204.1,178.8v24.6h-10.3C193.8,203.4,194.7,179.6,204.1,178.8z"/>
					</g>
					<g>
						<path class="st4" d="M222.4,178.8v24.6h10.3C232.7,203.4,231.9,179.6,222.4,178.8z"/>
						<path class="st3" d="M222.4,178.8v24.6h-10.3C212.1,203.4,212.9,179.6,222.4,178.8z"/>
					</g>
					<g>
						<path class="st4" d="M240.7,178.8v24.6H251C251,203.4,250.1,179.6,240.7,178.8z"/>
						<path class="st3" d="M240.7,178.8v24.6h-10.3C230.4,203.4,231.2,179.6,240.7,178.8z"/>
					</g>
				</g>
				<g>
					<g>
						<path class="st4" d="M159.6,191.1v24.6h10.3C169.9,215.7,169,191.9,159.6,191.1z"/>
						<path class="st3" d="M159.6,191.1v24.6h-10.3C149.3,215.7,150.1,191.9,159.6,191.1z"/>
					</g>
					<g>
						<path class="st4" d="M177.9,191.1v24.6h10.3C188.1,215.7,187.3,191.9,177.9,191.1z"/>
						<path class="st3" d="M177.9,191.1v24.6h-10.3C167.6,215.7,168.4,191.9,177.9,191.1z"/>
					</g>
					<g>
						<path class="st4" d="M196.1,191.1v24.6h10.3C206.4,215.7,205.6,191.9,196.1,191.1z"/>
						<path class="st3" d="M196.1,191.1v24.6h-10.3C185.9,215.7,186.7,191.9,196.1,191.1z"/>
					</g>
					<g>
						<path class="st4" d="M214.4,191.1v24.6h10.3C224.7,215.7,223.9,191.9,214.4,191.1z"/>
						<path class="st3" d="M214.4,191.1v24.6h-10.3C204.1,215.7,204.9,191.9,214.4,191.1z"/>
					</g>
					<g>
						<path class="st4" d="M232.7,191.1v24.6H243C243,215.7,242.1,191.9,232.7,191.1z"/>
						<path class="st3" d="M232.7,191.1v24.6h-10.3C222.4,215.7,223.2,191.9,232.7,191.1z"/>
					</g>
				</g>
				<g>
					<g>
						<path class="st4" d="M167.6,203.4V228h10.3C177.9,228,177,204.2,167.6,203.4z"/>
						<path class="st3" d="M167.6,203.4V228h-10.3C157.3,228,158.1,204.2,167.6,203.4z"/>
					</g>
					<g>
						<path class="st4" d="M185.9,203.4V228h10.3C196.1,228,195.3,204.2,185.9,203.4z"/>
						<path class="st3" d="M185.9,203.4V228h-10.3C175.6,228,176.4,204.2,185.9,203.4z"/>
					</g>
					<g>
						<path class="st4" d="M204.1,203.4V228h10.3C214.4,228,213.6,204.2,204.1,203.4z"/>
						<path class="st3" d="M204.1,203.4V228h-10.3C193.8,228,194.7,204.2,204.1,203.4z"/>
					</g>
					<g>
						<path class="st4" d="M222.4,203.4V228h10.3C232.7,228,231.9,204.2,222.4,203.4z"/>
						<path class="st3" d="M222.4,203.4V228h-10.3C212.1,228,212.9,204.2,222.4,203.4z"/>
					</g>
					<g>
						<path class="st4" d="M240.7,203.4V228H251C251,228,250.1,204.2,240.7,203.4z"/>
						<path class="st3" d="M240.7,203.4V228h-10.3C230.4,228,231.2,204.2,240.7,203.4z"/>
					</g>
				</g>
				<g>
					<g>
						<path class="st4" d="M159.6,212.6v24.6h10.3C169.9,237.2,169,213.4,159.6,212.6z"/>
						<path class="st3" d="M159.6,212.6v24.6h-10.3C149.3,237.2,150.1,213.4,159.6,212.6z"/>
					</g>
					<g>
						<path class="st4" d="M177.9,212.6v24.6h10.3C188.1,237.2,187.3,213.4,177.9,212.6z"/>
						<path class="st3" d="M177.9,212.6v24.6h-10.3C167.6,237.2,168.4,213.4,177.9,212.6z"/>
					</g>
					<g>
						<path class="st4" d="M196.1,212.6v24.6h10.3C206.4,237.2,205.6,213.4,196.1,212.6z"/>
						<path class="st3" d="M196.1,212.6v24.6h-10.3C185.9,237.2,186.7,213.4,196.1,212.6z"/>
					</g>
					<g>
						<path class="st4" d="M214.4,212.6v24.6h10.3C224.7,237.2,223.9,213.4,214.4,212.6z"/>
						<path class="st3" d="M214.4,212.6v24.6h-10.3C204.1,237.2,204.9,213.4,214.4,212.6z"/>
					</g>
					<g>
						<path class="st4" d="M232.7,212.6v24.6H243C243,237.2,242.1,213.4,232.7,212.6z"/>
						<path class="st3" d="M232.7,212.6v24.6h-10.3C222.4,237.2,223.2,213.4,232.7,212.6z"/>
					</g>
				</g>
			</g>
		</g>
		<polygon class="st4" points="169.9,113.8 164.6,108.2 164.6,231.2 169.9,224.9 		"/>
		<polygon class="st3" points="164.6,108.2 244.8,108.2 239.5,113.8 169.9,113.8 		"/>
		<polygon class="st4" points="164.6,231.2 244.8,231.1 239.5,224.9 169.9,224.9 		"/>
		<polygon class="st4" points="239.5,113.8 244.8,108.2 244.8,231.2 239.5,224.9 		"/>
	</g>
	<g class="st2">
		<polygon class="st3" points="140,121.8 140,588.4 124.8,604.3 75.3,604.3 75.3,116.2 125,116.2 		"/>
		<polygon class="st4" points="124.8,604.3 125,116.2 140,121.8 140,588.4 		"/>
	</g>
	<g class="st2">
		<polygon class="st3" points="149.5,65.5 149.5,127.4 129.9,129.5 65.8,129.5 65.8,64.8 130.1,64.8 		"/>
		<polygon class="st4" points="129.9,129.5 130.1,64.8 149.5,65.5 149.5,127.4 		"/>
	</g>
	<g class="st2">
		<polygon class="st3" points="431.6,65.5 431.6,127.4 412.1,129.5 347.9,129.5 347.9,64.8 412.2,64.8 		"/>
		<polygon class="st4" points="412.1,129.5 412.2,64.8 431.6,65.5 431.6,127.4 		"/>
	</g>
	<g class="st2">
		<polygon class="st3" points="431.6,13.4 431.6,69.3 412.2,69.8 85.6,71.2 85.6,12.8 368.5,12.9 		"/>
		<polygon class="st4" points="412.2,69.8 368.5,12.9 431.6,13.4 431.6,69.3 		"/>
	</g>
	<polygon class="st7" points="129.9,70.9 85.6,12.8 65.8,12.8 65.8,71.2 	"/>
	<polygon class="st7" points="113.5,12.8 146.4,57.2 192.9,57.2 157.9,12.8 	"/>
	<polygon class="st7" points="308,25.4 340.8,69.8 387.3,69.8 352.3,25.4 	"/>
	<polygon class="st7" points="348,69.8 358.4,129.5 373.1,129.5 362,69.8 	"/>
	<polygon class="st7" points="367.9,69.8 378.3,129.5 393,129.5 381.9,69.8 	"/>
	<polygon class="st7" points="387.5,69.8 397.9,129.5 412.6,129.5 401.5,69.8 	"/>
	<polygon class="st7" points="65.5,69.8 75.9,129.5 90.6,129.5 79.6,69.8 	"/>
	<polygon class="st7" points="85.4,69.8 95.8,129.5 110.5,129.5 99.5,69.8 	"/>
	<polygon class="st7" points="105,69.8 115.4,129.5 130.1,129.5 119.1,69.8 	"/>
	<g class="st2">
		<defs>
			<polygon id="SVGID_5_" points="140,121.8 140,588.4 124.8,604.3 75.3,604.3 75.3,116.2 125,116.2 			"/>
		</defs>
		<clipPath id="SVGID_6_">
			<use xlink:href="#SVGID_5_"  style="overflow:visible;"/>
		</clipPath>
		<g class="st9">
			<polygon class="st4" points="30.9,202.7 63.8,247.1 110.3,247.1 75.3,202.7 			"/>
			<polygon class="st4" points="85.2,327.9 118,372.3 164.5,372.3 129.5,327.9 			"/>
			<polygon class="st4" points="46,424.2 78.8,468.6 125.3,468.6 90.3,424.2 			"/>
			<polygon class="st4" points="58.1,473.9 91,518.3 137.5,518.3 102.5,473.9 			"/>
			<polygon class="st4" points="97.7,156.6 130.5,201 177,201 142,156.6 			"/>
		</g>
	</g>
	<g class="st2">
		<defs>
			<polygon id="SVGID_7_" points="422.1,121.8 422.1,588.4 407,604.3 357.4,604.3 357.4,116.2 407.1,116.2 			"/>
		</defs>
		<clipPath id="SVGID_8_">
			<use xlink:href="#SVGID_7_"  style="overflow:visible;"/>
		</clipPath>
		<g class="st10">
			<polygon class="st4" points="311.7,209 344.5,253.4 391.1,253.4 356,209 			"/>
			<polygon class="st4" points="367.3,305.7 400.1,350.1 446.7,350.1 411.6,305.7 			"/>
			<polygon class="st4" points="308.2,417.8 341.1,462.2 387.6,462.2 352.6,417.8 			"/>
			<polygon class="st4" points="374.9,538.3 407.7,582.7 454.2,582.7 419.2,538.3 			"/>
			<polygon class="st4" points="311.7,524.3 344.5,568.7 391.1,568.7 356,524.3 			"/>
			<polygon class="st4" points="350.1,193.6 382.9,238 429.4,238 394.4,193.6 			"/>
		</g>
	</g>
	<polygon class="st7" points="174.4,26.4 207.2,70.8 253.7,70.8 218.7,26.4 	"/>
</g>
<g id="Layer_3">
	
		<image style="overflow:visible;" width="1136" height="352" xlink:href="../Phase 2 - Wireframing/psychopomp_color.png"  transform="matrix(0.12 0 0 0.12 -65.7016 -228.3241)">
	</image>
	<g>
		<polygon class="st3" points="422.1,121.8 422.1,588.4 407,604.3 357.4,604.3 357.4,116.2 407.1,116.2 		"/>
		<polygon class="st4" points="407,604.3 407.1,116.2 422.1,121.8 422.1,588.4 		"/>
	</g>
	<g>
		<g>
			<path class="st4" d="M137.3,498.6c3.2,0,3.2-5,0-5C134.1,493.6,134.1,498.6,137.3,498.6L137.3,498.6z"/>
		</g>
	</g>
	<g>
		<polygon class="st3" points="140,121.8 140,588.4 124.8,604.3 75.3,604.3 75.3,116.2 125,116.2 		"/>
		<polygon class="st4" points="124.8,604.3 125,116.2 140,121.8 140,588.4 		"/>
	</g>
	<g>
		<polygon class="st3" points="149.5,65.5 149.5,127.4 129.9,129.5 65.8,129.5 65.8,64.8 130.1,64.8 		"/>
		<polygon class="st4" points="129.9,129.5 130.1,64.8 149.5,65.5 149.5,127.4 		"/>
	</g>
	<g>
		<polygon class="st3" points="431.6,65.5 431.6,127.4 412.1,129.5 347.9,129.5 347.9,64.8 412.2,64.8 		"/>
		<polygon class="st4" points="412.1,129.5 412.2,64.8 431.6,65.5 431.6,127.4 		"/>
	</g>
	<g>
		<polygon class="st3" points="431.6,13.4 431.6,69.3 412.2,69.8 85.6,71.2 85.6,12.8 368.5,12.9 		"/>
		<polygon class="st4" points="412.2,69.8 368.5,12.9 431.6,13.4 431.6,69.3 		"/>
	</g>
	<polygon class="st4" points="129.9,70.9 85.6,12.8 65.8,12.8 65.8,71.2 	"/>
	<polygon class="st4" points="113.5,12.8 146.4,57.2 192.9,57.2 157.9,12.8 	"/>
	<polygon class="st4" points="308,25.4 340.8,69.8 387.3,69.8 352.3,25.4 	"/>
	<polygon class="st4" points="348,69.8 358.4,129.5 373.1,129.5 362,69.8 	"/>
	<polygon class="st4" points="367.9,69.8 378.3,129.5 393,129.5 381.9,69.8 	"/>
	<polygon class="st4" points="387.5,69.8 397.9,129.5 412.6,129.5 401.5,69.8 	"/>
	<polygon class="st4" points="65.5,69.8 75.9,129.5 90.6,129.5 79.6,69.8 	"/>
	<polygon class="st4" points="85.4,69.8 95.8,129.5 110.5,129.5 99.5,69.8 	"/>
	<polygon class="st4" points="105,69.8 115.4,129.5 130.1,129.5 119.1,69.8 	"/>
	<g>
		<defs>
			<polygon id="SVGID_9_" points="140,121.8 140,588.4 124.8,604.3 75.3,604.3 75.3,116.2 125,116.2 			"/>
		</defs>
		<clipPath id="SVGID_10_">
			<use xlink:href="#SVGID_9_"  style="overflow:visible;"/>
		</clipPath>
		<g class="st11">
			<polygon class="st4" points="30.9,202.7 63.8,247.1 110.3,247.1 75.3,202.7 			"/>
			<polygon class="st4" points="85.2,327.9 118,372.3 164.5,372.3 129.5,327.9 			"/>
			<polygon class="st4" points="46,424.2 78.8,468.6 125.3,468.6 90.3,424.2 			"/>
			<polygon class="st4" points="58.1,473.9 91,518.3 137.5,518.3 102.5,473.9 			"/>
			<polygon class="st4" points="97.7,156.6 130.5,201 177,201 142,156.6 			"/>
		</g>
	</g>
	<g>
		<defs>
			<polygon id="SVGID_11_" points="422.1,121.8 422.1,588.4 407,604.3 357.4,604.3 357.4,116.2 407.1,116.2 			"/>
		</defs>
		<clipPath id="SVGID_12_">
			<use xlink:href="#SVGID_11_"  style="overflow:visible;"/>
		</clipPath>
		<g class="st12">
			<polygon class="st4" points="311.7,209 344.5,253.4 391.1,253.4 356,209 			"/>
			<polygon class="st4" points="367.3,305.7 400.1,350.1 446.7,350.1 411.6,305.7 			"/>
			<polygon class="st4" points="308.2,417.8 341.1,462.2 387.6,462.2 352.6,417.8 			"/>
			<polygon class="st4" points="374.9,538.3 407.7,582.7 454.2,582.7 419.2,538.3 			"/>
			<polygon class="st4" points="311.7,524.3 344.5,568.7 391.1,568.7 356,524.3 			"/>
			<polygon class="st4" points="350.1,193.6 382.9,238 429.4,238 394.4,193.6 			"/>
		</g>
	</g>
	<polygon class="st4" points="174.4,26.4 207.2,70.8 253.7,70.8 218.7,26.4 	"/>
	<polygon class="st13" points="11.8,639.9 149.5,594 149.5,73.8 11.8,92.7 	"/>
	<polygon class="st13" points="481.4,638.9 343.8,593 343.8,72.8 481.4,91.7 	"/>
	<polygon class="st4" points="347.7,141.2 380.5,185.6 427,185.6 392,141.2 	"/>
	<polygon class="st4" points="401.3,197.3 434.2,241.7 480.7,241.7 445.7,197.3 	"/>
	<polygon class="st4" points="367.3,227.5 400.1,271.9 446.7,271.9 411.6,227.5 	"/>
	<polygon class="st4" points="347.7,324.1 380.5,368.5 427,368.5 392,324.1 	"/>
	<polygon class="st4" points="387.3,301.9 420.2,346.3 466.7,346.3 431.7,301.9 	"/>
	<polygon class="st4" points="399.2,563.1 432.1,607.5 478.6,607.5 443.6,563.1 	"/>
	<polygon class="st4" points="359.5,466.1 392.4,510.5 438.9,510.5 403.9,466.1 	"/>
	<polygon class="st4" points="347.1,413.9 379.9,458.3 426.4,458.3 391.4,413.9 	"/>
	<polygon class="st4" points="382.4,85.1 415.3,129.5 461.8,129.5 426.8,85.1 	"/>
	<polygon class="st4" points="130.9,85.1 98,129.5 51.5,129.5 86.5,85.1 	"/>
	<polygon class="st4" points="137.5,141.2 104.7,185.6 58.1,185.6 93.2,141.2 	"/>
	<polygon class="st4" points="91.2,197.3 58.3,241.7 11.8,241.7 46.9,197.3 	"/>
	<polygon class="st4" points="130.9,219.5 98,263.9 51.5,263.9 86.5,219.5 	"/>
	<polygon class="st4" points="150.2,301.9 117.4,346.3 70.8,346.3 105.9,301.9 	"/>
	<polygon class="st4" points="91.2,353.8 58.3,398.2 11.8,398.2 46.9,353.8 	"/>
	<polygon class="st4" points="150.2,426.2 117.4,470.6 70.8,470.6 105.9,426.2 	"/>
	<polygon class="st4" points="144.7,481 111.9,525.4 65.4,525.4 100.4,481 	"/>
	<polygon class="st4" points="91.2,546.2 58.3,590.6 11.8,590.6 46.9,546.2 	"/>
</g>
</svg>
