<?xml version="1.0" encoding="utf-8"?>
<!-- Generator: Adobe Illustrator 24.1.1, SVG Export Plug-In . SVG Version: 6.00 Build 0)  -->
<svg version="1.1" id="Layer_1" xmlns="http://www.w3.org/2000/svg" xmlns:xlink="http://www.w3.org/1999/xlink" x="0px" y="0px"
	 viewBox="0 0 505.6 505.5" style="enable-background:new 0 0 505.6 505.5;" xml:space="preserve">
<style type="text/css">
	.st0{fill:#511C51;}
	.st1{fill:#470240;}
	.st2{opacity:0.85;}
	.st3{fill:#673967;}
</style>
<path class="st0" d="M505.6,504.3H0.1V109.5c0,0,25.1,19,51.3,18.4c26.4-0.6,49.8-24.8,72.8-33.2c23.1-8.4,72.5-13.8,116.3,9.4
	c57.2,30.2,64.8,26.4,80.2,25.9c34.9-1.3,68.5-24,97.5-36.8c26.2-11.5,52.7-9.6,87.4,16.4"/>
<g>
	<path class="st1" d="M505.6,504.3H0.1V134.6c0,0,25,18.4,51.3,17.9c26.4-0.6,49.8-24.1,72.8-32.3c23.1-8.1,72.5-13.4,116.3,9.1
		c57.2,29.4,64.8,25.7,80.2,25.2c34.9-1.3,68.5-23.3,97.5-35.8c26.2-11.2,52.7-9.3,87.4,15.9"/>
</g>
<path class="st0" d="M505.6,504.3H0.1V161.2c0,0,25.1,17.1,51.3,16.6c26.4-0.5,49.8-22.5,72.8-30.1c23.1-7.6,72.5-12.5,116.3,8.5
	c57.2,27.3,64.8,23.9,80.2,23.5c34.9-1.2,68.5-21.7,97.5-33.3c26.2-10.4,52.7-8.7,87.4,14.8"/>
<path class="st1" d="M505.6,504.3H0.1V206.7c0,0,25.1,15.6,51.3,15.1c26.4-0.5,49.8-20.4,72.8-27.3c23.1-6.9,72.5-11.3,116.3,7.7
	c57.2,24.8,64.8,21.7,80.2,21.3c34.9-1.1,68.5-19.7,97.5-30.2c26.2-9.4,52.7-7.9,87.4,13.4"/>
<g>
	<g>
		<g>
			<g>
				<g class="st2">
					<g>
						<path class="st3" d="M156.5,37.4c-0.3,0.2-0.7,0.3-1,0.5c0.2,0,0.4,0,0.7,0.1C156.4,37.9,156.4,37.7,156.5,37.4z"/>
						<path class="st3" d="M154.5,38.3c-0.1,0-0.1,0.1-0.2,0.1c0,0.1-0.1,0.1-0.1,0.2C154.3,38.4,154.4,38.4,154.5,38.3z"/>
						<path class="st3" d="M153,39.4c0.3-0.1,0.6-0.3,0.8-0.5C153.5,38.9,153.2,39.1,153,39.4z"/>
						<path class="st3" d="M154.4,38.9c-0.2-0.1-0.3-0.2-0.2-0.4l0,0c-0.1,0.1-0.3,0.3-0.5,0.4C154,38.8,154.2,38.8,154.4,38.9z"/>
						<path class="st3" d="M154.4,38.9c0.2,0.1,0.4,0.1,0.5,0.1C154.7,39,154.6,38.9,154.4,38.9z"/>
						<path class="st3" d="M155.6,42.1c-0.1,0.2-0.5-0.7-0.8-0.3c-0.6,0.7-1,1.4-1.7,1.8c-0.2,0.4-1.2-0.3-1.5,0.1
							c-0.6,0.7-1.8,2.9-0.7,2.2c1.6-1.1,2.6-2,4-3c1-1.1,2.1-2,3.2-3c0.3-0.2,0.7-0.3,1.1-0.5c-0.5,0.1-1,0.2-1.6,0.3
							C156.8,39.9,156.5,41.4,155.6,42.1z"/>
						<path class="st3" d="M164,34.6c-0.1,0.2-0.4,0.5-0.4,0.5c-1-0.3-1.8,0.3-2.5,0.9l0.6,0.3c0.4-0.3,0.4-0.5-0.1-0.5
							c1.2,0.1,2.1-0.2,3-0.7C164.4,34.9,164.3,34.6,164,34.6z"/>
						<path class="st3" d="M165.1,34.8c-0.2,0.1-0.3,0.2-0.5,0.3l0.1,0.1C164.8,35,165,34.9,165.1,34.8L165.1,34.8z"/>
						<path class="st3" d="M149.9,42.2c-1.1,0.6-2.1,1.3-3.1,2c-1,0.6-2,1.3-3,1.9c0,0.3,0,0.5-0.3,0.6c-0.2,0-0.4,0-0.6,0l-0.8,0.6
							c-0.1,0.1-0.2,0.2-0.2,0.3l0,0c-0.1,0.2,0,0.3,0.2,0.3c0.2,0,0.3,0,0.5,0.1c-0.1,0-0.3,0-0.5-0.1c-0.2,0-0.4,0-0.6,0.1
							c-0.2,0.2-0.4,0.5-0.7,0.6c0.2-0.3,0.5-0.5,0.7-0.6c0.1-0.2,0.3-0.3,0.4-0.4c0-0.1,0.1-0.1,0.1-0.2c-0.6,0.4-1.3,0.9-1.9,1.3
							c-0.1,0.1-0.2,0.2-0.3,0.4c-0.4,0.4-0.7,0.9-1.3,0.7l-0.3,0.2c0,0,0.1,0,0.1,0c-0.1,0-0.1,0-0.2,0c-0.5,0.3-0.9,0.7-1.4,1
							c-0.2,0.4-0.3,0.8-0.5,1.2c0,0-0.4-0.1-0.6-0.1c0,0.3,0,0.6-0.2,0.8c0.4,0,0.9,0.1,1.2,0c0.6,0.1,0-1.3,1-0.9
							c-0.9-0.4-0.4,1-1,0.9c-0.3,0-0.8,0-1.2,0c-0.3,0.5-1,0.8-1.7,0.9c0.3-0.8,1-0.9,1.7-0.9c0.1-0.2,0.2-0.5,0.2-0.8
							c0.2,0,0.6,0.1,0.6,0.1c0.2-0.4,0.4-0.8,0.5-1.2c-0.9,0.7-1.9,1.4-2.8,2.1c-6.1,4.7-10.8,10-15.9,16.1
							c-1.5,1.6-2.7,3.3-4.1,4.9c-1.4,1.6-2.6,3.3-3.9,4.9c-1.3,1.6-2.3,3.4-3.3,5.1c-0.5,0.9-1,1.7-1.4,2.6l-1.3,2.7
							c-0.4,0.9-0.9,1.8-1.3,2.7c-0.4,0.9-0.8,1.8-1.3,2.7c-0.5,0.9-1,1.8-1.5,2.7c-0.5,0.9-1,1.8-1.6,2.8c-0.9,1.5-1.7,3.5-2.2,6.2
							c-0.3,1.3-0.4,2.7-0.4,4.1c0,1.4,0.1,2.8,0.4,3.9c0.7,1.5,1.6,2.2,2.3,2.5c0.8,0.3,1.4,0.1,2-0.2c1.1-0.6,1.9-1.6,2-1.7
							c1.3-1.7,1.5-2.5,1.7-3.7c0.2-1.2,0.4-2.7,2-4.7c-0.9,1.4-1.4,0.7-1.1-0.7c0.3-1.4,1.3-3.4,2.8-4.6c1.2-0.8,2.1-1.8,2.8-2.9
							c0.7-1.1,1.1-2.4,1.6-3.7c0.5-1.3,0.9-2.7,1.4-4c0.5-1.3,1.2-2.6,2-3.7c0.4-0.6,0.7-1.2,1.1-1.8c0.3-0.7,0.7-1.3,1.2-2
							c0.7-0.8,1.3-1.7,1.9-2.5c0.6-0.9,1.2-1.7,1.8-2.5c0.6-0.8,1.1-1.7,1.7-2.6c0.6-0.8,1.2-1.7,1.7-2.5c0.6-0.9,1.2-1.7,1.7-2.6
							c0.6-0.8,1.3-1.7,1.9-2.5c1.3-1.7,2.7-3.3,4.3-4.8c0.4-0.4,0.8-0.9,1.1-1.4c0.3-0.4,0.6-0.9,0.9-1.4c0.6-0.9,1.1-1.9,1.6-2.8
							c0.9-1.2,2.5-1.8,3.4-2.5c0.7-0.6,1.3-1.2,1.9-1.9c0.6-0.6,1.1-1.2,1.6-1.9c-0.6,0.6-1.2,1.1-1.7,1.7
							c-0.5,0.6-1.1,1.2-1.8,1.8c-0.9,0.9-0.1-1.5,0.4-2.3c0.1-0.4,1.2,0,1.4-0.3c0.6-0.5,1-1.3,1.5-2c0.2-0.4,0.7,0.4,0.8,0.2
							c0.8-0.9,0.8-2.4,1.6-2.6c0.6-0.2,1.1-0.4,1.6-0.5c0.3-0.1,0.6-0.3,0.8-0.5c0.1-0.2,0.3-0.4,0.4-0.6c-0.3-0.2-0.6-0.4-0.8-0.7
							c0.3-0.1,0.8-0.2,1.1-0.3c-0.3,0.1-0.8,0.2-1.1,0.3c0.2,0.3,0.5,0.5,0.8,0.7c0.5-0.7,1-1.4,1.6-2c0.6-0.7,1.2-1.3,1.9-1.9
							l-0.1-0.1c-0.8,0.6-1.7,1-2.9,1c0.5-0.1,0.6,0.2,0.2,0.5l-0.6-0.2c0.6-0.7,1.2-1.4,2.3-1.2c0,0,0.2-0.4,0.3-0.6
							c0.3,0,0.5,0.2,0.6,0.4c0.2-0.1,0.3-0.2,0.5-0.4C151.4,42.1,149.9,42.2,149.9,42.2z"/>
						<path class="st3" d="M141.4,47.9c0.1-0.1,0.2-0.2,0.3-0.4l-1.6,1.1C140.7,48.8,141.1,48.4,141.4,47.9z"/>
					</g>
				</g>
			</g>
		</g>
	</g>
</g>
<g>
	<g>
		<g>
			<g>
				<g class="st2">
					<g>
						<path class="st3" d="M107,68.7l-0.3,0.5c0.1-0.1,0.3-0.1,0.5-0.1C107.3,69.1,107.1,68.9,107,68.7z"/>
						<path class="st3" d="M106.4,69.7L106.4,69.7l0,0.2C106.3,69.9,106.3,69.8,106.4,69.7z"/>
						<path class="st3" d="M106.1,70.8c0.1-0.1,0.2-0.3,0.2-0.5C106.2,70.4,106.1,70.6,106.1,70.8z"/>
						<path class="st3" d="M106.7,70.1c-0.2,0-0.3-0.1-0.3-0.2l0,0c0,0.1,0,0.2,0,0.3C106.4,70.2,106.5,70.2,106.7,70.1z"/>
						<path class="st3" d="M106.7,70.1c0.2,0,0.3,0,0.4,0C106.9,70.1,106.8,70.1,106.7,70.1z"/>
						<path class="st3" d="M109.5,72c0,0.1-0.8-0.3-0.7,0c0,0.6,0.2,1.1,0,1.5c0.1,0.3-1,0.1-0.9,0.4c0,0.6,0.6,2.2,0.9,1.6
							c0.4-1,0.4-1.8,0.8-2.8c0-0.9,0-1.8,0.1-2.7c0.1-0.2,0.2-0.4,0.4-0.5c-0.3,0.2-0.5,0.4-0.8,0.6
							C108.8,70.3,109.7,71.3,109.5,72z"/>
						<path class="st3" d="M109.8,65.1c0,0.1,0.1,0.4,0.1,0.4c-0.8,0.1-0.9,0.6-0.9,1.2l0.5,0.1c0.1-0.3-0.1-0.4-0.4-0.3
							c0.8-0.2,1.2-0.6,1.4-1.2C110.3,65.2,110,65,109.8,65.1z"/>
						<path class="st3" d="M110.6,65c0,0.1-0.1,0.2-0.1,0.3l0.1,0C110.6,65.2,110.6,65.1,110.6,65L110.6,65z"/>
						<path class="st3" d="M105.8,73.2c-0.6,1.3-1.2,2.5-1.9,3.6c0.1,0.2,0.3,0.3,0.1,0.4c-0.2,0-0.3,0.1-0.4,0.1l-0.3,0.5
							c0,0.1,0,0.1,0,0.2l0,0c0.1,0.1,0.2,0.2,0.4,0.2c0.1,0,0.3,0,0.4,0c-0.1,0-0.2,0-0.4,0c-0.1,0-0.3,0.1-0.4,0.2
							c0,0.2-0.1,0.4-0.2,0.5c0-0.2,0-0.4,0.2-0.5c0-0.1,0-0.2,0-0.3l0-0.1l-0.6,1.1c0,0.1,0,0.2,0,0.3c0,0.3,0,0.7-0.5,0.7
							l-0.1,0.2c0,0,0.1,0,0.1,0c0,0-0.1,0-0.1,0l-0.5,0.9c0.1,0.3,0.2,0.6,0.3,0.8c0,0-0.3,0-0.5,0c0.2,0.2,0.3,0.4,0.3,0.5
							c0.3-0.1,0.7-0.1,0.9-0.2c0.5,0-0.7-0.8,0.2-0.7c-0.9-0.1,0.3,0.7-0.2,0.7c-0.2,0.1-0.6,0.1-0.9,0.2c0,0.4-0.3,0.7-0.8,0.8
							c-0.2-0.5,0.3-0.7,0.8-0.8c0-0.2-0.1-0.3-0.3-0.5c0.2,0,0.5,0,0.5,0c0-0.3-0.2-0.5-0.3-0.8c-0.3,0.6-0.6,1.1-1,1.7
							c-2.1,3.8-3.3,7.6-4.9,11.9c-0.5,1.1-0.9,2.3-1.4,3.4c-0.5,1.1-1,2.2-1.5,3.3c-1,2.2-1.3,4.4-1.8,6.6
							c-0.2,1.1-0.5,2.2-0.8,3.3c-0.3,1.1-0.8,2.2-1.5,3.4c-1,1.8-0.7,5.2-0.6,7c1.5,2.4,5.7,1.2,5.9,1.1c1.8-0.7,2.2-1.3,2.4-2
							c0.2-0.8,0.3-1.7,1.4-3c-1.3,1.8-2.2-1.6,0.4-3.1c1.9-1.1,2.3-2.6,2.3-4.2c0-1.6-0.2-3.3,0.5-4.8c0.3-0.7,0.4-1.6,0.6-2.4
							c2.2-4.4,1.8-9,3.7-13.8c0.4-1.3,0-2.7-0.1-3.9c0.1-0.8,0.9-1.5,1.1-2.1c0.4-1,0.4-1.9,0.4-2.9c-0.2,1-0.3,1.7-0.5,2.8
							c-0.2,0.7-0.9-0.9-1-1.5c-0.1-0.3,1-0.2,0.9-0.4c0.2-0.4-0.1-1-0.1-1.5c-0.1-0.3,0.8,0.1,0.7,0c0.1-0.7-0.8-1.7-0.4-1.9
							c0.3-0.2,0.5-0.4,0.8-0.6c0.1-0.1,0.2-0.3,0.3-0.5c0-0.1,0-0.3-0.1-0.4c-0.3,0-0.6-0.2-1-0.3c0.1-0.1,0.4-0.3,0.5-0.4
							c-0.1,0.1-0.4,0.3-0.5,0.4c0.3,0.1,0.7,0.2,1,0.3c-0.1-1-0.1-2.2-0.1-3.2l-0.1,0c-0.2,0.5-0.5,1-1.3,1.2
							c0.3-0.1,0.5,0,0.5,0.3l-0.5,0c0-0.6,0-1.1,0.8-1.2c0,0-0.1-0.3-0.1-0.4c0.2-0.1,0.5,0.1,0.7,0.1c0-0.1,0.1-0.2,0.1-0.3
							C106.7,72.8,105.8,73.2,105.8,73.2z"/>
						<path class="st3" d="M103.3,78.4c0-0.1,0-0.2,0-0.3c-0.2,0.3-0.4,0.6-0.6,1C103.3,79.1,103.3,78.8,103.3,78.4z"/>
					</g>
				</g>
			</g>
		</g>
	</g>
</g>
<g>
	<g>
		<g>
			<g>
				<g class="st2">
					<g>
						<path class="st3" d="M404.6,136l0.3,0.7c0-0.1,0-0.3,0.1-0.5C405,136,404.8,136,404.6,136z"/>
						<path class="st3" d="M405.1,137.4c0,0,0,0.1,0,0.1c0,0,0.1,0,0.1,0.1C405.2,137.6,405.2,137.5,405.1,137.4z"/>
						<path class="st3" d="M405.9,138.6c-0.1-0.2-0.2-0.4-0.3-0.6C405.6,138.2,405.7,138.4,405.9,138.6z"/>
						<path class="st3" d="M405.7,137.5c-0.1,0.1-0.2,0.2-0.4,0.2l0,0c0.1,0.1,0.2,0.2,0.3,0.3C405.6,137.8,405.6,137.6,405.7,137.5
							z"/>
						<path class="st3" d="M405.7,137.5c0.1-0.1,0.2-0.3,0.2-0.4C405.8,137.2,405.7,137.3,405.7,137.5z"/>
						<path class="st3" d="M408.9,136.4c0.2,0.1-0.7,0.5-0.4,0.6c0.5,0.5,1.1,0.8,1.4,1.4c0.3,0.2-0.5,1-0.2,1.2
							c0.5,0.5,2.4,1.5,1.9,0.6c-0.7-1.3-1.4-2.1-2.1-3.2c-0.8-0.8-1.6-1.6-2.4-2.4c-0.2-0.3-0.2-0.5-0.3-0.8c0,0.4,0.1,0.8,0.1,1.3
							C406.9,135.6,408.3,135.7,408.9,136.4z"/>
						<path class="st3" d="M402.6,130.5c0.2,0.1,0.5,0.2,0.5,0.2c-0.4,0.8,0.2,1.3,0.7,1.8l0.3-0.5c-0.2-0.3-0.5-0.2-0.5,0.2
							c0.2-0.9,0-1.6-0.4-2.2C402.9,130.2,402.7,130.3,402.6,130.5z"/>
						<path class="st3" d="M402.9,129.7c0.1,0.1,0.2,0.2,0.3,0.3l0.1,0C403.1,129.9,403,129.7,402.9,129.7L402.9,129.7z"/>
						<path class="st3" d="M407.9,140.8c0.8,1.7,1.4,3.2,2,4.8c0.2,0,0.5,0,0.4,0.3c-0.1,0.2-0.2,0.3-0.2,0.5l0.2,0.7l0.2,0.2l0,0
							c0.2,0.1,0.3,0,0.4-0.1c0.1-0.1,0.1-0.3,0.2-0.4c-0.1,0.1-0.1,0.2-0.2,0.4c-0.1,0.2-0.1,0.3-0.1,0.5c0.1,0.2,0.3,0.4,0.3,0.6
							c-0.2-0.2-0.3-0.4-0.3-0.6l-0.3-0.3l-0.1-0.1c0.2,0.5,0.3,1.1,0.5,1.6c0.1,0.1,0.1,0.2,0.2,0.3c0.3,0.3,0.5,0.7,0.2,1.1
							l0.1,0.3c0,0,0-0.1,0.1-0.1c0,0.1,0,0.1,0,0.1c0.1,0.4,0.2,0.8,0.3,1.2c0.3,0.2,0.6,0.4,0.8,0.6c0,0-0.2,0.3-0.4,0.4
							c0.3,0,0.5,0.1,0.6,0.3c0.2-0.3,0.4-0.6,0.5-0.9c0.4-0.4-1.1-0.3-0.4-0.9c-0.7,0.6,0.7,0.5,0.4,0.9c-0.1,0.2-0.4,0.6-0.5,0.9
							c0.3,0.3,0.3,0.9,0,1.4c-0.6-0.4-0.3-0.9,0-1.4c-0.1-0.2-0.3-0.3-0.6-0.3c0.1-0.1,0.4-0.4,0.4-0.4c-0.2-0.2-0.5-0.4-0.8-0.6
							c0.2,0.8,0.4,1.6,0.6,2.4c1.2,5.3,2.6,10.1,3,15.7c0.2,3,0,5.9-0.5,8.6c-0.5,2.7-0.6,5.3-1,7.9c-0.4,2.5-1.2,5-3.1,7.2
							c-0.3,0.4-0.7,0.9-0.9,1.5c-0.3,0.6-0.5,1.2-0.8,1.9c-0.2,0.6-0.5,1.3-0.7,1.9c-0.2,0.6-0.4,1.1-0.6,1.5
							c0.1,1.5,1.2,2.5,2.3,3.1c1.1,0.6,2.2,0.8,2.4,0.8c1.9,0.1,2.8-0.5,3.4-1.4c0.3-0.4,0.6-1,1.1-1.5c0.4-0.6,1-1.2,1.8-2
							c-1.1,1-1.4,0.4-1.1-0.7c0.1-0.5,0.4-1.2,0.8-1.8c0.4-0.6,1-1.2,1.7-1.7c2.3-1.3,2.9-3.5,3.1-5.9c0.2-2.4-0.1-4.9,0.5-7.1
							c0.3-1.1,0.1-2.3,0.2-3.7c0.6-3.5,0.2-7-0.6-10.3c-0.7-3.4-1.8-6.6-2.6-10.1c-0.5-1.8-1.9-3.2-2.8-4.5c-0.5-1-0.5-2.3-0.8-3.2
							c-0.5-1.4-1.3-2.4-2.1-3.4c0.7,1.2,1.2,2,1.9,3.4c0.4,0.9-1.4-0.2-1.9-0.8c-0.3-0.2,0.5-1,0.2-1.2c-0.2-0.6-0.8-0.9-1.3-1.4
							c-0.3-0.2,0.6-0.5,0.5-0.6c-0.5-0.7-1.9-0.9-1.9-1.5c0-0.5,0-0.9-0.1-1.3c0-0.2-0.1-0.5-0.2-0.7c-0.1-0.1-0.3-0.2-0.4-0.3
							c-0.2,0.2-0.5,0.4-0.8,0.6c0-0.2,0-0.6,0-0.9c0,0.2,0,0.6,0,0.9c0.3-0.2,0.6-0.4,0.8-0.6c-1-0.8-2-1.9-2.9-2.8l-0.1,0.1
							c0.4,0.6,0.6,1.3,0.4,2.2c0.1-0.4,0.3-0.5,0.5-0.1l-0.3,0.5c-0.5-0.5-1-1-0.6-1.8c0,0-0.3-0.2-0.5-0.2c0-0.2,0.3-0.4,0.5-0.5
							c-0.1-0.1-0.2-0.2-0.2-0.4C408.1,139.7,407.9,140.8,407.9,140.8z"/>
						<path class="st3" d="M410.8,147.7c-0.1-0.1-0.1-0.2-0.2-0.3l0.4,1.3C411.3,148.3,411,148,410.8,147.7z"/>
					</g>
				</g>
			</g>
		</g>
	</g>
</g>
<g>
	<g>
		<g>
			<g>
				<g class="st2">
					<g>
						<path class="st3" d="M431.6,160.5l-0.1,0.5c0.1-0.1,0.2-0.1,0.4-0.2C432,160.7,431.8,160.6,431.6,160.5z"/>
						<path class="st3" d="M431.3,161.4L431.3,161.4l0.1,0.2C431.4,161.6,431.4,161.5,431.3,161.4z"/>
						<path class="st3" d="M431.5,162.4c0.1-0.1,0.1-0.3,0-0.5C431.4,162,431.4,162.2,431.5,162.4z"/>
						<path class="st3" d="M431.8,161.7c-0.1,0-0.3,0-0.4-0.1l0,0c0,0.1,0.1,0.2,0.1,0.3C431.6,161.8,431.7,161.7,431.8,161.7z"/>
						<path class="st3" d="M431.8,161.7c0.1,0,0.3-0.1,0.4-0.1C432,161.6,431.9,161.6,431.8,161.7z"/>
						<path class="st3" d="M435.1,162.4c0.1,0.1-0.9-0.1-0.7,0.2c0.2,0.5,0.6,0.9,0.5,1.3c0.2,0.2-0.9,0.3-0.7,0.5
							c0.2,0.5,1.3,1.8,1.3,1.1c0-1-0.1-1.7-0.2-2.6c-0.3-0.8-0.6-1.5-0.9-2.3c0-0.2,0.1-0.4,0.2-0.6c-0.2,0.2-0.4,0.5-0.5,0.7
							C433.8,161.2,435,161.8,435.1,162.4z"/>
						<path class="st3" d="M432.6,156.8c0.1,0.1,0.3,0.3,0.3,0.3c-0.7,0.3-0.5,0.8-0.3,1.2l0.5-0.1c0-0.2-0.3-0.3-0.5-0.1
							c0.6-0.4,0.8-0.9,0.7-1.4C433,156.7,432.7,156.7,432.6,156.8z"/>
						<path class="st3" d="M433.2,156.4c0,0.1,0,0.2,0.1,0.3l0.1,0C433.3,156.6,433.3,156.5,433.2,156.4L433.2,156.4z"/>
						<path class="st3" d="M432,164.4c-0.2,1.2-0.4,2.3-0.7,3.3c0.2,0.1,0.4,0.2,0.2,0.3c-0.2,0.1-0.3,0.1-0.4,0.2l-0.1,0.5
							c0,0.1,0,0.1,0,0.2l0,0c0.1,0.1,0.2,0.1,0.4,0.1c0.1,0,0.2-0.1,0.4-0.1c-0.1,0-0.2,0.1-0.4,0.1c-0.1,0-0.2,0.1-0.3,0.2
							c0,0.2,0,0.3-0.1,0.5c-0.1-0.2,0-0.3,0.1-0.5c0-0.1,0-0.2-0.1-0.3l-0.1-0.1l-0.4,1c0,0.1,0,0.2,0,0.2c0.1,0.3,0.1,0.6-0.4,0.6
							l-0.1,0.2c0,0,0.1,0,0.1,0c0,0-0.1,0-0.1,0.1l-0.3,0.8c0.1,0.2,0.3,0.4,0.4,0.7c0,0-0.3,0-0.5,0.1c0.2,0.1,0.3,0.3,0.4,0.4
							c0.3-0.1,0.7-0.1,0.9-0.2c0.5-0.1-0.8-0.6,0.1-0.6c-0.9,0,0.4,0.6-0.1,0.6c-0.2,0.1-0.6,0.1-0.9,0.2c0.1,0.3-0.2,0.6-0.7,0.7
							c-0.3-0.4,0.1-0.6,0.7-0.7c0-0.1-0.2-0.3-0.4-0.4c0.2,0,0.5-0.1,0.5-0.1c-0.1-0.2-0.3-0.4-0.4-0.7c-0.2,0.5-0.4,1-0.6,1.5
							c-1.5,3.3-2.4,6.4-4.1,9.7c-0.9,1.8-2.1,3.4-3.3,4.8c-1.2,1.4-2,3-2.9,4.3c-0.9,1.4-2.1,2.6-4,3.1c-1.4,0.4-2.4,2.1-3.2,2.8
							c-0.1,1,0.6,2.3,1.3,3.4c0.7,1,1.5,1.8,1.6,1.9c1.5,1.1,2.2,1,2.9,0.7c0.7-0.3,1.4-0.9,3.1-1.2c-1.1,0.3-1.2-0.4-0.8-1
							c0.4-0.6,1.4-1.3,2.9-1.3c2.2,0.1,3.3-1.1,4-2.6c0.7-1.5,1-3.1,2.1-4.3c0.5-0.6,0.7-1.4,1.1-2.1c3-3.6,3-8.1,4.6-12.5
							c0.4-1.2-0.2-2.5-0.4-3.6c0-0.8,0.7-1.4,0.8-2c0.2-0.9,0.1-1.8-0.2-2.7c0,0.9,0.1,1.6,0,2.6c-0.1,0.7-1.1-0.7-1.2-1.2
							c-0.2-0.2,0.9-0.3,0.8-0.5c0.1-0.4-0.3-0.9-0.4-1.3c-0.2-0.2,0.8,0,0.7-0.1c-0.1-0.6-1.2-1.3-0.9-1.6c0.2-0.3,0.4-0.5,0.6-0.7
							c0.1-0.1,0.2-0.3,0.2-0.5c-0.1-0.1-0.1-0.2-0.2-0.4c-0.3,0-0.7,0-1,0c0.1-0.1,0.3-0.3,0.4-0.5c-0.1,0.1-0.3,0.3-0.4,0.5
							c0.4,0,0.7,0.1,1,0c-0.4-0.9-0.8-1.8-1-2.7l-0.1,0c0,0.5-0.1,0.9-0.8,1.3c0.2-0.2,0.5-0.1,0.5,0.1l-0.5,0.1
							c-0.2-0.5-0.4-0.9,0.4-1.2c0,0-0.2-0.2-0.3-0.3c0.2-0.1,0.4-0.1,0.7,0c0-0.1,0-0.2,0-0.3C432.7,163.9,432,164.4,432,164.4z"/>
						<path class="st3" d="M431.1,169.1c0-0.1,0-0.2,0-0.2l-0.3,0.9C431.2,169.7,431.2,169.4,431.1,169.1z"/>
					</g>
				</g>
			</g>
		</g>
	</g>
</g>
<g>
	<g>
		<g>
			<g>
				<g class="st2">
					<g>
						<path class="st3" d="M26.3,199.8l-0.5,0.8c0.1-0.1,0.3-0.2,0.5-0.2C26.5,200.2,26.3,200,26.3,199.8z"/>
						<path class="st3" d="M25.3,201.3c0,0-0.1,0.1-0.1,0.1c0,0.1,0,0.1,0,0.2C25.2,201.5,25.2,201.4,25.3,201.3z"/>
						<path class="st3" d="M24.7,202.9c0.2-0.2,0.3-0.5,0.4-0.8C24.9,202.3,24.8,202.5,24.7,202.9z"/>
						<path class="st3" d="M25.5,201.8c-0.2,0-0.3,0-0.3-0.2l0,0c0,0.2-0.1,0.3-0.1,0.5C25.2,202,25.4,201.9,25.5,201.8z"/>
						<path class="st3" d="M25.5,201.8c0.2,0,0.4-0.1,0.4-0.1C25.8,201.7,25.7,201.8,25.5,201.8z"/>
						<path class="st3" d="M28.3,203.8c0,0.2-0.8-0.3-0.8,0.1c-0.1,0.8,0,1.5-0.3,2.1c0.1,0.4-1.1,0.3-1.1,0.7c-0.1,0.8,0.4,3,0.7,2
							c0.5-1.6,0.8-2.6,1.3-4c0.2-1.2,0.4-2.5,0.7-3.7c0.1-0.3,0.4-0.6,0.6-0.8c-0.3,0.3-0.7,0.6-1.1,0.9
							C27.9,201.5,28.6,202.8,28.3,203.8z"/>
						<path class="st3" d="M30.5,194.3c0,0.2,0,0.6,0,0.6c-1,0.2-1.2,1-1.4,1.8l0.6,0c0.2-0.4,0-0.6-0.4-0.4c1-0.4,1.5-1,2-1.8
							C31,194.4,30.8,194.2,30.5,194.3z"/>
						<path class="st3" d="M31.5,194c-0.1,0.2-0.1,0.3-0.2,0.5l0.1,0C31.4,194.3,31.4,194.2,31.5,194L31.5,194z"/>
						<path class="st3" d="M24,206.3c-0.4,1-0.9,1.9-1.3,2.9c-0.4,0.9-0.8,1.9-1.2,2.8c0.1,0.2,0.3,0.4,0.1,0.5
							c-0.2,0.1-0.4,0.2-0.5,0.3l-0.3,0.8c0,0.1,0,0.2,0,0.3l0,0c0,0.2,0.2,0.2,0.4,0.1c0.1-0.1,0.3-0.1,0.4-0.2
							c-0.1,0-0.3,0.1-0.4,0.2c-0.2,0.1-0.3,0.2-0.4,0.4c0,0.3-0.1,0.5-0.2,0.8c0-0.3,0.1-0.6,0.2-0.8c0-0.2,0-0.3,0-0.5
							c0-0.1,0-0.1,0-0.2c-0.3,0.6-0.5,1.2-0.7,1.8c0,0.2,0,0.3,0,0.4c0,0.5,0,1-0.6,1.1l-0.1,0.3c0,0,0.1,0,0.1,0
							c0,0-0.1,0.1-0.1,0.1c-0.2,0.5-0.3,0.9-0.5,1.4c0.1,0.4,0.2,0.7,0.3,1.1c0,0-0.4,0.1-0.5,0.2c0.2,0.2,0.3,0.4,0.3,0.7
							c0.3-0.2,0.7-0.4,0.9-0.5c0.5-0.2-0.7-1,0.2-1.1c-1,0.2,0.3,0.9-0.2,1.1c-0.2,0.2-0.6,0.3-0.9,0.5c0.1,0.5-0.2,1.1-0.8,1.4
							c-0.3-0.7,0.2-1.1,0.8-1.4c0-0.2-0.1-0.5-0.3-0.7c0.2-0.1,0.5-0.2,0.5-0.2c-0.1-0.4-0.2-0.7-0.3-1.1c-0.3,0.9-0.6,1.9-0.9,2.9
							c-2,6.3-2.4,12.4-2.5,19.3c-0.1,3.7,0,7.4,0.1,11c0.2,3.6,1.1,6.9,2.1,10.2c1,3.3,2.1,6.6,2.6,10.4c0.3,1.5,1.1,3.3,2.2,5
							c0.5,0.9,1.1,1.7,1.6,2.5c0.5,0.8,1,1.4,1.5,2c1.7,1.1,3.1,0.5,4.1-0.2c1-0.8,1.6-1.8,1.6-2c0.8-1.9,0.6-2.8,0.2-3.9
							c-0.2-0.5-0.5-1.1-0.8-1.8c-0.2-0.7-0.5-1.6-0.5-2.7c0.2,1.5-0.6,1.3-1.3,0.4c-0.7-1-1.3-2.8-0.8-4.5c0.8-2.5,0.1-4.6-0.8-6.7
							c-0.9-2.1-2.2-4.3-2.3-6.7c-0.1-1.1-0.5-2.3-0.7-3.6c-0.1-3.6-0.6-6.8-0.9-10.2c-0.3-3.4-0.5-6.9,0-10.5c0.1-1,0-1.9-0.1-2.8
							c-0.1-0.9-0.3-1.8-0.4-2.7c0.1-1.2,0.8-2.4,1.1-3.4c0.2-0.8,0.3-1.5,0.3-2.2c0.1-0.7,0.1-1.4,0.1-2.1c-0.1,0.7-0.2,1.4-0.3,2
							c-0.1,0.7-0.1,1.3-0.3,2.1c-0.2,1.1-1-1-1.1-1.8c-0.1-0.4,1-0.5,0.9-0.9c0.2-0.6,0-1.4-0.1-2.1c-0.1-0.4,0.8,0,0.7-0.2
							c0.1-1-0.8-2.1-0.3-2.6c0.3-0.4,0.6-0.8,0.9-1.1c0.1-0.2,0.3-0.5,0.4-0.7c0-0.2,0-0.4,0-0.6c-0.3,0-0.7-0.1-1-0.2
							c0.2-0.2,0.5-0.5,0.6-0.7c-0.2,0.2-0.5,0.5-0.6,0.7c0.4,0.1,0.7,0.2,1,0.2c0-1.4,0.1-3,0.4-4.5c0,0-0.1,0-0.1,0
							c-0.3,0.8-0.7,1.5-1.6,2.1c0.3-0.3,0.6-0.1,0.4,0.3l-0.6,0.1c0.1-0.8,0.1-1.6,1-2c0,0-0.1-0.4-0.1-0.6c0.2-0.2,0.5,0,0.7,0.1
							c0.1-0.2,0.1-0.3,0.1-0.5C25,205.6,24,206.3,24,206.3z"/>
						<path class="st3" d="M20.7,214.5c0-0.1,0-0.3,0.1-0.4c-0.2,0.5-0.4,1-0.6,1.5C20.7,215.5,20.7,215,20.7,214.5z"/>
					</g>
				</g>
			</g>
		</g>
	</g>
</g>
<g>
	<g>
		<g>
			<g>
				<g class="st2">
					<g>
						<path class="st3" d="M33.7,242.5l-0.2,0.4c0.1,0,0.2-0.1,0.4-0.1C34,242.7,33.8,242.6,33.7,242.5z"/>
						<path class="st3" d="M33.2,243.2L33.2,243.2l0,0.2C33.2,243.3,33.2,243.2,33.2,243.2z"/>
						<path class="st3" d="M33.1,244c0.1-0.1,0.1-0.2,0.1-0.4C33.1,243.7,33.1,243.8,33.1,244z"/>
						<path class="st3" d="M33.6,243.5c-0.1,0-0.3-0.1-0.4-0.2l0,0c0,0.1,0,0.2,0,0.3C33.3,243.6,33.4,243.5,33.6,243.5z"/>
						<path class="st3" d="M33.6,243.5c0.1,0,0.3,0,0.4,0C33.8,243.5,33.7,243.5,33.6,243.5z"/>
						<path class="st3" d="M36.6,245.1c0.1,0.1-0.8-0.3-0.7-0.1c0.1,0.4,0.4,0.9,0.3,1.1c0.1,0.2-0.9,0-0.8,0.2
							c0.1,0.4,1,1.7,1.1,1.2c0.1-0.8,0.1-1.3,0.2-2c-0.1-0.7-0.3-1.3-0.4-2c0-0.2,0.2-0.3,0.3-0.4c-0.2,0.1-0.4,0.2-0.7,0.4
							C35.6,243.8,36.5,244.6,36.6,245.1z"/>
						<path class="st3" d="M35.7,239.8c0.1,0.1,0.2,0.4,0.2,0.4c-0.8,0-0.7,0.4-0.7,0.8l0.5,0.1c0.1-0.2-0.2-0.4-0.4-0.3
							c0.7-0.1,1-0.4,1.1-0.8C36.2,240,35.9,239.8,35.7,239.8z"/>
						<path class="st3" d="M36.4,239.8c0,0.1,0,0.2,0,0.2l0.1,0C36.5,240,36.5,239.9,36.4,239.8L36.4,239.8z"/>
						<path class="st3" d="M33.3,245.8c-0.3,1-0.7,1.8-1.1,2.7c0.2,0.1,0.3,0.2,0.2,0.3c-0.2,0-0.3,0.1-0.4,0.1l-0.2,0.4
							c0,0.1,0,0.1,0,0.2l0,0c0.1,0.1,0.2,0.1,0.4,0.1c0.1,0,0.2,0,0.4,0c-0.1,0-0.2,0-0.4,0c-0.1,0-0.2,0.1-0.3,0.1
							c0,0.1,0,0.3-0.1,0.4c-0.1-0.2,0-0.3,0.1-0.4c0-0.1,0-0.2-0.1-0.3l-0.1-0.1l-0.4,0.9c0,0.1,0,0.1,0,0.2
							c0.1,0.3,0.1,0.5-0.4,0.5l-0.1,0.2c0,0,0.1,0,0.1,0c0,0-0.1,0-0.1,0c-0.1,0.2-0.2,0.4-0.3,0.7c0.1,0.2,0.3,0.4,0.4,0.6
							c0,0-0.3,0-0.5,0c0.2,0.1,0.3,0.2,0.4,0.4c0.3-0.1,0.6-0.1,0.9-0.1c0.5,0-0.8-0.6,0.1-0.5c-0.9,0,0.4,0.5-0.1,0.5
							c-0.2,0.1-0.6,0.1-0.9,0.1c0.1,0.3-0.1,0.5-0.6,0.6c-0.3-0.4,0.1-0.5,0.6-0.6c-0.1-0.1-0.2-0.2-0.4-0.4c0.2,0,0.5,0,0.5,0
							c-0.1-0.2-0.3-0.4-0.4-0.6c-0.2,0.4-0.4,0.9-0.6,1.3c-1.3,2.9-1.6,5.8-2.2,9c-0.3,1.8-0.8,3.5-1.2,5.2
							c-0.2,0.9-0.3,1.7-0.3,2.6c0,0.8,0.1,1.7,0.2,2.5c0.1,1.7,0.2,3.4-0.2,5.9c-0.1,0.9,0.3,2.2,1.1,3.4c0.8,1.2,1.9,2.3,2.7,3
							c1.6,0.4,2.7-0.7,3.4-1.7c0.7-1.1,1.1-2.1,1.2-2.2c0.7-1.7,0.8-2.1,0.7-2.6c-0.1-0.4-0.4-0.9,0.2-2c-0.3,0.7-0.8,0.9-1.2,0.5
							c-0.3-0.4-0.3-1.2,0.7-2.1c1.5-1.2,1.5-2,1.2-3c-0.3-1-1-2-0.6-3.1c0.2-0.5,0-1,0-1.7c0.5-1.6,0.5-3.1,0.3-4.6
							c-0.1-1.5-0.3-3.1,0.1-4.8c0.1-0.9-0.6-1.8-0.9-2.6c0-0.6,0.6-1.1,0.7-1.5c0.1-0.7,0-1.4-0.2-2.1c0,0.7,0.1,1.2,0,2
							c-0.1,0.5-1.1-0.6-1.3-1c-0.2-0.2,0.9-0.1,0.8-0.3c0.1-0.3-0.2-0.7-0.4-1.1c-0.2-0.2,0.7,0.1,0.7,0c-0.1-0.5-1.1-1.2-0.8-1.4
							c0.2-0.2,0.4-0.3,0.6-0.4c0.1-0.1,0.2-0.2,0.2-0.3l-0.1-0.3c-0.3,0-0.6-0.1-1-0.2c0.1-0.1,0.4-0.2,0.5-0.3
							c-0.1,0.1-0.4,0.2-0.5,0.3c0.3,0.1,0.7,0.2,1,0.2c-0.3-0.8-0.5-1.6-0.6-2.4l-0.1,0c-0.1,0.4-0.3,0.7-1,0.9
							c0.3-0.1,0.5,0,0.5,0.2l-0.5,0c-0.1-0.4-0.2-0.9,0.5-0.9c0,0-0.1-0.2-0.2-0.3c0.2-0.1,0.4,0.1,0.7,0.1c0-0.1,0-0.2,0-0.2
							C34,245.6,33.3,245.8,33.3,245.8z"/>
						<path class="st3" d="M31.8,249.7c0-0.1,0-0.1,0-0.2l-0.3,0.7C31.9,250.2,31.9,250,31.8,249.7z"/>
					</g>
				</g>
			</g>
		</g>
	</g>
</g>
<g>
	<g>
		<g>
			<g>
				<g class="st2">
					<g>
						<path class="st3" d="M275.7,188.5c0.1,0.3,0.3,0.7,0.4,1.1c0-0.2,0-0.4,0.1-0.7C276.2,188.6,276,188.6,275.7,188.5z"/>
						<path class="st3" d="M276.5,190.6c0,0.1,0,0.1,0.1,0.2c0.1,0,0.1,0.1,0.1,0.1C276.7,190.8,276.6,190.7,276.5,190.6z"/>
						<path class="st3" d="M277.5,192.3c-0.1-0.3-0.2-0.6-0.4-0.9C277.1,191.7,277.2,192,277.5,192.3z"/>
						<path class="st3" d="M277.1,190.7c-0.1,0.2-0.2,0.3-0.4,0.1l0,0c0.1,0.2,0.2,0.3,0.3,0.5C277.1,191.2,277.1,190.9,277.1,190.7
							z"/>
						<path class="st3" d="M277.1,190.7c0.1-0.2,0.1-0.4,0.2-0.5C277.2,190.4,277.2,190.6,277.1,190.7z"/>
						<path class="st3" d="M280.5,189.9c0.2,0.2-0.7,0.5-0.4,0.8c0.6,0.8,1.3,1.5,1.6,2.3c0.4,0.3-0.5,1.3-0.1,1.6
							c0.6,0.8,2.5,2.9,2,1.5c-0.8-2.1-1.5-3.4-2.4-5.3c-0.5-0.7-1-1.4-1.5-2c-0.5-0.7-1-1.3-1.5-2c-0.3-0.4-0.4-0.8-0.5-1.2
							c0.1,0.6,0.3,1.2,0.4,1.8C278.2,188.3,279.8,188.7,280.5,189.9z"/>
						<path class="st3" d="M271.9,181c0.2,0.1,0.6,0.3,0.6,0.3c0,1.1,0.7,1.7,1.4,2.4c0.1-0.2,0.1-0.4,0.2-0.6
							c-0.3-0.4-0.6-0.3-0.5,0.2c-0.1-0.6-0.2-1.2-0.4-1.6c-0.2-0.5-0.6-0.9-0.9-1.3C272.1,180.6,271.9,180.7,271.9,181z"/>
						<path class="st3" d="M271.9,179.9c0.1,0.2,0.3,0.3,0.4,0.5l0.1-0.1C272.2,180.1,272,180,271.9,179.9L271.9,179.9z"/>
						<path class="st3" d="M279.7,196c0.8,2.6,1.4,5,1.8,7.5c0.2,0.1,0.5,0.2,0.4,0.5c-0.1,0.2-0.2,0.4-0.2,0.6
							c0,0.4,0.1,0.7,0.1,1.1c0,0.1,0.1,0.2,0.1,0.4l0,0c0.1,0.2,0.3,0.1,0.4,0c0.1-0.2,0.2-0.3,0.3-0.4c-0.1,0.1-0.2,0.3-0.3,0.4
							c-0.1,0.2-0.2,0.4-0.2,0.6c0.1,0.3,0.2,0.6,0.2,1c-0.2-0.4-0.2-0.7-0.2-1c-0.1-0.2-0.2-0.4-0.2-0.6l-0.1-0.2
							c0.1,0.8,0.2,1.6,0.2,2.4c0.1,0.2,0.1,0.4,0.1,0.5c0.2,0.6,0.4,1.1,0,1.6c0,0.1,0,0.3,0,0.4c0,0,0-0.1,0.1-0.1
							c0,0.1,0,0.1-0.1,0.2c0,0.6,0.1,1.2,0.1,1.9c0.2,0.4,0.5,0.8,0.7,1.2c0,0-0.3,0.3-0.4,0.5c0.3,0.1,0.4,0.4,0.5,0.6
							c0.3-0.4,0.5-0.7,0.7-1c0.4-0.5-1.1-0.8-0.2-1.4c-0.9,0.6,0.6,1,0.2,1.4c-0.2,0.3-0.4,0.6-0.7,1c0.2,0.6,0.1,1.3-0.3,2
							c-0.5-0.7-0.1-1.4,0.3-2c-0.1-0.3-0.3-0.5-0.5-0.6c0.1-0.2,0.4-0.5,0.4-0.5c-0.2-0.4-0.4-0.8-0.7-1.2c0,1.2,0.1,2.4,0.1,3.7
							c0,8.1,0.2,15.5-0.7,23.7c-0.6,4.5-1.4,8.7-2.6,12.8c-1.2,4.1-1.8,8-2.8,11.9c-1,3.8-2.3,7.6-4.9,10.9
							c-0.9,1.3-1.8,3.2-2.8,5.1c-0.9,1.9-1.8,3.7-2.6,4.9c-0.4,2,0.4,3.2,1.5,4c1,0.7,2.3,0.9,2.4,0.9c2.2,0,3.2-0.9,4.2-2.1
							c1-1.3,2-2.9,4.1-5.1c-1.3,1.5-1.5,0.6-1-0.9c0.6-1.5,1.8-3.7,3.5-5c2.6-1.9,3.7-5,4.4-8.2c0.7-3.3,0.8-6.7,1.8-9.8
							c0.5-1.5,0.6-3.2,1-5.1c1.3-4.8,1.7-9.6,1.8-14.4c0.1-4.8-0.1-9.7-0.2-14.9c-0.1-2.8-1.1-5.1-1.8-7.4c-0.3-1.7,0-3.5-0.1-4.9
							c-0.2-2.2-0.8-4-1.5-5.7c0.5,1.9,0.9,3.4,1.3,5.6c0.2,1.5-1.3-0.9-1.7-1.8c-0.3-0.4,0.7-1.2,0.4-1.6c-0.1-0.9-0.7-1.7-1.1-2.6
							c-0.3-0.4,0.7-0.5,0.5-0.7c-0.4-1.3-1.8-2.1-1.7-2.9c0-0.7,0-1.3,0.1-1.8c0-0.4-0.1-0.7-0.2-1.1c-0.1-0.2-0.3-0.4-0.4-0.6
							c-0.2,0.3-0.6,0.4-0.9,0.6c0-0.3,0.1-0.9,0-1.2c0,0.4-0.1,0.9,0,1.2c0.3-0.1,0.7-0.3,0.9-0.6c-0.9-1.6-2-3.4-3-5l-0.1,0.1
							c0.4,1,0.7,2,0.4,3.3c0.1-0.5,0.3-0.5,0.6,0l-0.3,0.5c-0.5-0.9-1-1.7-0.6-2.7c0,0-0.3-0.3-0.5-0.5c0-0.3,0.3-0.4,0.6-0.5
							c-0.1-0.2-0.2-0.4-0.3-0.6C279.9,194.5,279.7,196,279.7,196z"/>
						<path class="st3" d="M282.1,206.7c-0.1-0.1-0.1-0.3-0.2-0.5c0.1,0.7,0.1,1.4,0.2,2.1C282.6,207.8,282.3,207.3,282.1,206.7z"/>
					</g>
				</g>
			</g>
		</g>
	</g>
</g>
<g>
	<g>
		<g>
			<g>
				<g class="st2">
					<g>
						<path class="st3" d="M296.2,238.4l-0.1,0.6c0.1-0.1,0.2-0.2,0.4-0.3C296.6,238.6,296.4,238.5,296.2,238.4z"/>
						<path class="st3" d="M296,239.6c0,0,0,0.1,0,0.1l0.1,0.1C296.1,239.7,296.1,239.7,296,239.6z"/>
						<path class="st3" d="M296.3,240.7c0.1-0.2,0-0.4,0-0.6C296.2,240.3,296.1,240.5,296.3,240.7z"/>
						<path class="st3" d="M296.5,239.8c-0.1,0.1-0.3,0.1-0.4,0l0,0c0,0.1,0.1,0.2,0.1,0.3C296.3,240,296.4,239.9,296.5,239.8z"/>
						<path class="st3" d="M296.5,239.8c0.1-0.1,0.3-0.2,0.4-0.2C296.7,239.7,296.6,239.8,296.5,239.8z"/>
						<path class="st3" d="M299.9,240.3c0.1,0.1-0.9,0-0.6,0.3c0.3,0.5,0.7,1,0.6,1.5c0.2,0.2-0.9,0.5-0.7,0.8
							c0.2,0.5,1.4,2.1,1.4,1.2c0-1.2-0.2-2.1-0.3-3.2c-0.4-0.9-0.8-1.8-1.1-2.7c0-0.3,0-0.5,0.1-0.7c-0.2,0.3-0.3,0.6-0.5,1
							C298.5,238.9,299.7,239.5,299.9,240.3z"/>
						<path class="st3" d="M296.7,233.8c0.1,0.1,0.3,0.3,0.3,0.3c-0.7,0.5-0.4,1-0.1,1.5l0.5-0.2c-0.1-0.3-0.3-0.3-0.5-0.1
							c0.6-0.6,0.6-1.2,0.5-1.8C297.1,233.6,296.8,233.6,296.7,233.8z"/>
						<path class="st3" d="M297.3,233.2c0,0.1,0.1,0.2,0.1,0.3l0.1,0C297.4,233.4,297.4,233.3,297.3,233.2L297.3,233.2z"/>
						<path class="st3" d="M296.9,243.1c-0.1,0.7-0.1,1.4-0.2,2.1c-0.1,0.7-0.3,1.4-0.4,2c0.2,0.1,0.4,0.2,0.2,0.4
							c-0.2,0.1-0.3,0.2-0.4,0.3l-0.1,0.6c0,0.1,0,0.1,0,0.2l0,0c0.1,0.1,0.2,0.1,0.4,0.1c0.1-0.1,0.2-0.1,0.4-0.1
							c-0.1,0-0.2,0.1-0.4,0.1c-0.1,0.1-0.2,0.2-0.3,0.3c0,0.2,0,0.4-0.1,0.6c-0.1-0.2,0-0.4,0.1-0.6c0-0.1-0.1-0.2-0.1-0.4
							l-0.1-0.1c-0.1,0.4-0.3,0.9-0.4,1.3c0,0.1,0,0.2,0,0.3c0.1,0.3,0.1,0.7-0.4,0.8l-0.1,0.2c0,0,0.1,0,0.1,0c0,0-0.1,0.1-0.1,0.1
							l-0.3,1c0.1,0.3,0.3,0.5,0.4,0.8c0,0-0.4,0.1-0.5,0.1c0.2,0.1,0.3,0.3,0.4,0.5c0.3-0.1,0.7-0.2,0.9-0.3
							c0.5-0.1-0.8-0.7,0.1-0.8c-0.9,0.1,0.4,0.7-0.1,0.8c-0.2,0.1-0.6,0.2-0.9,0.3c0.1,0.4-0.2,0.7-0.7,0.9
							c-0.3-0.5,0.2-0.7,0.7-0.9c0-0.2-0.2-0.3-0.4-0.5c0.2,0,0.5-0.1,0.5-0.1c-0.1-0.3-0.3-0.5-0.4-0.8c-0.2,0.6-0.5,1.2-0.7,1.9
							c-0.5,1-0.8,2-1.2,3c-0.4,1-0.8,1.9-1.2,2.9c-0.9,1.9-1.7,3.8-2.9,5.7c-0.6,1-1.4,2-2.1,2.9c-0.4,0.5-0.7,0.9-1.1,1.3
							c-0.4,0.4-0.8,0.8-1.2,1.2c-0.8,0.8-1.5,1.6-2.2,2.5c-0.7,0.8-1.3,1.7-2,2.5c-0.7,0.8-1.4,1.5-2.3,2.2
							c-0.9,0.6-1.9,1.2-3.1,1.6c-1.8,0.6-3.6,3-4.8,4.1c-0.6,2.6,2.8,5.1,3.1,5.2c1.7,0.9,2.4,0.7,3.2,0.3c0.4-0.2,0.8-0.5,1.3-0.7
							c0.5-0.3,1.2-0.5,2.1-0.7c-1.2,0.3-1.3-0.4-0.7-1.1c0.6-0.7,1.8-1.4,3.3-1.4c1.2,0.1,2.1-0.2,2.9-0.7c0.8-0.5,1.3-1.2,1.9-2
							c1.1-1.5,1.8-3.4,3.2-4.7c0.7-0.6,1.1-1.5,1.7-2.4c0.5-0.5,1-1.1,1.4-1.6c0.4-0.6,0.8-1.2,1.1-1.8s0.7-1.2,1-1.8
							c0.3-0.6,0.5-1.3,0.8-1.9c0.2-0.6,0.5-1.3,0.7-2c0.2-0.7,0.4-1.3,0.7-2c0.2-0.7,0.5-1.3,0.7-2c0.3-0.7,0.5-1.4,0.8-2.1
							c0.2-0.7,0.3-1.5,0.2-2.3c-0.1-0.8-0.2-1.5-0.3-2.2c0.1-1,0.8-1.8,1-2.6c0.2-1.2,0.1-2.3-0.1-3.3c-0.1,1.1,0,2-0.1,3.2
							c-0.1,0.8-1.1-0.9-1.2-1.4c-0.2-0.3,1-0.4,0.8-0.7c0.1-0.5-0.2-1-0.4-1.6c-0.2-0.3,0.8-0.1,0.7-0.2c-0.1-0.8-1.2-1.5-0.9-2
							c0.2-0.3,0.4-0.6,0.6-0.9c0.1-0.2,0.2-0.4,0.1-0.6c-0.1-0.1-0.1-0.3-0.2-0.4c-0.3,0.1-0.7,0.1-1,0c0.1-0.2,0.3-0.4,0.4-0.6
							c-0.1,0.2-0.3,0.4-0.4,0.6c0.4,0,0.7,0,1,0c-0.4-1-0.9-2.2-1.2-3.2l-0.1,0c0,0.6-0.1,1.2-0.7,1.7c0.2-0.2,0.5-0.2,0.5,0.1
							l-0.5,0.2c-0.2-0.6-0.4-1.1,0.3-1.5c0,0-0.2-0.2-0.3-0.4c0.1-0.2,0.4-0.1,0.7-0.1c0-0.1,0-0.2,0-0.4
							C297.6,242.4,296.9,243.1,296.9,243.1z"/>
						<path class="st3" d="M296.1,249c0-0.1,0-0.2,0-0.3c-0.1,0.4-0.2,0.7-0.3,1.1C296.3,249.7,296.2,249.3,296.1,249z"/>
					</g>
				</g>
			</g>
		</g>
	</g>
</g>
<g>
	<g>
		<g>
			<g>
				<g class="st2">
					<g>
						<path class="st3" d="M259.2,246.5l0.1,0.5c0-0.1,0.1-0.2,0.2-0.3C259.6,246.5,259.4,246.5,259.2,246.5z"/>
						<path class="st3" d="M259.4,247.4L259.4,247.4l0.1,0.1C259.4,247.5,259.4,247.4,259.4,247.4z"/>
						<path class="st3" d="M259.9,248.1c0-0.2-0.1-0.3-0.2-0.4C259.7,247.9,259.7,248,259.9,248.1z"/>
						<path class="st3" d="M259.9,247.4c-0.1,0.1-0.3,0.2-0.4,0.1l0,0c0.1,0.1,0.1,0.1,0.2,0.2C259.7,247.6,259.8,247.5,259.9,247.4
							z"/>
						<path class="st3" d="M259.9,247.4c0.1-0.1,0.2-0.2,0.3-0.3C260,247.2,260,247.3,259.9,247.4z"/>
						<path class="st3" d="M263.2,246.5c0.1,0-0.8,0.3-0.5,0.4c0.4,0.3,0.9,0.5,1,0.8c0.3,0.1-0.7,0.7-0.4,0.8
							c0.4,0.3,1.9,0.9,1.7,0.3c-0.4-0.8-0.9-1.3-1.3-2c-0.6-0.5-1.2-1-1.8-1.5c-0.1-0.2-0.1-0.4-0.1-0.6c-0.1,0.3-0.1,0.5-0.2,0.8
							C261.5,246,262.8,246,263.2,246.5z"/>
						<path class="st3" d="M258.5,242.8c0.1,0,0.4,0.1,0.4,0.1c-0.5,0.6-0.1,0.9,0.3,1.2l0.4-0.3c-0.1-0.2-0.4-0.1-0.5,0.1
							c0.4-0.6,0.3-1.1,0.1-1.5C258.9,242.6,258.6,242.7,258.5,242.8z"/>
						<path class="st3" d="M258.9,242.2c0.1,0.1,0.1,0.1,0.2,0.2l0.1,0C259.1,242.4,259,242.3,258.9,242.2L258.9,242.2z"/>
						<path class="st3" d="M261.3,249.6c0.4,1.1,0.7,2.1,0.9,3.1c0.2,0,0.4,0,0.4,0.1c-0.1,0.1-0.2,0.2-0.3,0.3l0.1,0.5l0.1,0.1l0,0
							c0.1,0,0.3,0,0.4-0.1c0.1-0.1,0.2-0.2,0.3-0.3c-0.1,0.1-0.2,0.2-0.3,0.3c-0.1,0.1-0.2,0.2-0.2,0.3c0.1,0.1,0.2,0.2,0.2,0.4
							c-0.2-0.1-0.2-0.3-0.2-0.4c-0.1-0.1-0.1-0.1-0.2-0.2l-0.1,0c0.1,0.3,0.1,0.7,0.2,1c0,0.1,0.1,0.1,0.1,0.2
							c0.2,0.2,0.4,0.4,0,0.7l0,0.2c0,0,0,0,0.1-0.1c0,0,0,0.1-0.1,0.1l0.1,0.8c0.2,0.1,0.5,0.2,0.7,0.3c0,0-0.3,0.2-0.4,0.3
							c0.2,0,0.4,0.1,0.5,0.2c0.2-0.2,0.5-0.4,0.7-0.6c0.4-0.3-1-0.1-0.2-0.6c-0.8,0.5,0.6,0.3,0.2,0.6c-0.2,0.2-0.4,0.4-0.7,0.6
							c0.2,0.2,0.2,0.6-0.2,0.9c-0.5-0.2-0.2-0.6,0.2-0.9c-0.1-0.1-0.3-0.1-0.5-0.2c0.1-0.1,0.4-0.3,0.4-0.3
							c-0.2-0.1-0.5-0.2-0.7-0.3c0.1,0.5,0.1,1,0.2,1.6c0.3,3.4,1.2,6.4,1.3,10c0,0.9,0,1.9-0.1,2.8c-0.1,0.9-0.2,1.8-0.4,2.7
							c-0.4,1.8-0.3,3.4-0.4,5c-0.1,0.8-0.2,1.6-0.4,2.4c-0.3,0.8-0.7,1.6-1.4,2.3c-1,1.1-0.8,3.4-1,4.6c1.2,1.9,5.4,2.1,5.6,2
							c1.8-0.1,2.3-0.6,2.7-1.2c0.2-0.3,0.3-0.7,0.6-1.1c0.2-0.4,0.6-0.9,1.1-1.4c-0.7,0.7-1.2,0.3-1.2-0.4c0-0.7,0.5-1.7,1.7-2.4
							c1-0.5,1.5-1.1,1.8-1.8c0.3-0.7,0.3-1.4,0.2-2.2c-0.1-1.5-0.7-3-0.3-4.5c0.2-0.7-0.1-1.5-0.1-2.3c0.2-1.1,0.2-2.2,0.1-3.3
							c-0.1-1.1-0.3-2.1-0.6-3.1c-0.3-1-0.6-2-0.9-3.1c-0.3-1-0.6-2.1-0.8-3.2c-0.3-1.2-1.4-1.9-2.2-2.7c-0.4-0.6-0.1-1.5-0.3-2.1
							c-0.3-0.9-0.8-1.5-1.4-2.1c0.4,0.8,0.8,1.3,1.2,2.1c0.2,0.6-1.3-0.1-1.7-0.4c-0.3-0.1,0.7-0.7,0.4-0.8c-0.1-0.4-0.6-0.6-1-0.9
							c-0.3-0.1,0.7-0.4,0.5-0.4c-0.4-0.5-1.7-0.5-1.5-0.9c0.1-0.3,0.1-0.6,0.2-0.8c0-0.2,0-0.3-0.1-0.5l-0.3-0.2
							c-0.3,0.2-0.6,0.3-0.9,0.4c0-0.2,0.1-0.4,0.1-0.6c0,0.2-0.1,0.4-0.1,0.6c0.3-0.1,0.7-0.3,0.9-0.4c-0.8-0.5-1.5-1.2-2.2-1.8
							l-0.1,0c0.2,0.4,0.3,0.8-0.1,1.5c0.1-0.3,0.4-0.3,0.5-0.1l-0.4,0.3c-0.4-0.3-0.8-0.6-0.2-1.2c0,0-0.3-0.1-0.4-0.1
							c0.1-0.2,0.4-0.3,0.6-0.4c0-0.1-0.1-0.2-0.2-0.2C261.7,248.8,261.3,249.6,261.3,249.6z"/>
						<path class="st3" d="M262.7,254c0,0-0.1-0.1-0.1-0.2l0.1,0.9C263.1,254.4,262.9,254.2,262.7,254z"/>
					</g>
				</g>
			</g>
		</g>
	</g>
</g>
<g>
	<g>
		<g>
			<g>
				<g class="st2">
					<g>
						<path class="st3" d="M168,309.8l-0.4,0.8c0.1-0.1,0.3-0.2,0.5-0.3C168.3,310.2,168.1,310,168,309.8z"/>
						<path class="st3" d="M167.3,311.4c0,0.1,0,0.1-0.1,0.1c0,0.1,0,0.1,0,0.2C167.3,311.6,167.3,311.5,167.3,311.4z"/>
						<path class="st3" d="M167.1,313c0.1-0.2,0.2-0.5,0.2-0.8C167.1,312.4,167,312.7,167.1,313z"/>
						<path class="st3" d="M167.7,311.9c-0.2,0-0.3,0-0.4-0.1l0,0c0,0.2,0,0.3,0,0.5C167.4,312.1,167.5,312,167.7,311.9z"/>
						<path class="st3" d="M167.7,311.9c0.2,0,0.3-0.1,0.4-0.2C167.9,311.8,167.8,311.8,167.7,311.9z"/>
						<path class="st3" d="M170.8,313.3c0.1,0.2-0.8-0.2-0.7,0.2c0,0.7,0.3,1.4,0.1,2.1c0.1,0.3-1,0.5-0.9,0.8
							c0,0.8,0.9,2.8,1.1,1.7c0.2-1.5,0.3-2.6,0.5-4c0-1.2-0.1-2.4,0-3.6c0.1-0.3,0.3-0.6,0.4-0.9c-0.3,0.3-0.6,0.7-0.9,1.1
							C169.9,311.2,170.8,312.3,170.8,313.3z"/>
						<path class="st3" d="M171.1,304c0,0.2,0.1,0.6,0.1,0.6c-0.9,0.3-1,1.1-1,1.9l0.6-0.1c0.1-0.4-0.1-0.6-0.5-0.3
							c0.9-0.5,1.3-1.2,1.5-2C171.5,304,171.3,303.9,171.1,304z"/>
						<path class="st3" d="M171.9,303.6c0,0.2-0.1,0.3-0.1,0.5l0.1,0C171.9,303.9,171.9,303.8,171.9,303.6L171.9,303.6z"/>
						<path class="st3" d="M167,316.4c-0.5,2-0.9,3.9-1.4,5.7c0.2,0.2,0.4,0.3,0.2,0.5c-0.2,0.1-0.3,0.2-0.4,0.4l-0.2,0.8
							c0,0.1,0,0.2,0,0.3l0,0c0.1,0.2,0.2,0.1,0.4,0.1c0.1-0.1,0.3-0.2,0.4-0.2c-0.1,0-0.2,0.2-0.4,0.2c-0.1,0.1-0.3,0.2-0.3,0.4
							c0,0.3,0,0.5-0.1,0.8c-0.1-0.3,0-0.6,0.1-0.8c0-0.2,0-0.3-0.1-0.5l-0.1-0.1c-0.2,0.6-0.3,1.2-0.4,1.8c0,0.1,0,0.3,0,0.4
							c0.1,0.5,0.1,0.9-0.3,1.2l-0.1,0.3c0,0,0.1,0,0.1-0.1c0,0-0.1,0.1-0.1,0.1c-0.1,0.5-0.2,0.9-0.2,1.4c0.2,0.3,0.4,0.7,0.5,1
							c0,0-0.3,0.2-0.5,0.3c0.2,0.1,0.4,0.3,0.5,0.6c0.3-0.2,0.6-0.5,0.8-0.7c0.5-0.3-0.9-0.8,0-1.1c-0.9,0.3,0.5,0.8,0,1.1
							c-0.2,0.2-0.5,0.4-0.8,0.7c0.2,0.5,0,1-0.5,1.5c-0.4-0.6,0-1.1,0.5-1.5c-0.1-0.2-0.2-0.4-0.5-0.6c0.2-0.1,0.5-0.3,0.5-0.3
							c-0.1-0.3-0.3-0.7-0.5-1c-0.2,0.9-0.3,1.9-0.4,2.8c-0.8,6.2-0.2,12,0.8,18.5c0.5,3.5,1.1,6.9,1.8,10.3
							c0.7,3.4,2.1,6.3,3.6,9.2c1.5,2.9,3,5.8,4.1,9.4c0.5,1.3,1.6,3,2.9,4.4c0.6,0.7,1.3,1.4,1.9,2c0.6,0.6,1.2,1.2,1.7,1.6
							c1.8,0.7,3.1-0.1,3.9-1c0.8-0.9,1.3-2,1.3-2.2c0.5-2,0.2-2.8-0.4-3.8c-0.3-0.5-0.7-1-1-1.6c-0.3-0.7-0.7-1.5-0.9-2.5
							c0.4,1.4-0.4,1.4-1.2,0.6c-0.8-0.8-1.6-2.4-1.4-4.2c0.5-2.5-0.5-4.3-1.8-6.2c-1.2-1.8-2.8-3.7-3.2-5.8
							c-0.2-1.1-0.8-2.1-1.2-3.3c-0.6-3.3-1.6-6.3-2.5-9.4c-0.9-3.1-1.7-6.3-1.7-9.8c-0.1-0.9-0.3-1.8-0.6-2.6
							c-0.3-0.8-0.6-1.6-0.9-2.4c-0.1-1.2,0.4-2.4,0.5-3.3c0.1-0.7,0-1.4-0.1-2.1c-0.1-0.7-0.2-1.3-0.3-2c0,0.7,0,1.3,0.1,1.9
							c0.1,0.6,0.1,1.3,0.1,2c0,1-1.2-0.8-1.4-1.5c-0.2-0.3,0.9-0.7,0.7-1c0.1-0.6-0.3-1.3-0.5-2c-0.2-0.3,0.8-0.2,0.7-0.3
							c-0.1-0.9-1.2-1.9-0.8-2.4c0.2-0.4,0.5-0.8,0.7-1.2c0.1-0.2,0.2-0.5,0.2-0.7c0-0.2-0.1-0.4-0.1-0.6c-0.3,0.1-0.7,0-1,0
							c0.1-0.2,0.4-0.5,0.5-0.8c-0.1,0.2-0.4,0.5-0.5,0.8c0.4,0,0.7,0.1,1,0c-0.3-1.3-0.5-2.9-0.5-4.3c0,0-0.1,0-0.1,0
							c-0.1,0.8-0.4,1.5-1.2,2.2c0.3-0.3,0.5-0.2,0.5,0.2l-0.5,0.2c-0.1-0.8-0.2-1.5,0.6-2c0,0-0.1-0.3-0.2-0.5
							c0.2-0.2,0.5-0.1,0.7-0.1c0-0.2,0-0.3,0.1-0.5C167.9,315.5,167,316.4,167,316.4z"/>
						<path class="st3" d="M165.3,324.5c0-0.1,0-0.2,0-0.4c-0.1,0.5-0.2,1-0.3,1.5C165.5,325.4,165.4,325,165.3,324.5z"/>
					</g>
				</g>
			</g>
		</g>
	</g>
</g>
<g>
	<g>
		<g>
			<g>
				<g class="st2">
					<g>
						<path class="st3" d="M184.8,338.2l-0.3,0.5c0.1-0.1,0.2-0.1,0.4-0.1C185.1,338.6,185,338.4,184.8,338.2z"/>
						<path class="st3" d="M184.2,339.2L184.2,339.2l0,0.2C184.2,339.4,184.2,339.3,184.2,339.2z"/>
						<path class="st3" d="M184,340.3c0.1-0.1,0.2-0.3,0.2-0.5C184.1,339.9,184,340,184,340.3z"/>
						<path class="st3" d="M184.6,339.6c-0.2,0-0.3,0-0.4-0.2l0,0c0,0.1,0,0.2,0,0.3C184.3,339.7,184.4,339.6,184.6,339.6z"/>
						<path class="st3" d="M184.6,339.6c0.2,0,0.3,0,0.4,0C184.8,339.6,184.7,339.6,184.6,339.6z"/>
						<path class="st3" d="M187.6,341.2c0.1,0.1-0.8-0.3-0.7,0c0.1,0.5,0.3,1,0.2,1.4c0.1,0.3-1,0.1-0.8,0.4c0.1,0.5,0.9,2,1.1,1.4
							c0.2-1,0.2-1.7,0.4-2.6c-0.1-0.8-0.2-1.7-0.1-2.5c0.1-0.2,0.2-0.4,0.4-0.5c-0.3,0.2-0.5,0.3-0.8,0.6
							C186.7,339.6,187.6,340.6,187.6,341.2z"/>
						<path class="st3" d="M187.5,334.7c0,0.1,0.1,0.4,0.1,0.4c-0.8,0-0.9,0.6-0.9,1.1l0.5,0.1c0.1-0.3-0.1-0.4-0.4-0.3
							c0.8-0.2,1.1-0.6,1.3-1.1C187.9,334.8,187.7,334.6,187.5,334.7z"/>
						<path class="st3" d="M188.3,334.6c0,0.1-0.1,0.2-0.1,0.3l0.1,0C188.3,334.8,188.3,334.7,188.3,334.6L188.3,334.6z"/>
						<path class="st3" d="M184,342.6c-0.4,1.3-0.9,2.5-1.3,3.7c0.2,0.1,0.3,0.3,0.2,0.4c-0.2,0.1-0.3,0.1-0.4,0.2l-0.2,0.5
							c0,0.1,0,0.1,0,0.2l0,0c0.1,0.1,0.2,0.1,0.4,0.1c0.1,0,0.2-0.1,0.4-0.1c-0.1,0-0.2,0.1-0.4,0.1c-0.1,0.1-0.3,0.1-0.3,0.2
							c0,0.2,0,0.4-0.1,0.5c-0.1-0.2,0-0.4,0.1-0.5c0-0.1,0-0.2-0.1-0.3l-0.1-0.1c-0.2,0.4-0.3,0.8-0.4,1.2c0,0.1,0,0.2,0,0.3
							c0.1,0.3,0.1,0.6-0.4,0.7l-0.1,0.2c0,0,0.1,0,0.1,0c0,0-0.1,0-0.1,0.1l-0.3,0.9c0.1,0.2,0.3,0.5,0.4,0.7c0,0-0.3,0.1-0.5,0.1
							c0.2,0.1,0.4,0.3,0.4,0.4c0.3-0.1,0.6-0.2,0.9-0.4c0.5-0.1-0.9-0.6,0.1-0.7c-0.9,0.1,0.4,0.6-0.1,0.7
							c-0.2,0.1-0.5,0.2-0.9,0.4c0.1,0.3-0.1,0.7-0.6,0.9c-0.4-0.4,0.1-0.7,0.6-0.9c-0.1-0.2-0.2-0.3-0.4-0.4c0.2,0,0.5-0.1,0.5-0.1
							c-0.1-0.2-0.3-0.5-0.4-0.7c-0.2,0.6-0.3,1.2-0.5,1.9c-1.1,4.1-0.9,8.1-0.6,12.5c0.1,2.4,0.3,4.8,0.6,7.1
							c0.2,2.4,1.2,4.4,2.1,6.5c0.9,2.1,1.8,4.1,2.3,6.8c0.4,2.1,3.1,4.5,4.4,5.7c1.4,0.3,2.6-0.5,3.5-1.5c0.8-0.9,1.4-1.9,1.4-2
							c0.8-1.7,0.6-2.4,0.3-3c-0.2-0.3-0.4-0.7-0.6-1.1c-0.2-0.5-0.3-1-0.3-1.8c0.1,1-0.5,1.1-1.1,0.6c-0.5-0.5-1-1.6-0.4-3
							c0.9-2,0.4-3.1-0.5-4.3c-0.8-1.1-1.9-2.2-2-3.7c-0.1-0.7-0.4-1.3-0.6-2.1c-0.1-2.2-0.6-4-1.2-6c-0.5-1.9-1-4-0.8-6.2
							c0-1.1-0.8-2.2-1.2-3.3c-0.1-0.8,0.5-1.5,0.6-2.1c0.1-0.9,0-1.8-0.3-2.6c0,0.9,0.1,1.6,0.1,2.6c0,0.7-1.1-0.6-1.3-1.1
							c-0.2-0.2,0.9-0.3,0.7-0.5c0.1-0.4-0.3-0.9-0.4-1.3c-0.2-0.2,0.8,0,0.7-0.1c-0.1-0.6-1.1-1.4-0.8-1.7c0.2-0.3,0.4-0.5,0.7-0.7
							c0.1-0.1,0.2-0.3,0.2-0.5c0-0.1-0.1-0.3-0.1-0.4c-0.3,0-0.7-0.1-1-0.2c0.1-0.1,0.4-0.3,0.5-0.4c-0.1,0.1-0.4,0.3-0.5,0.4
							c0.4,0.1,0.7,0.2,1,0.2c-0.3-0.9-0.5-2-0.5-3l-0.1,0c-0.1,0.5-0.4,1-1.1,1.3c0.3-0.2,0.5,0,0.5,0.2l-0.5,0
							c-0.1-0.5-0.2-1.1,0.6-1.3c0,0-0.1-0.3-0.2-0.4c0.2-0.1,0.5,0,0.7,0.1c0-0.1,0-0.2,0-0.3C184.9,342.2,184,342.6,184,342.6z"/>
						<path class="st3" d="M182.4,347.9c0-0.1,0-0.2,0-0.3c-0.1,0.3-0.2,0.7-0.4,1C182.5,348.6,182.5,348.3,182.4,347.9z"/>
					</g>
				</g>
			</g>
		</g>
	</g>
</g>
<g>
	<g>
		<g>
			<g>
				<g class="st2">
					<g>
						<path class="st3" d="M151.3,337.9l-0.2,0.6c0.1-0.1,0.2-0.2,0.4-0.2C151.6,338.2,151.4,338.1,151.3,337.9z"/>
						<path class="st3" d="M150.8,339.1c0,0,0,0.1,0,0.1c0,0,0,0.1,0.1,0.1C150.9,339.3,150.8,339.2,150.8,339.1z"/>
						<path class="st3" d="M150.8,340.3c0.1-0.2,0.1-0.4,0.1-0.6C150.8,339.9,150.8,340.1,150.8,340.3z"/>
						<path class="st3" d="M151.3,339.5c-0.2,0-0.3,0-0.4-0.1l0,0l0.1,0.4C151,339.6,151.1,339.5,151.3,339.5z"/>
						<path class="st3" d="M151.3,339.5c0.2,0,0.3-0.1,0.4-0.1C151.5,339.4,151.4,339.4,151.3,339.5z"/>
						<path class="st3" d="M154.5,340.5c0.1,0.1-0.8-0.1-0.7,0.1c0.2,0.5,0.5,1,0.5,1.4c0.2,0.2-0.9,0.4-0.7,0.6
							c0.2,0.5,1.4,1.8,1.4,1.1c-0.1-1-0.2-1.7-0.2-2.7c-0.3-0.8-0.5-1.6-0.6-2.5c0-0.2,0.2-0.4,0.3-0.6c-0.2,0.2-0.5,0.4-0.7,0.7
							C153.4,339,154.4,339.8,154.5,340.5z"/>
						<path class="st3" d="M153.7,333.6c0,0.2,0.1,0.5,0.1,0.5c-0.9,0.1-0.9,0.7-0.8,1.3l0.5,0c0.1-0.3-0.2-0.4-0.5-0.3
							c0.8-0.3,1.1-0.8,1.3-1.3C154.2,333.7,153.9,333.5,153.7,333.6z"/>
						<path class="st3" d="M154.5,333.4c0,0.1-0.1,0.2-0.1,0.3l0.1,0C154.5,333.7,154.5,333.5,154.5,333.4L154.5,333.4z"/>
						<path class="st3" d="M151.4,342.8c-0.1,1.5-0.2,2.9-0.2,4.3c0.2,0.1,0.4,0.2,0.3,0.3c-0.2,0.1-0.3,0.2-0.3,0.3l0,0.6
							c0,0.1,0.1,0.1,0.1,0.2l0,0c0.1,0.1,0.3,0.1,0.4,0c0.1-0.1,0.2-0.2,0.3-0.2c-0.1,0-0.2,0.2-0.3,0.2c-0.1,0.1-0.2,0.2-0.2,0.3
							c0.1,0.2,0.1,0.4,0.1,0.6c-0.1-0.2-0.2-0.4-0.1-0.6c-0.1-0.1-0.1-0.2-0.2-0.3l-0.1-0.1l0,1.4c0,0.1,0.1,0.2,0.1,0.3
							c0.2,0.3,0.4,0.6,0,0.9l0,0.2c0,0,0,0,0.1-0.1c0,0,0,0.1-0.1,0.1c0,0.3,0,0.7,0.1,1.1c0.2,0.2,0.5,0.4,0.7,0.5
							c0,0-0.3,0.2-0.4,0.3c0.3,0,0.4,0.1,0.6,0.3c0.2-0.3,0.5-0.5,0.7-0.7c0.4-0.3-1.1-0.3-0.2-0.7c-0.8,0.5,0.7,0.4,0.2,0.7
							c-0.2,0.2-0.4,0.4-0.7,0.7c0.3,0.3,0.2,0.7-0.1,1.2c-0.5-0.3-0.2-0.8,0.1-1.2c-0.1-0.1-0.3-0.2-0.6-0.3
							c0.1-0.1,0.4-0.3,0.4-0.3c-0.2-0.2-0.5-0.4-0.7-0.5c0.1,0.7,0.1,1.4,0.3,2.1c0.3,2.3,1.1,4.4,2,6.5c0.9,2.1,2,4,3.2,6.1
							c1.3,2.3,2.5,4.5,3.7,6.7c2.4,4.4,6.5,6.5,8.4,11.5c0.4,1,1.5,2.1,3,3.1c1.5,1,3.6,1.9,5.2,2.2c1.2-0.1,1.9-0.7,2.3-1.2
							c0.4-0.6,0.5-1.3,0.5-1.9c-0.1-1.3-0.4-2.4-0.4-2.5c-0.6-1.8-0.7-2.3-1.2-2.7c-0.4-0.4-1.2-0.8-1.5-2.4c0.3,1-0.3,1.3-0.9,0.9
							c-0.7-0.4-1.4-1.5-1.3-3c0.5-4.5-4.2-5-5.8-8c-0.4-0.7-1.1-1.2-1.6-2c-1.1-2.2-2.6-3.9-4-5.7c-1.4-1.7-2.9-3.6-3.7-5.7
							c-0.5-1.1-1.7-1.8-2.5-2.7c-0.4-0.7-0.2-1.6-0.3-2.3c-0.1-0.5-0.3-0.9-0.5-1.3c-0.2-0.4-0.5-0.8-0.7-1.2
							c0.1,0.4,0.3,0.8,0.5,1.2c0.2,0.4,0.3,0.8,0.5,1.3c0.2,0.7-1.3-0.2-1.7-0.6c-0.2-0.2,0.7-0.7,0.5-0.8
							c-0.1-0.4-0.6-0.7-0.9-1.2c-0.2-0.2,0.7-0.3,0.6-0.4c-0.3-0.6-1.5-1-1.3-1.4c0.1-0.3,0.2-0.6,0.4-0.9c0.1-0.2,0.1-0.3,0.1-0.5
							c-0.1-0.1-0.2-0.2-0.2-0.4c-0.3,0.1-0.7,0.1-1,0.2c0.1-0.2,0.3-0.4,0.3-0.6c-0.1,0.2-0.3,0.4-0.3,0.6c0.4,0,0.7-0.1,1-0.2
							c-0.5-0.9-1-1.9-1.3-2.9l-0.1,0c0,0.6-0.1,1.1-0.7,1.7c0.2-0.2,0.5-0.2,0.5,0.1l-0.5,0.2c-0.2-0.5-0.5-1.1,0.3-1.5
							c0,0-0.2-0.2-0.3-0.4c0.2-0.1,0.4-0.1,0.7-0.1c0-0.1,0-0.2,0-0.3C152.1,342.1,151.4,342.8,151.4,342.8z"/>
						<path class="st3" d="M151.4,348.9c0-0.1-0.1-0.2-0.1-0.3l0,1.2C151.8,349.5,151.6,349.2,151.4,348.9z"/>
					</g>
				</g>
			</g>
		</g>
	</g>
</g>
<g>
	<g>
		<g>
			<g>
				<g class="st2">
					<g>
						<path class="st3" d="M416.6,340.7c0.1,0.4,0.2,0.9,0.3,1.3c0-0.2,0.1-0.5,0.2-0.7C417.1,341,416.9,340.9,416.6,340.7z"/>
						<path class="st3" d="M417.2,343.2c0,0.1,0,0.2,0.1,0.2c0,0.1,0.1,0.1,0.1,0.2L417.2,343.2z"/>
						<path class="st3" d="M418,345.3c-0.1-0.4-0.2-0.8-0.3-1.1C417.7,344.6,417.8,344.9,418,345.3z"/>
						<path class="st3" d="M417.8,343.5c-0.1,0.2-0.2,0.3-0.4,0.1l0,0c0.1,0.2,0.2,0.4,0.3,0.6C417.7,344,417.7,343.7,417.8,343.5z"
							/>
						<path class="st3" d="M417.8,343.5c0.1-0.2,0.2-0.4,0.2-0.5C417.9,343.2,417.8,343.3,417.8,343.5z"/>
						<path class="st3" d="M421.2,343.2c0.2,0.2-0.8,0.4-0.4,0.8c0.5,1,1.2,1.7,1.5,2.7c0.3,0.4-0.5,1.4-0.2,1.7
							c0.5,1,2.5,3.3,2,1.7c-0.8-2.3-1.4-3.8-2.2-5.8c-0.8-1.6-1.7-3.1-2.5-4.8c-0.2-0.5-0.2-1-0.3-1.4c0,0.6,0,1.3,0.1,2
							C419.1,341.1,420.6,341.8,421.2,343.2z"/>
						<path class="st3" d="M414.7,331.2c0.2,0.2,0.5,0.6,0.5,0.6c-0.4,1.2,0.1,2.1,0.7,3.1c0.1-0.2,0.2-0.4,0.3-0.6
							c-0.2-0.6-0.5-0.6-0.6,0c0.2-1.4,0-2.5-0.4-3.7C415,330.8,414.7,330.8,414.7,331.2z"/>
						<path class="st3" d="M415,330c0.1,0.2,0.2,0.4,0.3,0.7c0,0,0,0,0.1,0C415.2,330.4,415.1,330.2,415,330L415,330z"/>
						<path class="st3" d="M420.2,349.8c0.8,2.9,1.5,5.7,2.1,8.5c0.2,0.2,0.5,0.3,0.4,0.6c-0.1,0.3-0.2,0.5-0.2,0.7
							c0.1,0.4,0.2,0.8,0.2,1.2c0.1,0.1,0.1,0.3,0.2,0.4l0,0c0.2,0.2,0.3,0.1,0.4-0.1c0.1-0.2,0.1-0.3,0.2-0.5
							c-0.1,0.1-0.1,0.3-0.2,0.5c-0.1,0.2-0.1,0.4-0.1,0.7c0.1,0.3,0.3,0.7,0.3,1.1c-0.2-0.4-0.3-0.8-0.3-1.1
							c-0.1-0.2-0.2-0.4-0.3-0.6c0-0.1-0.1-0.1-0.1-0.2c0.2,0.9,0.4,1.8,0.5,2.7c0.1,0.2,0.1,0.4,0.2,0.5c0.3,0.6,0.6,1.2,0.2,1.8
							c0,0.2,0.1,0.3,0.1,0.5c0,0,0-0.1,0.1-0.1c0,0.1,0,0.1,0,0.2c0.1,0.7,0.2,1.4,0.3,2.1c0.3,0.4,0.6,0.8,0.8,1.2
							c0,0-0.2,0.4-0.4,0.6c0.3,0.1,0.5,0.4,0.6,0.7c0.2-0.4,0.4-0.8,0.6-1.2c0.4-0.6-1.2-0.8-0.4-1.6c-0.8,0.7,0.8,1,0.4,1.6
							c-0.1,0.4-0.4,0.8-0.6,1.2c0.3,0.6,0.3,1.5,0,2.3c-0.6-0.8-0.3-1.5,0-2.3c-0.1-0.3-0.4-0.5-0.6-0.7c0.1-0.2,0.4-0.6,0.4-0.6
							c-0.2-0.4-0.6-0.8-0.8-1.2c0.2,1.4,0.4,2.7,0.6,4.1c1.2,9,2.5,17.3,2.4,26.7c-0.1,5.1-0.7,9.9-1.8,14.5
							c-1.1,4.6-1.8,8.9-3.1,13.2c-1.2,4.2-3,8.4-6,11.9c-0.5,0.7-1.2,1.5-1.7,2.5c-0.3,0.5-0.6,1-0.9,1.5c-0.3,0.5-0.6,1-0.9,1.5
							c-0.3,0.5-0.6,1-0.9,1.5c-0.3,0.5-0.6,1-0.9,1.4c-0.6,0.9-1.1,1.8-1.6,2.4c-0.7,2.2,0,3.6,1,4.4c1,0.8,2.2,1,2.4,0.9
							c1.1,0,2-0.2,2.8-0.6c0.4-0.2,0.7-0.4,1-0.7c0.3-0.3,0.6-0.6,0.9-0.9c0.6-0.7,1.2-1.4,2-2.3c0.7-0.9,1.7-1.9,2.9-3
							c-1.7,1.6-1.7,0.6-0.9-1.1c0.4-0.8,1-1.8,1.7-2.8c0.7-1,1.6-1.9,2.6-2.6c1.5-1,2.5-2.4,3.4-3.9c0.9-1.6,1.4-3.4,1.9-5.2
							c0.4-1.9,0.8-3.8,1.1-5.7c0.2-1,0.4-1.9,0.6-2.8c0.2-0.9,0.4-1.8,0.7-2.7c0.3-0.9,0.4-1.8,0.6-2.8c0.1-1,0.3-2,0.4-3.1
							c1.2-5.6,1.3-11.2,0.9-16.7c-0.4-5.6-1.3-11-2-16.8c-0.5-3.1-1.8-5.6-2.8-8c-0.5-1.8-0.5-3.9-0.8-5.4
							c-0.5-2.3-1.3-4.3-2.2-6.1c0.7,2.1,1.3,3.6,2,6c0.4,1.6-1.5-0.9-2-1.8c-0.3-0.4,0.6-1.4,0.2-1.8c-0.2-1-0.9-1.8-1.4-2.8
							c-0.3-0.4,0.6-0.6,0.5-0.8c-0.6-1.4-2-2.2-2-3.2c0-0.7,0-1.4-0.1-2c0-0.4-0.1-0.8-0.2-1.2c-0.1-0.2-0.3-0.5-0.4-0.7
							c-0.2,0.3-0.6,0.4-0.9,0.6c0-0.4,0-1,0-1.4c0,0.4,0,1,0,1.4c0.3-0.2,0.7-0.3,0.9-0.6c-1-1.7-2.1-3.7-3-5.6l-0.1,0
							c0.4,1.1,0.6,2.3,0.4,3.7c0.1-0.6,0.3-0.6,0.6,0l-0.3,0.6c-0.5-1-1.1-1.9-0.7-3.1c0,0-0.3-0.4-0.5-0.6c0-0.4,0.3-0.4,0.6-0.6
							c-0.1-0.2-0.2-0.4-0.3-0.7C420.3,348.1,420.2,349.8,420.2,349.8z"/>
						<path class="st3" d="M423.2,361.8c-0.1-0.2-0.1-0.3-0.2-0.5c0.1,0.8,0.3,1.5,0.4,2.3C423.8,363,423.5,362.4,423.2,361.8z"/>
					</g>
				</g>
			</g>
		</g>
	</g>
</g>
<g>
	<g>
		<g>
			<g>
				<g class="st2">
					<g>
						<path class="st3" d="M440.6,396l0,0.7c0.1-0.1,0.1-0.3,0.3-0.4C441,396.1,440.8,396.1,440.6,396z"/>
						<path class="st3" d="M440.7,397.4c0,0,0,0.1,0,0.1l0.1,0.1C440.8,397.5,440.7,397.4,440.7,397.4z"/>
						<path class="st3" d="M441.1,398.6c0-0.2,0-0.4-0.1-0.6C440.9,398.1,441,398.3,441.1,398.6z"/>
						<path class="st3" d="M441.2,397.6c-0.1,0.1-0.3,0.1-0.4,0l0,0c0.1,0.1,0.1,0.2,0.2,0.4C441,397.8,441.1,397.7,441.2,397.6z"/>
						<path class="st3" d="M441.2,397.6c0.1-0.1,0.2-0.2,0.3-0.3C441.4,397.4,441.3,397.5,441.2,397.6z"/>
						<path class="st3" d="M444.6,397.5c0.1,0.1-0.8,0.2-0.6,0.4c0.4,0.6,0.8,1.1,0.9,1.7c0.2,0.3-0.8,0.7-0.6,1
							c0.3,0.6,1.7,2.1,1.6,1.2c-0.2-1.4-0.5-2.3-0.8-3.6c-0.5-1-1.1-1.9-1.6-2.9c-0.1-0.3,0-0.6,0-0.8c-0.1,0.4-0.2,0.8-0.3,1.2
							C443,396.2,444.3,396.7,444.6,397.5z"/>
						<path class="st3" d="M440.3,390.6c0.1,0.1,0.4,0.3,0.4,0.3c-0.6,0.7-0.2,1.2,0.2,1.8l0.4-0.4c-0.1-0.3-0.4-0.3-0.5,0
							c0.4-0.8,0.4-1.5,0.2-2.1C440.6,390.3,440.4,390.4,440.3,390.6z"/>
						<path class="st3" d="M440.7,389.9c0.1,0.1,0.1,0.2,0.2,0.4l0.1,0C440.9,390.1,440.8,390,440.7,389.9L440.7,389.9z"/>
						<path class="st3" d="M442.2,401.2c0.1,0.8,0.1,1.7,0.1,2.5c0,0.8-0.1,1.6-0.1,2.4c0.2,0.1,0.4,0.2,0.3,0.4
							c-0.2,0.1-0.3,0.2-0.3,0.4l-0.1,0.7c0,0.1,0,0.2,0.1,0.2l0,0c0.1,0.1,0.3,0.1,0.4,0c0.1-0.1,0.2-0.2,0.4-0.2
							c-0.1,0-0.2,0.2-0.4,0.2c-0.1,0.1-0.2,0.2-0.3,0.4c0,0.2,0.1,0.4,0,0.7c-0.1-0.3-0.1-0.5,0-0.7c0-0.1-0.1-0.3-0.1-0.4
							l-0.1-0.1c0,0.5-0.1,1-0.2,1.5c0,0.1,0,0.2,0.1,0.3c0.1,0.4,0.2,0.8-0.3,1l-0.1,0.3c0,0,0.1,0,0.1,0c0,0-0.1,0.1-0.1,0.1
							c-0.1,0.4-0.1,0.8-0.2,1.2c0.2,0.3,0.4,0.6,0.5,0.8c0,0-0.3,0.1-0.5,0.2c0.2,0.1,0.4,0.3,0.4,0.5c0.3-0.2,0.7-0.3,0.9-0.5
							c0.5-0.2-0.9-0.7,0-0.9c-0.9,0.2,0.5,0.7,0,0.9c-0.2,0.2-0.6,0.3-0.9,0.5c0.1,0.4-0.1,0.8-0.6,1.2c-0.3-0.5,0.1-0.9,0.6-1.2
							c-0.1-0.2-0.2-0.4-0.4-0.5c0.2-0.1,0.5-0.2,0.5-0.2c-0.1-0.3-0.3-0.6-0.5-0.8c-0.1,0.8-0.3,1.5-0.5,2.3
							c-0.4,1.2-0.6,2.4-0.9,3.6c-0.3,1.2-0.6,2.4-0.9,3.5c-0.4,1.2-0.8,2.3-1.1,3.5c-0.4,1.2-0.9,2.3-1.4,3.5
							c-0.6,1.3-1.3,2.5-2,3.6c-0.4,0.6-0.7,1.1-1.1,1.7c-0.4,0.5-0.8,1.1-1.2,1.6c-0.8,1-1.5,2.1-2.2,3.1c-0.7,1-1.3,2.1-2,3.1
							c-0.7,1-1.5,1.9-2.4,2.8c-1,0.8-2,1.6-3.3,2.2c-0.9,0.5-1.9,1.4-2.8,2.4c-0.4,0.5-0.9,1-1.3,1.5c-0.4,0.5-0.8,0.9-1.1,1.2
							c-0.7,2.9,2.9,5.1,3.2,5.2c1.8,0.7,2.6,0.5,3.5-0.1c0.4-0.3,0.9-0.6,1.5-1c0.6-0.4,1.2-0.7,2.2-1.1c-1.3,0.5-1.4-0.2-0.8-1.1
							c0.3-0.4,0.8-0.9,1.4-1.2c0.6-0.4,1.3-0.7,2.1-0.7c1.2-0.1,2.2-0.5,3-1.2c0.8-0.6,1.4-1.5,2-2.5c1.2-1.9,1.8-4.1,3.3-5.7
							c0.8-0.8,1.1-1.9,1.7-3c0.5-0.7,1-1.3,1.4-2c0.4-0.7,0.7-1.4,1.1-2.2c0.3-0.7,0.6-1.5,0.9-2.2c0.3-0.8,0.5-1.5,0.7-2.3
							c0.2-0.8,0.4-1.5,0.6-2.3c0.2-0.8,0.3-1.6,0.5-2.4c0.4-1.6,0.8-3.2,1.2-4.9c0.2-0.9,0.1-1.8,0-2.6c-0.1-0.9-0.4-1.7-0.5-2.5
							c0-1.1,0.7-2.2,0.7-3.1c0.1-1.4-0.1-2.6-0.5-3.8c0.1,1.3,0.3,2.3,0.3,3.7c0,1-1.2-0.8-1.4-1.4c-0.2-0.3,0.9-0.6,0.7-0.9
							c0-0.6-0.3-1.2-0.6-1.8c-0.2-0.3,0.8-0.2,0.7-0.3c-0.2-0.9-1.4-1.6-1.2-2.1c0.1-0.4,0.3-0.8,0.5-1.1c0.1-0.2,0.1-0.5,0.1-0.7
							c-0.1-0.2-0.2-0.3-0.2-0.5c-0.3,0.1-0.7,0.2-1,0.2c0-0.2,0.3-0.5,0.3-0.8c0,0.2-0.3,0.5-0.3,0.8c0.4,0,0.7-0.1,1-0.2
							c-0.6-1.1-1.2-2.4-1.7-3.5l-0.1,0c0.1,0.7,0.1,1.4-0.5,2.1c0.2-0.3,0.5-0.3,0.5,0.1l-0.5,0.3c-0.3-0.6-0.6-1.2,0.1-1.8
							c0,0-0.2-0.2-0.3-0.4c0.1-0.2,0.4-0.2,0.7-0.3c0-0.1-0.1-0.3-0.1-0.4C442.7,400.3,442.2,401.2,442.2,401.2z"/>
						<path class="st3" d="M442.2,408.1c0-0.1,0-0.2-0.1-0.3c0,0.4-0.1,0.9-0.2,1.3C442.4,408.9,442.3,408.5,442.2,408.1z"/>
					</g>
				</g>
			</g>
		</g>
	</g>
</g>
<g>
	<g>
		<g>
			<g>
				<g class="st2">
					<g>
						<path class="st3" d="M405.6,407.4l0.1,0.5c0-0.1,0.1-0.2,0.3-0.3C406,407.5,405.8,407.5,405.6,407.4z"/>
						<path class="st3" d="M405.7,408.4L405.7,408.4l0.1,0.2C405.8,408.5,405.8,408.5,405.7,408.4z"/>
						<path class="st3" d="M406.2,409.3c0-0.2-0.1-0.3-0.2-0.4C406,409,406,409.1,406.2,409.3z"/>
						<path class="st3" d="M406.2,408.5c-0.1,0.1-0.3,0.2-0.4,0.1l0,0c0.1,0.1,0.1,0.2,0.2,0.2C406.1,408.7,406.1,408.6,406.2,408.5
							z"/>
						<path class="st3" d="M406.2,408.5c0.1-0.1,0.2-0.2,0.3-0.3C406.4,408.3,406.3,408.4,406.2,408.5z"/>
						<path class="st3" d="M409.6,407.9c0.1,0.1-0.8,0.3-0.5,0.4c0.4,0.4,0.9,0.6,1,1c0.3,0.1-0.7,0.7-0.5,0.8
							c0.4,0.4,1.9,1.2,1.7,0.6c-0.4-1-0.8-1.6-1.2-2.4c-0.6-0.6-1.2-1.2-1.7-1.8c-0.1-0.2-0.1-0.4-0.1-0.6
							c-0.1,0.3-0.1,0.6-0.2,0.9C407.9,407.2,409.2,407.3,409.6,407.9z"/>
						<path class="st3" d="M405,403.5c0.1,0.1,0.4,0.2,0.4,0.2c-0.5,0.6-0.2,0.9,0.2,1.3l0.4-0.3c-0.1-0.2-0.4-0.2-0.5,0.1
							c0.4-0.7,0.4-1.2,0.1-1.6C405.4,403.2,405.1,403.3,405,403.5z"/>
						<path class="st3" d="M405.4,402.9c0.1,0.1,0.1,0.2,0.2,0.3l0.1,0C405.6,403,405.5,402.9,405.4,402.9L405.4,402.9z"/>
						<path class="st3" d="M407.5,411c0.3,1.2,0.5,2.4,0.6,3.5c0.2,0.1,0.4,0.1,0.3,0.2c-0.1,0.1-0.2,0.2-0.3,0.3l0,0.5
							c0,0.1,0.1,0.1,0.1,0.2l0,0c0.1,0.1,0.3,0,0.4-0.1c0.1-0.1,0.2-0.2,0.3-0.2c-0.1,0-0.2,0.2-0.3,0.2c-0.1,0.1-0.2,0.2-0.2,0.3
							c0.1,0.1,0.1,0.3,0.1,0.5c-0.1-0.2-0.2-0.3-0.1-0.5c-0.1-0.1-0.1-0.2-0.2-0.3l-0.1-0.1c0,0.4,0,0.8,0.1,1.1
							c0,0.1,0.1,0.2,0.1,0.2c0.2,0.2,0.3,0.5-0.1,0.7l0,0.2c0,0,0,0,0.1-0.1c0,0-0.1,0.1-0.1,0.1l0,0.9c0.2,0.2,0.5,0.3,0.6,0.5
							c0,0-0.3,0.2-0.4,0.3c0.2,0,0.4,0.1,0.5,0.3c0.3-0.2,0.6-0.4,0.7-0.5c0.5-0.3-1-0.3-0.2-0.7c-0.9,0.4,0.6,0.4,0.2,0.7
							c-0.2,0.2-0.5,0.3-0.7,0.5c0.2,0.2,0.1,0.6-0.3,1c-0.4-0.3-0.1-0.6,0.3-1c-0.1-0.1-0.3-0.2-0.5-0.3c0.1-0.1,0.4-0.3,0.4-0.3
							c-0.2-0.2-0.4-0.3-0.6-0.5c0,0.6,0,1.1,0,1.7c-0.1,3.8,0.3,7.1-0.1,11c-0.1,1-0.3,2.1-0.5,3c-0.2,1-0.5,2-0.8,2.9
							c-0.6,1.9-0.7,3.7-1,5.5c-0.2,0.9-0.4,1.8-0.7,2.7c-0.4,0.9-0.9,1.8-1.6,2.6c-1.1,1.3-1.1,4-1.3,5.4c1.2,2.2,5.4,2.2,5.6,2.1
							c1.8-0.2,2.3-0.7,2.7-1.3c0.4-0.7,0.6-1.5,1.8-2.6c-1.5,1.5-2-1.6,0.6-2.9c2-0.9,2.4-2.4,2.4-4c0-1.6-0.4-3.2,0.2-4.7
							c0.3-0.7,0.1-1.5,0.3-2.4c1.4-4.7-0.2-9-0.4-13.9c-0.1-1.3-1.1-2.3-1.8-3.3c-0.3-0.8,0.1-1.7,0-2.3c-0.2-1-0.6-1.8-1.2-2.6
							c0.3,0.9,0.7,1.5,1,2.5c0.2,0.7-1.3-0.3-1.6-0.7c-0.2-0.2,0.8-0.6,0.5-0.8c-0.1-0.4-0.6-0.7-0.9-1.1c-0.2-0.2,0.7-0.3,0.6-0.4
							c-0.3-0.6-1.6-0.8-1.5-1.2c0.1-0.3,0.2-0.6,0.3-0.9c0-0.2,0-0.3,0-0.5l-0.3-0.3c-0.3,0.1-0.6,0.3-1,0.4c0-0.2,0.2-0.4,0.2-0.6
							c0,0.2-0.2,0.4-0.2,0.6c0.3-0.1,0.7-0.2,1-0.4c-0.7-0.7-1.4-1.5-2-2.2l-0.1,0c0.2,0.5,0.2,1-0.2,1.6c0.2-0.3,0.4-0.3,0.5-0.1
							l-0.4,0.3c-0.4-0.4-0.7-0.7-0.1-1.3c0,0-0.3-0.1-0.4-0.2c0.1-0.2,0.4-0.2,0.6-0.3c0-0.1-0.1-0.2-0.1-0.3
							C408,410.2,407.5,411,407.5,411z"/>
						<path class="st3" d="M408.5,416c0-0.1-0.1-0.1-0.1-0.2c0,0.3,0,0.6,0,1C408.9,416.5,408.7,416.2,408.5,416z"/>
					</g>
				</g>
			</g>
		</g>
	</g>
</g>
<g>
	<g>
		<g>
			<g>
				<g class="st2">
					<g>
						<path class="st3" d="M402.4,430.5l0.1,0.3c0-0.1,0.1-0.2,0.2-0.3C402.8,430.4,402.6,430.5,402.4,430.5z"/>
						<path class="st3" d="M402.6,431L402.6,431l0.1,0C402.6,431.1,402.6,431.1,402.6,431z"/>
						<path class="st3" d="M403,431.3c0-0.1-0.1-0.2-0.2-0.2C402.8,431.2,402.9,431.3,403,431.3z"/>
						<path class="st3" d="M403,430.9c-0.1,0.1-0.2,0.2-0.3,0.2l0,0c0.1,0,0.1,0,0.2,0.1C402.9,431.1,402.9,431,403,430.9z"/>
						<path class="st3" d="M403,430.9c0.1-0.1,0.2-0.2,0.3-0.3C403.2,430.7,403.1,430.8,403,430.9z"/>
						<path class="st3" d="M406,429.3c0.1,0-0.7,0.5-0.5,0.5c0.4,0.1,0.9,0.1,1,0.3c0.2,0-0.6,0.7-0.4,0.7c0.4,0.1,1.8,0.2,1.6-0.1
							c-0.4-0.5-0.8-0.8-1.2-1.2c-0.6-0.2-1.2-0.4-1.7-0.6c-0.1-0.1-0.1-0.2-0.1-0.4c0,0.2-0.1,0.4-0.1,0.7
							C404.5,429.5,405.7,429.1,406,429.3z"/>
						<path class="st3" d="M401.6,428.5c0.1,0,0.3-0.1,0.3-0.1c-0.4,0.6-0.1,0.6,0.3,0.7l0.3-0.4c-0.1-0.1-0.4,0.1-0.4,0.3
							c0.3-0.6,0.2-0.9,0-1C401.9,428.1,401.7,428.3,401.6,428.5z"/>
						<path class="st3" d="M402,427.9c0.1,0,0.1,0.1,0.2,0.1l0.1-0.1C402.1,427.9,402,427.9,402,427.9L402,427.9z"/>
						<path class="st3" d="M404.3,431.9c0.2,0.3,0.3,0.6,0.4,0.9c0.1,0.3,0.2,0.6,0.2,0.9c0.2,0,0.4-0.1,0.3,0
							c-0.1,0.1-0.2,0.2-0.3,0.3l0,0.3c0,0,0.1,0,0.1,0.1l0,0c0.1,0,0.3,0,0.4-0.1c0.1-0.1,0.2-0.1,0.3-0.2c-0.1,0-0.2,0.1-0.3,0.2
							c-0.1,0.1-0.2,0.2-0.2,0.2c0.1,0.1,0.1,0.1,0.1,0.2c-0.1-0.1-0.2-0.1-0.1-0.2c-0.1,0-0.1-0.1-0.2-0.1l-0.1,0
							c0,0.2,0,0.4,0,0.6c0,0,0.1,0.1,0.1,0.1c0.2,0.1,0.3,0.2-0.1,0.4l0,0.1c0,0,0,0,0.1,0c0,0-0.1,0-0.1,0.1l0,0.5
							c0.2,0.1,0.5,0.1,0.6,0.2c0,0-0.3,0.1-0.4,0.2c0.2,0,0.4,0,0.5,0.1c0.3-0.1,0.6-0.3,0.7-0.4c0.5-0.2-1,0-0.1-0.4
							c-0.9,0.3,0.6,0.1,0.1,0.4c-0.2,0.1-0.5,0.3-0.7,0.4c0.2,0.1,0.1,0.3-0.4,0.6c-0.4-0.1-0.1-0.3,0.4-0.6
							c-0.1-0.1-0.3-0.1-0.5-0.1c0.1-0.1,0.4-0.2,0.4-0.2c-0.2-0.1-0.4-0.1-0.6-0.2c0,0.3,0,0.6-0.1,1c-0.2,2,0,3.8-0.6,5.8
							c-0.2,0.5-0.4,1-0.7,1.5c-0.1,0.2-0.3,0.5-0.4,0.7c-0.2,0.2-0.4,0.4-0.6,0.6c-0.7,0.8-1,1.6-1.4,2.4c-0.2,0.4-0.5,0.7-0.9,1
							c-0.4,0.3-1,0.5-1.7,0.5c-1,0.1-1.3,1.2-1.6,1.7c0.4,0.8,1.3,1.9,2.3,2.7c0.9,0.9,1.8,1.5,1.9,1.5c1.5,0.9,2.1,0.9,2.5,0.7
							c0.2-0.1,0.4-0.3,0.7-0.4c0.3-0.1,0.7-0.3,1.4-0.3c-0.8,0.1-1.1-0.4-1-0.8c0.2-0.4,0.8-0.8,2.1-0.7c2,0.2,2.7-0.6,2.9-1.7
							c0.3-1,0.1-2.2,0.9-3c0.4-0.4,0.3-1,0.6-1.5c0.2-0.3,0.4-0.7,0.6-1.1c0.1-0.4,0.2-0.7,0.3-1.1c0.1-0.4,0.1-0.8,0.2-1.1
							c0-0.4,0-0.8,0-1.2c0-0.8-0.1-1.5-0.2-2.3c-0.1-0.8-0.1-1.6-0.2-2.4c-0.1-0.9-1.1-1.5-1.7-2.1c-0.3-0.5,0.1-1.1,0-1.5
							c-0.2-0.6-0.7-1.1-1.2-1.5c0.3,0.5,0.7,0.9,1,1.5c0.2,0.4-1.3,0-1.6-0.2c-0.2-0.1,0.7-0.5,0.5-0.6c-0.1-0.3-0.6-0.4-0.9-0.6
							c-0.2,0,0.7-0.3,0.6-0.4c-0.3-0.3-1.6-0.2-1.4-0.5c0.1-0.2,0.2-0.4,0.2-0.6c0-0.1,0-0.2-0.1-0.3l-0.3-0.1
							c-0.3,0.2-0.6,0.3-0.9,0.5c0-0.1,0.2-0.3,0.2-0.4c0,0.1-0.2,0.3-0.2,0.4c0.3-0.2,0.7-0.3,0.9-0.5c-0.7-0.2-1.4-0.5-2-0.8
							l-0.1,0c0.2,0.2,0.3,0.5-0.1,1c0.1-0.2,0.4-0.3,0.5-0.2l-0.4,0.3c-0.4-0.1-0.7-0.2-0.2-0.7c0,0-0.2,0-0.4,0
							c0.1-0.1,0.4-0.3,0.6-0.4c0,0-0.1-0.1-0.1-0.1C404.7,431.3,404.3,431.9,404.3,431.9z"/>
						<path class="st3" d="M405.3,434.5c0,0-0.1-0.1-0.1-0.1c0,0.2,0,0.4,0,0.5C405.7,434.7,405.5,434.6,405.3,434.5z"/>
					</g>
				</g>
			</g>
		</g>
	</g>
</g>
<g>
	<g>
		<g>
			<g>
				<g class="st2">
					<g>
						<path class="st3" d="M117.5,349.5l-0.5,0.9c0.1-0.1,0.3-0.2,0.5-0.3C117.7,350,117.6,349.8,117.5,349.5z"/>
						<path class="st3" d="M116.6,351.3c0,0.1-0.1,0.1-0.1,0.2c0,0.1,0,0.1,0,0.2C116.5,351.6,116.6,351.5,116.6,351.3z"/>
						<path class="st3" d="M116.1,353.1c0.2-0.3,0.3-0.6,0.3-0.9C116.3,352.5,116.1,352.7,116.1,353.1z"/>
						<path class="st3" d="M116.9,351.9c-0.2,0-0.3,0-0.4-0.2l0,0c0,0.2-0.1,0.4-0.1,0.6C116.6,352.1,116.7,352,116.9,351.9z"/>
						<path class="st3" d="M116.9,351.9c0.2,0,0.4-0.2,0.4-0.2C117.2,351.7,117,351.8,116.9,351.9z"/>
						<path class="st3" d="M119.8,353.6c0,0.2-0.8-0.2-0.8,0.2c-0.1,0.9,0.1,1.7-0.2,2.4c0.1,0.4-1.1,0.5-1,0.9
							c-0.1,0.9,0.5,3.3,0.8,2.1c0.5-1.8,0.7-3,1.1-4.6c0.2-1.4,0.2-2.8,0.5-4.2c0.1-0.4,0.3-0.7,0.6-1c-0.3,0.4-0.7,0.8-1,1.2
							C119.3,351.2,120,352.5,119.8,353.6z"/>
						<path class="st3" d="M121.5,343c0,0.2,0,0.6,0,0.6c-1,0.4-1.2,1.2-1.3,2.1l0.6-0.1c0.2-0.5,0-0.6-0.4-0.3
							c1-0.6,1.5-1.3,1.9-2.2C122,343,121.8,342.8,121.5,343z"/>
						<path class="st3" d="M122.5,342.5c-0.1,0.2-0.1,0.4-0.2,0.5l0.1,0C122.4,342.9,122.5,342.7,122.5,342.5L122.5,342.5z"/>
						<path class="st3" d="M115.5,357c-0.4,1.1-0.8,2.2-1.1,3.3c-0.4,1.1-0.7,2.1-1.1,3.2c0.1,0.2,0.3,0.4,0.2,0.6
							c-0.2,0.1-0.3,0.3-0.5,0.4l-0.3,0.9c0,0.1,0,0.2,0,0.3l0,0c0.1,0.2,0.2,0.2,0.4,0.1c0.1-0.1,0.3-0.2,0.4-0.2
							c-0.1,0-0.3,0.2-0.4,0.2c-0.2,0.1-0.3,0.3-0.4,0.4c0,0.3,0,0.6-0.2,0.9c0-0.4,0-0.7,0.2-0.9c0-0.2,0-0.4,0-0.6
							c0-0.1,0-0.1,0-0.2c-0.2,0.7-0.4,1.4-0.6,2.1c0,0.2,0,0.3,0,0.5c0,0.5,0,1.1-0.5,1.3c0,0.1-0.1,0.3-0.1,0.4c0,0,0.1,0,0.1-0.1
							c0,0.1-0.1,0.1-0.1,0.1c-0.1,0.5-0.3,1.1-0.4,1.6c0.1,0.4,0.3,0.8,0.3,1.2c0,0-0.4,0.2-0.5,0.3c0.2,0.2,0.3,0.4,0.4,0.7
							c0.3-0.3,0.7-0.5,0.9-0.7c0.5-0.3-0.8-1,0.2-1.3c-1,0.3,0.4,1-0.2,1.3c-0.2,0.2-0.6,0.4-0.9,0.7c0.1,0.5-0.2,1.2-0.7,1.7
							c-0.3-0.7,0.2-1.3,0.7-1.7c0-0.3-0.2-0.5-0.4-0.7c0.2-0.1,0.5-0.3,0.5-0.3c-0.1-0.4-0.2-0.8-0.3-1.2c-0.3,1.1-0.5,2.1-0.7,3.3
							c-1.5,7.2-1.5,14-0.8,21.7c0.3,4.2,0.8,8.2,1.5,12.1c0.7,4,2.2,7.5,3.8,11c1.6,3.5,3.3,6.9,4.8,11c0.3,0.8,0.8,1.6,1.4,2.5
							c0.6,0.9,1.3,1.8,2.1,2.6c0.4,0.4,0.8,0.9,1.1,1.3c0.4,0.4,0.8,0.8,1.2,1.1c0.8,0.7,1.4,1.4,2,1.9c2.1,0.9,3.4,0.1,4.2-0.9
							c0.8-1,1.1-2.1,1.2-2.3c0.4-2.1-0.1-3-0.9-4.1c-0.4-0.5-0.8-1.1-1.3-1.8c-0.4-0.7-0.9-1.7-1.2-2.8c0.6,1.5-0.2,1.5-1.2,0.5
							c-0.5-0.5-0.9-1.2-1.3-2c-0.4-0.8-0.5-1.8-0.5-2.7c0.3-2.7-0.8-4.9-2.2-7.1c-1.3-2.2-3-4.5-3.4-7c-0.3-1.2-0.8-2.5-1.2-3.9
							c-0.6-3.9-1.5-7.5-2.2-11.2c-0.7-3.7-1.2-7.6-1-11.8c0-1.1-0.1-2.1-0.3-3.1c-0.2-1-0.4-2-0.6-3c0-1.4,0.7-2.8,0.9-3.9
							c0.2-0.9,0.2-1.7,0.2-2.5c0-0.8,0-1.6,0-2.3c-0.1,0.8-0.1,1.5-0.2,2.3c0,0.7-0.1,1.5-0.1,2.4c-0.2,1.2-1.1-1-1.2-1.9
							c-0.2-0.4,1-0.7,0.9-1.1c0.2-0.7-0.1-1.5-0.2-2.4c-0.1-0.4,0.8-0.1,0.7-0.3c0.1-1.1-0.9-2.3-0.5-2.9c0.3-0.5,0.6-0.9,0.8-1.3
							c0.1-0.3,0.3-0.5,0.3-0.9c0-0.2,0-0.4-0.1-0.7c-0.3,0.1-0.7,0-1,0c0.1-0.3,0.5-0.6,0.6-0.9c-0.2,0.3-0.5,0.6-0.6,0.9
							c0.4,0.1,0.7,0.1,1,0c-0.1-1.6,0-3.4,0.2-5c0,0-0.1,0-0.1,0c-0.3,0.9-0.6,1.7-1.5,2.5c0.3-0.3,0.6-0.2,0.5,0.3l-0.6,0.2
							c0-0.9,0-1.8,0.9-2.3c0,0-0.1-0.4-0.1-0.6c0.2-0.2,0.5-0.1,0.8,0c0-0.2,0.1-0.4,0.1-0.5C116.5,356.1,115.5,357,115.5,357z"/>
						<path class="st3" d="M112.7,366.4c0-0.1,0-0.3,0-0.5c-0.2,0.6-0.4,1.2-0.5,1.8C112.7,367.4,112.7,366.9,112.7,366.4z"/>
					</g>
				</g>
			</g>
		</g>
	</g>
</g>
<g>
	<g>
		<g>
			<g>
				<g class="st2">
					<g>
						<path class="st3" d="M99.7,397.1l-0.1,0.6c0.1-0.1,0.2-0.2,0.4-0.3C100.1,397.2,99.9,397.2,99.7,397.1z"/>
						<path class="st3" d="M99.6,398.2c0,0,0,0.1,0,0.1l0.1,0.1C99.7,398.3,99.7,398.2,99.6,398.2z"/>
						<path class="st3" d="M99.9,399.2c0-0.2,0-0.3-0.1-0.5C99.8,398.8,99.8,399,99.9,399.2z"/>
						<path class="st3" d="M100.1,398.4c-0.1,0.1-0.3,0.1-0.4,0l0,0c0,0.1,0.1,0.2,0.1,0.3C99.9,398.6,100,398.5,100.1,398.4z"/>
						<path class="st3" d="M100.1,398.4c0.1-0.1,0.3-0.2,0.3-0.2C100.3,398.2,100.2,398.3,100.1,398.4z"/>
						<path class="st3" d="M103.5,398.5c0.1,0.1-0.9,0.1-0.6,0.3c0.3,0.4,0.7,0.7,0.8,1.1c0.2,0.2-0.8,0.5-0.6,0.7
							c0.3,0.4,1.7,1.3,1.6,0.7c-0.3-0.9-0.6-1.5-0.8-2.3c-0.4-0.7-0.9-1.3-1.2-2.1c0-0.2,0-0.4,0.1-0.6c-0.2,0.2-0.3,0.5-0.5,0.8
							C102.1,397.5,103.3,398,103.5,398.5z"/>
						<path class="st3" d="M100.7,392.9c0.1,0.1,0.3,0.3,0.3,0.3c-0.7,0.3-0.6,0.8-0.3,1.3l0.5-0.2c0-0.3-0.3-0.3-0.5-0.1
							c0.6-0.5,0.8-0.9,0.8-1.5C101.1,392.8,100.8,392.8,100.7,392.9z"/>
						<path class="st3" d="M101.3,392.5c0,0.1,0,0.2,0,0.3l0.1,0C101.4,392.7,101.4,392.6,101.3,392.5L101.3,392.5z"/>
						<path class="st3" d="M101,401.2c0.2,1.3,0.3,2.5,0.5,3.7c0.2,0.1,0.4,0.1,0.3,0.2c-0.1,0.1-0.2,0.2-0.3,0.3l0.1,0.5
							c0,0.1,0.1,0.1,0.1,0.2l0,0c0.1,0.1,0.3,0,0.4-0.1c0.1-0.1,0.2-0.2,0.3-0.3c-0.1,0.1-0.2,0.2-0.3,0.3
							c-0.1,0.1-0.2,0.2-0.2,0.3c0.1,0.1,0.2,0.3,0.2,0.5c-0.2-0.2-0.2-0.3-0.2-0.5l-0.2-0.3l-0.1-0.1c0,0.4,0.1,0.8,0.2,1.2
							c0,0.1,0.1,0.2,0.1,0.2c0.2,0.2,0.4,0.5,0,0.8l0,0.2c0,0,0,0,0.1-0.1c0,0,0,0.1-0.1,0.1l0.2,0.9c0.2,0.1,0.5,0.3,0.7,0.4
							c0,0-0.3,0.2-0.4,0.3c0.3,0,0.4,0.1,0.6,0.2c0.2-0.2,0.5-0.5,0.6-0.7c0.4-0.3-1.1-0.1-0.3-0.6c-0.8,0.5,0.7,0.3,0.3,0.6
							c-0.1,0.2-0.4,0.4-0.6,0.7c0.3,0.2,0.2,0.6-0.1,1.1c-0.5-0.2-0.2-0.6,0.1-1.1c-0.1-0.1-0.3-0.2-0.6-0.2
							c0.1-0.1,0.4-0.3,0.4-0.3c-0.2-0.1-0.5-0.3-0.7-0.4c0.1,0.6,0.2,1.2,0.4,1.8c0.8,3.9,2.6,7.2,4.5,10.9c1,2,1.9,4,2.8,6
							c1.8,4.1,5.3,6.1,6.4,10.8c0.5,1.8,2.9,3.6,4,4.6c2.6,0.4,4.8-3.3,4.9-3.5c1.6-3.3-0.5-2.7-0.7-6c0.4,2.1-2.5,0.6-1.9-2.2
							c1.1-4.2-3.3-4.6-4.3-7.4c-0.3-0.7-0.8-1.2-1.3-1.8c-0.8-2.1-2-3.6-3.3-5.2c-1.3-1.6-2.5-3.2-3.3-5.2c-0.5-1-1.7-1.6-2.5-2.3
							c-0.4-0.6-0.2-1.5-0.4-2c-0.3-0.8-0.8-1.5-1.4-2.1c0.4,0.8,0.8,1.3,1.2,2.1c0.2,0.6-1.3,0-1.7-0.4c-0.3-0.1,0.7-0.7,0.4-0.8
							c-0.1-0.4-0.6-0.6-1-0.9c-0.3-0.1,0.7-0.3,0.6-0.4c-0.3-0.5-1.6-0.7-1.5-1.1c0.1-0.3,0.2-0.6,0.3-0.8c0-0.2,0-0.3,0-0.5
							l-0.3-0.3c-0.3,0.1-0.6,0.2-1,0.3c0-0.2,0.2-0.4,0.2-0.6c0,0.2-0.2,0.4-0.2,0.6c0.4-0.1,0.7-0.2,1-0.3
							c-0.7-0.7-1.3-1.5-1.8-2.3l-0.1,0c0.1,0.5,0.1,1-0.4,1.6c0.2-0.3,0.4-0.3,0.5,0l-0.4,0.3c-0.3-0.4-0.7-0.8,0-1.3
							c0,0-0.2-0.2-0.3-0.3c0.1-0.2,0.4-0.2,0.7-0.2c0-0.1-0.1-0.2-0.1-0.3C101.5,400.5,101,401.2,101,401.2z"/>
						<path class="st3" d="M101.9,406.4c-0.1-0.1-0.1-0.1-0.1-0.2c0,0.3,0.1,0.7,0.1,1C102.3,406.9,102.1,406.6,101.9,406.4z"/>
					</g>
				</g>
			</g>
		</g>
	</g>
</g>
<g>
	<g>
		<g>
			<g>
				<g class="st2">
					<g>
						<path class="st3" d="M454.8,48.1l0.3,0.7c0-0.1,0-0.3,0.1-0.5C455.3,48.1,455,48.1,454.8,48.1z"/>
						<path class="st3" d="M455.5,49.4c0,0,0,0.1,0.1,0.1c0,0,0.1,0,0.1,0.1C455.6,49.6,455.5,49.5,455.5,49.4z"/>
						<path class="st3" d="M456.4,50.5c-0.1-0.2-0.2-0.4-0.4-0.6C456,50.1,456.1,50.3,456.4,50.5z"/>
						<path class="st3" d="M456,49.5c-0.1,0.1-0.2,0.2-0.4,0.2l0,0c0.1,0.1,0.2,0.2,0.3,0.3C456,49.8,456,49.6,456,49.5z"/>
						<path class="st3" d="M456,49.5c0.1-0.1,0.1-0.3,0.2-0.4C456.1,49.2,456.1,49.3,456,49.5z"/>
						<path class="st3" d="M459.2,48.2c0.2,0.1-0.7,0.5-0.4,0.6c0.6,0.4,1.2,0.8,1.5,1.3c0.3,0.2-0.4,1-0.1,1.2
							c0.5,0.5,2.4,1.5,2,0.6c-0.8-1.3-1.4-2.1-2.2-3.3c-0.9-0.8-1.8-1.5-2.7-2.3c-0.2-0.3-0.3-0.5-0.4-0.8c0.1,0.4,0.1,0.8,0.2,1.3
							C457.1,47.4,458.5,47.4,459.2,48.2z"/>
						<path class="st3" d="M452.2,42.9c0.2,0.1,0.5,0.2,0.5,0.2c-0.2,0.9,0.3,1.3,0.9,1.7l0.2-0.5c-0.3-0.3-0.5-0.2-0.5,0.2
							c0.1-0.9-0.2-1.6-0.7-2.2C452.5,42.5,452.2,42.6,452.2,42.9z"/>
						<path class="st3" d="M452.3,42c0.1,0.1,0.2,0.2,0.3,0.3l0.1-0.1C452.6,42.1,452.5,42,452.3,42L452.3,42z"/>
						<path class="st3" d="M458.4,52.7c0.4,0.8,0.8,1.6,1.1,2.4c0.3,0.8,0.6,1.6,0.8,2.4c0.2,0.1,0.5,0.1,0.4,0.3
							c-0.1,0.2-0.2,0.3-0.2,0.5l0.2,0.7l0.2,0.2l0,0c0.2,0.1,0.3,0,0.4-0.1c0.1-0.1,0.1-0.2,0.2-0.4c-0.1,0.1-0.1,0.2-0.2,0.4
							c-0.1,0.2-0.1,0.3-0.1,0.5c0.1,0.2,0.2,0.4,0.2,0.7c-0.2-0.2-0.3-0.4-0.2-0.7c-0.1-0.1-0.2-0.2-0.3-0.3l-0.1-0.1
							c0.2,0.5,0.3,1.1,0.4,1.6c0.1,0.1,0.1,0.2,0.2,0.3c0.2,0.3,0.5,0.7,0.1,1.1l0.1,0.3c0,0,0-0.1,0.1-0.1c0,0.1,0,0.1-0.1,0.1
							c0.1,0.4,0.2,0.8,0.3,1.2c0.3,0.2,0.6,0.4,0.8,0.7c0,0-0.3,0.3-0.4,0.4c0.3,0,0.5,0.2,0.6,0.3c0.2-0.3,0.5-0.6,0.6-0.8
							c0.4-0.4-1.1-0.4-0.3-0.9c-0.8,0.6,0.7,0.5,0.3,0.9c-0.1,0.2-0.4,0.5-0.6,0.8c0.3,0.3,0.2,0.9-0.1,1.4
							c-0.5-0.4-0.2-0.9,0.1-1.4c-0.1-0.2-0.3-0.3-0.6-0.3c0.1-0.1,0.4-0.4,0.4-0.4c-0.2-0.2-0.5-0.4-0.8-0.7
							c0.2,0.8,0.3,1.6,0.4,2.5c0.2,1.4,0.4,2.7,0.6,4c0.1,1.3,0.3,2.6,0.5,3.9c0.1,1.3,0.2,2.6,0.3,4c0.1,0.7,0.1,1.3,0,2
							c0,0.7,0,1.4-0.1,2.1c0,1.5-0.3,3-0.5,4.5c-0.1,0.7-0.2,1.4-0.4,2.2c-0.2,0.7-0.4,1.4-0.6,2.1c-0.4,1.4-0.6,2.7-0.9,4
							c-0.3,1.3-0.4,2.6-0.8,3.9c-0.4,1.3-0.7,2.6-1.3,3.8c-0.6,1.2-1.4,2.4-2.3,3.5c-0.7,0.9-1.4,2.2-1.8,3.6
							c-0.1,0.3-0.2,0.7-0.4,1c-0.1,0.3-0.3,0.7-0.4,1c-0.2,0.6-0.5,1.2-0.6,1.7c0.3,3.1,4.6,3.7,4.9,3.7c2-0.1,2.7-0.7,3.3-1.5
							c0.3-0.4,0.6-1,1.1-1.5c0.4-0.6,0.9-1.3,1.7-2c-1,1-1.4,0.4-1.1-0.7c0.1-0.5,0.4-1.2,0.9-1.8c0.5-0.6,1-1.2,1.8-1.6
							c1.1-0.6,1.9-1.4,2.5-2.4c0.6-1,0.8-2.1,1-3.3c0.4-2.3,0.2-4.8,1-7c0.4-1.1,0.3-2.3,0.5-3.7c0.2-0.9,0.4-1.7,0.6-2.6
							c0.1-0.9,0.2-1.7,0.2-2.6c0-0.9,0-1.7,0-2.6c-0.1-0.9-0.1-1.7-0.2-2.6c-0.1-0.9-0.2-1.7-0.3-2.6c-0.1-0.9-0.3-1.7-0.4-2.6
							c-0.1-0.9-0.3-1.7-0.4-2.6c-0.1-0.9-0.3-1.8-0.4-2.7c-0.2-1-0.6-1.8-1-2.6c-0.5-0.8-1-1.5-1.4-2.3c-0.5-1.1-0.3-2.5-0.5-3.4
							c-0.5-1.5-1.2-2.6-2-3.6c0.6,1.3,1.1,2.2,1.7,3.6c0.4,1-1.4-0.4-1.9-0.9c-0.3-0.2,0.6-1,0.3-1.2c-0.2-0.6-0.8-1-1.2-1.6
							c-0.3-0.2,0.6-0.5,0.5-0.6c-0.5-0.8-2-1-1.9-1.7c0-0.5,0-0.9,0-1.3c0-0.3-0.1-0.5-0.2-0.7c-0.1-0.1-0.3-0.2-0.4-0.4
							c-0.2,0.2-0.5,0.4-0.9,0.6c0-0.2,0-0.6,0-0.9c0.1,0.2,0,0.6,0,0.9c0.3-0.2,0.6-0.4,0.9-0.6c-1-0.9-2.1-1.9-3-2.9l-0.1,0.1
							c0.4,0.6,0.6,1.3,0.4,2.3c0.1-0.4,0.3-0.5,0.5-0.1l-0.3,0.5c-0.5-0.5-1-1-0.7-1.8c0,0-0.3-0.2-0.5-0.2c0-0.2,0.3-0.4,0.5-0.5
							c-0.1-0.1-0.2-0.2-0.3-0.4C458.6,51.6,458.4,52.7,458.4,52.7z"/>
						<path class="st3" d="M461.3,59.7c-0.1-0.1-0.1-0.2-0.2-0.3c0.1,0.4,0.2,0.9,0.3,1.4C461.8,60.4,461.5,60,461.3,59.7z"/>
					</g>
				</g>
			</g>
		</g>
	</g>
</g>
<g>
	<g>
		<g>
			<g>
				<g class="st2">
					<g>
						<path class="st3" d="M444.6,78.8l0.1,0.4c0-0.1,0.1-0.2,0.2-0.3C445,78.8,444.8,78.8,444.6,78.8z"/>
						<path class="st3" d="M444.9,79.6L444.9,79.6l0.1,0.1C444.9,79.6,444.9,79.6,444.9,79.6z"/>
						<path class="st3" d="M445.4,80.1c0-0.1-0.1-0.2-0.2-0.3C445.2,79.9,445.2,80,445.4,80.1z"/>
						<path class="st3" d="M445.4,79.5c-0.1,0.1-0.2,0.2-0.4,0.2l0,0c0.1,0,0.1,0.1,0.2,0.1C445.2,79.7,445.3,79.6,445.4,79.5z"/>
						<path class="st3" d="M445.4,79.5c0.1-0.1,0.2-0.2,0.3-0.3C445.5,79.3,445.4,79.4,445.4,79.5z"/>
						<path class="st3" d="M448.5,78.3c0.1,0-0.8,0.4-0.5,0.4c0.4,0.2,0.9,0.3,1,0.6c0.3,0-0.6,0.7-0.4,0.7c0.4,0.2,1.9,0.5,1.6,0
							c-0.4-0.6-0.9-1-1.3-1.5c-0.6-0.3-1.2-0.6-1.8-1c-0.1-0.1-0.1-0.3-0.1-0.4c-0.1,0.2-0.1,0.5-0.1,0.7
							C446.9,78.1,448.1,77.9,448.5,78.3z"/>
						<path class="st3" d="M443.9,75.9c0.1,0,0.4,0.1,0.4,0.1c-0.5,0.6-0.1,0.8,0.3,0.9l0.4-0.3c-0.1-0.1-0.4-0.1-0.5,0.2
							c0.4-0.6,0.3-1,0.1-1.3C444.3,75.6,444,75.7,443.9,75.9z"/>
						<path class="st3" d="M444.3,75.3c0.1,0.1,0.1,0.1,0.2,0.2l0.1,0C444.5,75.4,444.4,75.3,444.3,75.3L444.3,75.3z"/>
						<path class="st3" d="M446.8,81.1c0.4,0.8,0.7,1.7,1,2.5c0.2,0,0.4-0.1,0.3,0.1c-0.1,0.1-0.2,0.2-0.2,0.3l0.1,0.4
							c0,0,0.1,0.1,0.1,0.1l0,0c0.1,0,0.3-0.1,0.4-0.2c0.1-0.1,0.2-0.2,0.3-0.3c-0.1,0.1-0.2,0.2-0.3,0.3c-0.1,0.1-0.2,0.2-0.2,0.3
							c0.1,0.1,0.2,0.2,0.2,0.3c-0.2-0.1-0.2-0.2-0.2-0.3c-0.1-0.1-0.1-0.1-0.2-0.1l-0.1,0l0.2,0.8c0,0.1,0.1,0.1,0.1,0.1
							c0.2,0.1,0.4,0.3,0,0.6l0,0.2c0,0,0,0,0.1-0.1c0,0,0,0.1-0.1,0.1l0.1,0.6c0.2,0.1,0.5,0.1,0.7,0.2c0,0-0.3,0.2-0.4,0.3
							c0.2,0,0.4,0,0.5,0c0.2-0.2,0.5-0.4,0.6-0.6c0.4-0.3-1,0.1-0.2-0.4c-0.8,0.5,0.6,0.1,0.2,0.4c-0.1,0.2-0.4,0.4-0.6,0.6
							c0.2,0.1,0.2,0.4-0.2,0.8c-0.5-0.1-0.2-0.4,0.2-0.8c-0.1-0.1-0.3-0.1-0.5,0c0.1-0.1,0.4-0.3,0.4-0.3c-0.2-0.1-0.4-0.1-0.7-0.2
							c0.1,0.4,0.2,0.8,0.3,1.3c0.5,2.8,1.5,5.2,2.1,8c0.3,1.6,0.4,3.1,0.3,4.6c-0.1,1.5,0.2,2.6,0.3,3.8c0.1,1.1-0.2,2.3-1.5,2.9
							c-0.9,0.4-0.6,0.9-0.7,1.2c0.5,0.6,1.5,1.7,2.4,2.6c0.9,0.9,1.8,1.5,1.9,1.5c0.8,0.4,1.4,0.6,1.8,0.6c0.4,0,0.7-0.2,1-0.4
							c0.6-0.5,1-1.2,2.3-2.1c-0.9,0.7-1.3,0.1-1.2-0.5c0.1-0.7,0.6-1.6,1.8-2.3c1.9-1,2.1-2.6,1.8-4c-0.3-1.4-1.1-2.7-1-4
							c0.1-0.7-0.3-1.3-0.4-2c0-1-0.2-2-0.4-2.7c-0.3-0.8-0.6-1.5-1-2.3c-0.8-1.5-1.7-2.9-2.2-4.6c-0.4-0.9-1.5-1.3-2.2-1.9
							c-0.4-0.5-0.2-1.2-0.3-1.7c-0.3-0.7-0.8-1.1-1.5-1.5c0.4,0.6,0.9,0.9,1.3,1.6c0.2,0.4-1.3,0.1-1.6-0.1c-0.3,0,0.6-0.7,0.4-0.7
							c-0.1-0.3-0.6-0.4-1-0.6c-0.3,0,0.6-0.4,0.5-0.4c-0.4-0.3-1.6-0.2-1.5-0.5c0-0.3,0.1-0.5,0.2-0.7c0-0.1,0-0.3-0.1-0.4
							l-0.3-0.1c-0.2,0.2-0.6,0.3-0.9,0.5c0-0.1,0.1-0.4,0.1-0.5c0,0.1-0.1,0.4-0.1,0.5c0.3-0.2,0.6-0.3,0.9-0.5
							c-0.8-0.3-1.5-0.7-2.1-1.2l-0.1,0c0.2,0.3,0.3,0.7-0.1,1.3c0.1-0.2,0.4-0.3,0.5-0.2l-0.4,0.3c-0.4-0.2-0.8-0.4-0.3-1
							c0,0-0.3,0-0.4-0.1c0.1-0.1,0.4-0.3,0.6-0.4c0-0.1-0.1-0.1-0.2-0.2C447.1,80.4,446.8,81.1,446.8,81.1z"/>
						<path class="st3" d="M448.3,84.6c0,0-0.1-0.1-0.1-0.1l0.2,0.7C448.7,84.9,448.5,84.7,448.3,84.6z"/>
					</g>
				</g>
			</g>
		</g>
	</g>
</g>
<g>
	<g>
		<g>
			<g>
				<g class="st2">
					<g>
						<path class="st3" d="M479.1,222.4l0,0.6c0.1-0.1,0.2-0.2,0.3-0.3C479.5,222.5,479.3,222.5,479.1,222.4z"/>
						<path class="st3" d="M479,223.5c0,0,0,0.1,0,0.1l0.1,0.1C479.1,223.6,479,223.6,479,223.5z"/>
						<path class="st3" d="M479.3,224.5c0-0.2,0-0.4-0.1-0.5C479.2,224.2,479.2,224.3,479.3,224.5z"/>
						<path class="st3" d="M479.5,223.7c-0.1,0.1-0.3,0.1-0.4,0l0,0c0,0.1,0.1,0.2,0.1,0.3C479.3,223.9,479.4,223.8,479.5,223.7z"/>
						<path class="st3" d="M479.5,223.7c0.1-0.1,0.3-0.2,0.3-0.2C479.7,223.6,479.6,223.6,479.5,223.7z"/>
						<path class="st3" d="M482.9,223.9c0.1,0.1-0.9,0.1-0.6,0.3c0.3,0.5,0.7,0.9,0.7,1.4c0.2,0.2-0.8,0.6-0.6,0.8
							c0.3,0.5,1.6,1.7,1.5,1c-0.2-1.1-0.4-1.8-0.6-2.8c-0.4-0.8-0.9-1.6-1.3-2.4c-0.1-0.2,0-0.4,0.1-0.7c-0.1,0.3-0.3,0.6-0.4,0.9
							C481.4,222.7,482.7,223.2,482.9,223.9z"/>
						<path class="st3" d="M479.4,218c0.1,0.1,0.3,0.3,0.3,0.3c-0.7,0.5-0.4,1-0.1,1.4l0.5-0.2c-0.1-0.3-0.3-0.3-0.5,0
							c0.5-0.6,0.6-1.1,0.5-1.7C479.8,217.8,479.5,217.8,479.4,218z"/>
						<path class="st3" d="M480,217.5c0,0.1,0.1,0.2,0.1,0.3l0.1,0C480.1,217.7,480.1,217.6,480,217.5L480,217.5z"/>
						<path class="st3" d="M480.2,226.7c0.1,1.4,0,2.7-0.1,3.9c0.2,0.1,0.4,0.2,0.3,0.3c-0.2,0.1-0.3,0.2-0.3,0.3l-0.1,0.5
							c0,0.1,0,0.1,0.1,0.2l0,0c0.1,0.1,0.3,0.1,0.4,0c0.1-0.1,0.2-0.1,0.4-0.2c-0.1,0-0.2,0.1-0.4,0.2c-0.1,0.1-0.2,0.2-0.3,0.3
							c0.1,0.2,0.1,0.3,0,0.5c-0.1-0.2-0.1-0.4,0-0.5c0-0.1-0.1-0.2-0.1-0.3l-0.1-0.1c0,0.4-0.1,0.8-0.2,1.3c0,0.1,0,0.2,0.1,0.3
							c0.1,0.3,0.2,0.6-0.2,0.8l0,0.2c0,0,0.1,0,0.1,0c0,0-0.1,0.1-0.1,0.1l-0.2,0.9c0.2,0.2,0.4,0.4,0.5,0.6c0,0-0.3,0.1-0.5,0.2
							c0.2,0.1,0.4,0.2,0.5,0.4c0.3-0.2,0.6-0.3,0.8-0.4c0.5-0.2-0.9-0.5,0-0.7c-0.9,0.2,0.5,0.5,0,0.7c-0.2,0.1-0.5,0.3-0.8,0.4
							c0.2,0.3,0,0.7-0.5,1c-0.4-0.4,0-0.7,0.5-1c-0.1-0.1-0.2-0.3-0.5-0.4c0.2-0.1,0.5-0.2,0.5-0.2c-0.1-0.2-0.3-0.4-0.5-0.6
							c-0.1,0.6-0.2,1.2-0.3,1.9c-0.8,4.1-1,7.8-2,12c-0.6,2.2-1.3,4.3-2.3,6.2c-1,1.9-1.4,3.7-2.2,5.5c-0.7,1.7-1.8,3.4-3.7,4.3
							c-1.4,0.8-2.5,3.1-3.3,4.1c0,1.2,0.9,2.4,1.8,3.2c0.9,0.9,1.9,1.4,2,1.4c1.7,0.7,2.5,0.5,3.2,0c0.7-0.5,1.3-1.3,3-1.9
							c-1.1,0.5-1.3-0.1-0.9-0.9c0.4-0.8,1.3-1.7,2.9-2c2.3-0.4,3.3-2,3.8-3.8c0.5-1.8,0.6-3.7,1.5-5.3c0.4-0.8,0.5-1.7,0.8-2.7
							c1.2-2.5,1.5-5,1.6-7.5c0.1-2.5,0-5,0.4-7.6c0.1-1.4-0.7-2.7-1.1-3.9c-0.1-0.9,0.4-1.8,0.4-2.4c0-1.1-0.3-2-0.7-3
							c0.1,1,0.4,1.8,0.5,2.9c0,0.7-1.2-0.6-1.5-1.1c-0.2-0.2,0.9-0.5,0.7-0.7c0-0.5-0.4-0.9-0.7-1.4c-0.2-0.2,0.7-0.2,0.6-0.3
							c-0.2-0.7-1.4-1.2-1.2-1.6c0.1-0.3,0.3-0.6,0.4-0.9c0.1-0.2,0.1-0.4,0.1-0.6c-0.1-0.1-0.2-0.2-0.2-0.4c-0.3,0.1-0.7,0.1-1,0.2
							c0.1-0.2,0.3-0.4,0.3-0.6c-0.1,0.2-0.3,0.4-0.3,0.6c0.4,0,0.7-0.1,1-0.2c-0.6-0.9-1.1-1.9-1.5-2.8l-0.1,0
							c0.1,0.5,0,1.1-0.6,1.7c0.2-0.2,0.5-0.2,0.5,0.1l-0.5,0.2c-0.3-0.5-0.5-1,0.1-1.4c0,0-0.2-0.2-0.3-0.3
							c0.1-0.2,0.4-0.2,0.7-0.2c0-0.1,0-0.2-0.1-0.3C480.8,226,480.2,226.7,480.2,226.7z"/>
						<path class="st3" d="M480.2,232.3c0-0.1-0.1-0.2-0.1-0.3l-0.2,1.1C480.4,232.9,480.3,232.6,480.2,232.3z"/>
					</g>
				</g>
			</g>
		</g>
	</g>
</g>
<g>
	<g>
		<g>
			<g>
				<g class="st2">
					<g>
						<path class="st3" d="M486.5,245l-0.1,0.4c0.1-0.1,0.2-0.1,0.3-0.2C486.9,245.1,486.7,245,486.5,245z"/>
						<path class="st3" d="M486.4,245.7L486.4,245.7l0.1,0.1C486.5,245.8,486.4,245.7,486.4,245.7z"/>
						<path class="st3" d="M486.6,246.3c0.1-0.1,0-0.2,0-0.3C486.5,246.1,486.5,246.2,486.6,246.3z"/>
						<path class="st3" d="M486.9,245.8c-0.1,0-0.3,0-0.4,0l0,0c0,0.1,0.1,0.1,0.1,0.2C486.7,245.9,486.8,245.9,486.9,245.8z"/>
						<path class="st3" d="M486.9,245.8c0.1,0,0.3-0.1,0.3-0.1C487.1,245.7,487,245.8,486.9,245.8z"/>
						<path class="st3" d="M490.3,246.1c0.1,0.1-0.9,0-0.6,0.2c0.3,0.3,0.7,0.6,0.6,0.9c0.2,0.2-0.9,0.3-0.7,0.4
							c0.2,0.3,1.4,1.3,1.4,0.8c-0.1-0.8-0.3-1.3-0.4-2c-0.4-0.6-0.8-1.1-1.1-1.6c0-0.2,0-0.3,0.1-0.4c-0.2,0.2-0.3,0.4-0.5,0.6
							C488.8,245.3,490.1,245.7,490.3,246.1z"/>
						<path class="st3" d="M487,242.3c0.1,0.1,0.3,0.2,0.3,0.2c-0.7,0.3-0.4,0.6-0.1,0.9l0.5-0.2c-0.1-0.2-0.3-0.2-0.5,0
							c0.6-0.4,0.6-0.7,0.5-1.1C487.5,242.2,487.2,242.2,487,242.3z"/>
						<path class="st3" d="M487.6,242c0,0.1,0.1,0.1,0.1,0.2l0.1,0C487.8,242.1,487.7,242,487.6,242L487.6,242z"/>
						<path class="st3" d="M487.4,247.7c0,0.4-0.1,0.8-0.1,1.2c-0.1,0.4-0.2,0.8-0.3,1.2c0.2,0.1,0.4,0.2,0.3,0.2
							c-0.2,0-0.3,0.1-0.4,0.1l-0.1,0.3c0,0,0,0.1,0.1,0.1l0,0c0.1,0.1,0.2,0.1,0.4,0.1c0.1,0,0.2,0,0.4-0.1c-0.1,0-0.2,0-0.4,0.1
							c-0.1,0-0.2,0.1-0.3,0.1c0,0.1,0,0.2,0,0.3c-0.1-0.1-0.1-0.3,0-0.3c0-0.1-0.1-0.1-0.1-0.2l-0.1-0.1c-0.1,0.3-0.2,0.5-0.3,0.7
							c0,0.1,0,0.1,0,0.2c0.1,0.2,0.2,0.4-0.3,0.4l-0.1,0.1c0,0,0.1,0,0.1,0c0,0-0.1,0-0.1,0l-0.3,0.5c0.1,0.2,0.3,0.4,0.4,0.5
							c0,0-0.3,0-0.5,0c0.2,0.1,0.3,0.2,0.4,0.3c0.3,0,0.6,0,0.9-0.1c0.5,0-0.9-0.5,0.1-0.5c-0.9-0.1,0.5,0.5-0.1,0.5
							c-0.2,0-0.6,0-0.9,0.1c0.1,0.2-0.1,0.4-0.6,0.5c-0.3-0.3,0.1-0.4,0.6-0.5c-0.1-0.1-0.2-0.2-0.4-0.3c0.2,0,0.5,0,0.5,0
							c-0.1-0.2-0.3-0.3-0.4-0.5c-0.2,0.4-0.4,0.7-0.5,1c-1.3,2.2-2,4.4-3.6,6.4c-0.4,0.6-0.9,1-1.5,1.5c-0.5,0.5-1.1,0.9-1.7,1.2
							c-1.1,0.7-1.9,1.6-2.7,2.4c-0.4,0.4-0.9,0.7-1.5,1c-0.6,0.2-1.3,0.4-2.1,0.3c-1.2-0.1-2.1,1.3-2.8,1.8c0,2,2.7,5.1,2.9,5.2
							c1.3,1.2,1.9,1.3,2.4,1.2c0.3-0.1,0.5-0.2,0.9-0.3c0.4-0.1,0.8-0.1,1.5,0c-0.9,0-1-0.6-0.7-1.1c0.3-0.4,1.2-0.7,2.4-0.3
							c1.9,0.7,2.9,0.1,3.5-0.9c0.7-1,1.1-2.2,2.1-2.8c0.6-0.3,0.7-0.9,1.2-1.4c0.4-0.3,0.7-0.6,1-0.9c0.3-0.3,0.6-0.7,0.8-1
							c0.2-0.4,0.5-0.7,0.7-1.1c0.2-0.4,0.3-0.8,0.5-1.2c0.3-0.8,0.6-1.6,0.9-2.5c0.3-0.8,0.6-1.7,1-2.5c0.3-0.9-0.2-2-0.5-2.9
							c0-0.6,0.7-1.1,0.8-1.5c0.2-0.7,0-1.4-0.3-2.1c0,0.7,0.2,1.2,0.1,2c-0.1,0.5-1.1-0.7-1.3-1c-0.2-0.2,0.9-0.2,0.7-0.3
							c0.1-0.3-0.3-0.7-0.5-1c-0.2-0.2,0.8,0,0.7-0.1c-0.1-0.5-1.3-1-1-1.3c0.2-0.2,0.4-0.4,0.5-0.5c0.1-0.1,0.1-0.2,0.1-0.4
							l-0.2-0.3c-0.3,0-0.7,0-1,0c0.1-0.1,0.3-0.2,0.4-0.3c-0.1,0.1-0.3,0.2-0.4,0.3c0.4,0,0.7,0.1,1,0c-0.5-0.7-0.9-1.4-1.3-2
							l-0.1,0c0.1,0.4-0.1,0.7-0.7,1c0.2-0.1,0.5-0.1,0.5,0.1l-0.5,0.1c-0.2-0.3-0.5-0.7,0.2-0.9c0,0-0.2-0.1-0.3-0.2
							c0.1-0.1,0.4-0.1,0.7-0.1c0-0.1,0-0.1-0.1-0.2C488.1,247.3,487.4,247.7,487.4,247.7z"/>
						<path class="st3" d="M486.9,251.1c0-0.1,0-0.1,0-0.2c-0.1,0.2-0.2,0.4-0.3,0.6C487.1,251.6,487,251.4,486.9,251.1z"/>
					</g>
				</g>
			</g>
		</g>
	</g>
</g>
<g>
	<g>
		<g>
			<g>
				<g class="st2">
					<g>
						<path class="st3" d="M461.8,245.4l0.1,0.3c0-0.1,0.1-0.2,0.2-0.3C462.2,245.2,462,245.3,461.8,245.4z"/>
						<path class="st3" d="M462,245.9L462,245.9l0.1,0C462.1,245.9,462.1,245.9,462,245.9z"/>
						<path class="st3" d="M462.5,246.2c0-0.1-0.1-0.1-0.2-0.2C462.3,246.1,462.3,246.1,462.5,246.2z"/>
						<path class="st3" d="M462.5,245.7c-0.1,0.1-0.2,0.2-0.3,0.2h0c0.1,0,0.1,0,0.2,0C462.3,245.9,462.4,245.8,462.5,245.7z"/>
						<path class="st3" d="M462.5,245.7c0.1-0.1,0.2-0.2,0.2-0.3C462.6,245.5,462.5,245.6,462.5,245.7z"/>
						<path class="st3" d="M465.4,244c0.1,0-0.7,0.5-0.5,0.5c0.4,0.1,0.8,0,1,0.2c0.2,0-0.6,0.7-0.3,0.7c0.4,0.1,1.8,0,1.6-0.3
							c-0.4-0.4-0.8-0.6-1.3-1c-0.6-0.1-1.2-0.2-1.7-0.4c-0.1-0.1-0.1-0.2-0.1-0.3c0,0.2-0.1,0.4-0.1,0.6
							C463.8,244.3,465,243.8,465.4,244z"/>
						<path class="st3" d="M461.1,243.4c0.1,0,0.3-0.1,0.3-0.1c-0.4,0.6-0.1,0.6,0.3,0.6l0.3-0.4c-0.1-0.1-0.3,0.1-0.4,0.3
							c0.3-0.6,0.2-0.8,0-1C461.4,243.1,461.1,243.3,461.1,243.4z"/>
						<path class="st3" d="M461.4,242.9c0.1,0,0.1,0,0.2,0.1l0.1-0.1C461.6,242.9,461.5,242.8,461.4,242.9L461.4,242.9z"/>
						<path class="st3" d="M463.8,246.6c0.4,0.5,0.6,1.1,0.8,1.7c0.2,0,0.4-0.1,0.3,0c-0.1,0.1-0.2,0.2-0.2,0.3l0.1,0.3
							c0,0,0.1,0,0.1,0l0,0c0.1,0,0.2-0.1,0.4-0.2c0.1-0.1,0.2-0.2,0.3-0.2c-0.1,0.1-0.2,0.1-0.3,0.2c-0.1,0.1-0.2,0.2-0.2,0.2
							c0.1,0,0.2,0.1,0.1,0.2c-0.1,0-0.2-0.1-0.1-0.2c-0.1,0-0.1,0-0.2-0.1l-0.1,0c0.1,0.2,0.1,0.4,0.1,0.6c0,0,0.1,0.1,0.1,0.1
							c0.2,0.1,0.4,0.2,0,0.4l0,0.1c0,0,0,0,0.1-0.1c0,0,0,0.1-0.1,0.1l0.1,0.5c0.2,0,0.5,0,0.6,0.1c0,0-0.3,0.2-0.4,0.3
							c0.2-0.1,0.4-0.1,0.5,0c0.2-0.2,0.5-0.4,0.7-0.5c0.4-0.3-1,0.2-0.2-0.3c-0.8,0.5,0.6,0,0.2,0.3c-0.2,0.1-0.4,0.3-0.7,0.5
							c0.2,0.1,0.1,0.3-0.3,0.6c-0.4,0-0.1-0.3,0.3-0.6c-0.1,0-0.3,0-0.5,0c0.1-0.1,0.4-0.3,0.4-0.3c-0.2,0-0.4,0-0.6-0.1
							c0.1,0.3,0.1,0.6,0.1,0.9c0.1,2,0.8,3.6,0.7,5.6c0,0.5-0.1,1.1-0.2,1.6c-0.1,0.5-0.3,1-0.5,1.5c-0.4,1-0.4,1.9-0.5,2.7
							c-0.1,0.4-0.2,0.9-0.4,1.3c-0.3,0.4-0.7,0.9-1.3,1.2c-0.9,0.6-0.6,1.8-0.6,2.5c1.4,1.1,5.5,1.5,5.8,1.5c1.8,0,2.2-0.2,2.5-0.6
							c0.3-0.4,0.4-0.8,1.5-1.4c-0.6,0.4-1.2,0.2-1.2-0.2c-0.1-0.4,0.3-1,1.5-1.4c1.9-0.6,2.1-1.5,1.9-2.4c-0.1-0.9-0.7-1.8-0.3-2.7
							c0.2-0.5,0-0.9,0-1.4c0.2-0.7,0.3-1.4,0.2-2.1c-0.1-0.7-0.3-1.3-0.5-2c-0.2-0.6-0.5-1.3-0.8-1.9c-0.3-0.6-0.5-1.3-0.7-2
							c-0.2-0.7-1.3-1.1-2-1.4c-0.3-0.4-0.1-1-0.2-1.3c-0.2-0.5-0.8-0.8-1.3-1.1c0.4,0.4,0.8,0.6,1.1,1.1c0.2,0.3-1.2,0.2-1.6,0.1
							c-0.2,0,0.7-0.6,0.4-0.6c-0.1-0.2-0.6-0.2-0.9-0.3c-0.2,0,0.6-0.4,0.5-0.4c-0.4-0.2-1.6,0.1-1.4-0.2c0.1-0.2,0.1-0.4,0.2-0.6
							c0-0.1,0-0.2-0.1-0.3l-0.3,0c-0.2,0.2-0.5,0.4-0.9,0.6c0-0.1,0.1-0.3,0.1-0.4c0,0.1-0.1,0.3-0.1,0.4c0.3-0.2,0.6-0.4,0.9-0.6
							c-0.7-0.1-1.4-0.3-2-0.5l-0.1,0c0.2,0.2,0.3,0.5-0.1,1c0.1-0.2,0.4-0.3,0.5-0.2l-0.4,0.3c-0.4-0.1-0.7-0.1-0.2-0.7
							c0,0-0.2,0-0.4,0c0.1-0.1,0.3-0.3,0.5-0.4c0,0-0.1-0.1-0.1-0.1C464.1,246,463.8,246.6,463.8,246.6z"/>
						<path class="st3" d="M465,248.9c0,0-0.1,0-0.1-0.1c0,0.2,0.1,0.3,0.1,0.5C465.4,249.1,465.2,249,465,248.9z"/>
					</g>
				</g>
			</g>
		</g>
	</g>
</g>
<g>
	<g>
		<g>
			<g>
				<g class="st2">
					<g>
						<path class="st3" d="M311.1,412.2c-0.2,0.3-0.3,0.5-0.5,0.8c0.1-0.1,0.3-0.2,0.5-0.2C311.3,412.6,311.2,412.5,311.1,412.2z"/>
						<path class="st3" d="M310.2,413.7c0,0-0.1,0.1-0.1,0.1c0,0.1,0,0.1,0,0.2C310.1,413.9,310.1,413.8,310.2,413.7z"/>
						<path class="st3" d="M309.7,415.3c0.2-0.2,0.3-0.5,0.3-0.7C309.8,414.7,309.7,414.9,309.7,415.3z"/>
						<path class="st3" d="M310.5,414.2c-0.2,0-0.3,0-0.4-0.2l0,0c0,0.2-0.1,0.3-0.1,0.5C310.1,414.4,310.3,414.3,310.5,414.2z"/>
						<path class="st3" d="M310.5,414.2c0.2,0,0.3-0.1,0.4-0.1C310.7,414.2,310.6,414.2,310.5,414.2z"/>
						<path class="st3" d="M313.3,416.1c0,0.2-0.8-0.3-0.8,0.1c-0.1,0.7,0.1,1.5-0.2,2.1c0.1,0.4-1.1,0.4-1,0.7
							c0,0.8,0.5,2.9,0.9,1.9c0.4-1.5,0.6-2.5,1-3.9c0.2-1.2,0.2-2.4,0.5-3.6c0.1-0.3,0.3-0.6,0.5-0.8c-0.3,0.3-0.7,0.6-1,0.9
							C312.8,413.9,313.6,415.1,313.3,416.1z"/>
						<path class="st3" d="M315,406.8c0,0.2,0,0.6,0,0.6c-1,0.2-1.2,1-1.3,1.7l0.6,0c0.2-0.4,0-0.6-0.4-0.4c0.9-0.4,1.5-1,1.8-1.8
							C315.4,406.9,315.2,406.7,315,406.8z"/>
						<path class="st3" d="M315.9,406.6c-0.1,0.2-0.1,0.3-0.2,0.4l0.1,0C315.8,406.9,315.9,406.7,315.9,406.6L315.9,406.6z"/>
						<path class="st3" d="M309.2,418.6c-0.7,1.9-1.5,3.7-2.1,5.5c0.1,0.2,0.3,0.4,0.1,0.5c-0.2,0.1-0.3,0.2-0.5,0.3
							c-0.1,0.3-0.2,0.5-0.3,0.8c0,0.1,0,0.2,0,0.3l0,0c0.1,0.2,0.2,0.2,0.4,0.1c0.1-0.1,0.3-0.1,0.4-0.2c-0.1,0-0.3,0.1-0.4,0.2
							c-0.2,0.1-0.3,0.2-0.4,0.4c0,0.3,0,0.5-0.2,0.8c0-0.3,0-0.6,0.2-0.8c0-0.2,0-0.3,0-0.5c0-0.1,0-0.1,0-0.2
							c-0.2,0.6-0.4,1.2-0.6,1.8c0,0.1,0,0.3,0,0.4c0,0.5,0,0.9-0.5,1.1l-0.1,0.3c0,0,0.1,0,0.1,0c0,0-0.1,0.1-0.1,0.1
							c-0.1,0.5-0.3,0.9-0.4,1.4c0.1,0.3,0.3,0.7,0.4,1c0,0-0.4,0.2-0.5,0.2c0.2,0.2,0.3,0.4,0.4,0.6c0.3-0.2,0.7-0.4,0.9-0.6
							c0.5-0.2-0.8-0.9,0.1-1.1c-1,0.2,0.4,0.9-0.1,1.1c-0.2,0.2-0.6,0.4-0.9,0.6c0.1,0.5-0.2,1-0.7,1.4c-0.3-0.6,0.1-1.1,0.7-1.4
							c0-0.2-0.2-0.4-0.4-0.6c0.2-0.1,0.5-0.2,0.5-0.2c-0.1-0.3-0.2-0.7-0.4-1c-0.2,0.9-0.5,1.8-0.7,2.8c-0.8,3.1-1.2,6.1-1.3,9.2
							c-0.2,3.1-0.1,6.2,0.1,9.5c0.2,3.6,0.5,7.1,0.9,10.5c0.4,3.5,1.6,6.6,2.8,9.6c1.2,3.1,2.5,6.1,3.4,9.8c0.2,0.7,0.5,1.5,1,2.3
							c0.5,0.8,1,1.6,1.6,2.4c0.3,0.4,0.6,0.8,0.9,1.1c0.2,0.2,0.3,0.4,0.5,0.5c0.2,0.2,0.4,0.4,0.5,0.6c1,1.1,2.3,2.1,3.3,2.6
							c1.6,0.4,2.8,0,3.3-0.6c0.6-0.6,0.8-1.4,1-2c0.2-1.3,0.1-2.2,0.1-2.3c-0.2-0.7-0.4-1.3-0.5-1.7c-0.1-0.5-0.3-0.8-0.5-1.1
							c-0.1-0.2-0.2-0.4-0.3-0.6c-0.2-0.3-0.3-0.6-0.5-0.9c-0.3-0.7-0.6-1.5-0.7-2.6c0.3,1.4-0.5,1.4-1.2,0.5
							c-0.8-0.9-1.5-2.6-1.1-4.3c0.7-2.5-0.2-4.4-1.3-6.3c-1.1-1.9-2.5-3.9-2.7-6.1c-0.2-1.1-0.6-2.1-0.9-3.4
							c-0.3-3.4-1-6.4-1.6-9.6c-0.6-3.2-1-6.5-0.7-10c0.1-1.8-0.6-3.6-0.9-5.2c0-0.6,0.2-1.2,0.3-1.7c0.2-0.6,0.4-1.1,0.5-1.5
							c0.1-0.7,0.2-1.4,0.2-2.1c0-0.7,0-1.3-0.1-2c-0.2,1.4-0.2,2.4-0.3,4c-0.1,1-1.1-0.9-1.2-1.7c-0.1-0.3,1-0.6,0.9-0.9
							c0.1-0.6-0.1-1.3-0.2-2c-0.1-0.3,0.8-0.1,0.7-0.2c0-1-0.9-2-0.5-2.5c0.3-0.4,0.5-0.8,0.8-1.1c0.1-0.2,0.3-0.4,0.3-0.7
							c0-0.2,0-0.4-0.1-0.6c-0.3,0-0.7,0-1-0.1c0.1-0.2,0.5-0.5,0.6-0.7c-0.1,0.2-0.5,0.5-0.6,0.7c0.4,0.1,0.7,0.1,1,0.1
							c-0.1-1.4,0-2.9,0.1-4.3c0,0-0.1,0-0.1,0c-0.2,0.8-0.6,1.5-1.4,2c0.3-0.3,0.6-0.1,0.5,0.3l-0.6,0.1c0-0.8,0-1.5,0.9-1.9
							c0,0-0.1-0.4-0.1-0.6c0.2-0.2,0.5,0,0.7,0c0-0.1,0.1-0.3,0.1-0.5c-0.3,0.1-0.7,0.3-1,0.5C309.4,418.5,309.2,418.6,309.2,418.6
							z"/>
						<path class="st3" d="M306.4,426.6c0-0.1,0-0.3,0-0.4l-0.5,1.5C306.4,427.5,306.4,427.1,306.4,426.6z"/>
					</g>
				</g>
			</g>
		</g>
	</g>
</g>
<g>
	<g>
		<g>
			<g>
				<g class="st2">
					<g>
						<path class="st3" d="M292.4,440.8l-0.1,0.7c0.1-0.1,0.2-0.2,0.4-0.3C292.8,441,292.6,440.9,292.4,440.8z"/>
						<path class="st3" d="M292.1,442.1c0,0,0,0.1,0,0.1l0.1,0.1C292.2,442.2,292.2,442.2,292.1,442.1z"/>
						<path class="st3" d="M292.3,443.3c0.1-0.2,0.1-0.4,0-0.6C292.2,442.9,292.2,443.1,292.3,443.3z"/>
						<path class="st3" d="M292.6,442.4c-0.2,0.1-0.3,0.1-0.4-0.1l0,0l0.1,0.4C292.3,442.6,292.5,442.5,292.6,442.4z"/>
						<path class="st3" d="M292.6,442.4c0.1-0.1,0.3-0.2,0.4-0.2C292.8,442.3,292.7,442.3,292.6,442.4z"/>
						<path class="st3" d="M295.9,443c0.1,0.1-0.9,0-0.7,0.2c0.2,0.5,0.6,1,0.6,1.5c0.2,0.2-0.9,0.5-0.7,0.8
							c0.2,0.5,1.5,1.8,1.5,1.1c-0.1-1.1-0.4-1.9-0.5-2.9c-0.3-0.9-0.7-1.7-0.9-2.7c0-0.3,0.1-0.5,0.2-0.7c-0.2,0.3-0.4,0.6-0.6,0.9
							C294.6,441.6,295.8,442.3,295.9,443z"/>
						<path class="st3" d="M294,436c0.1,0.1,0.2,0.4,0.2,0.4c-0.8,0.3-0.7,0.9-0.5,1.5l0.5-0.1c0-0.3-0.2-0.4-0.5-0.2
							c0.7-0.5,1-1,1-1.7C294.5,435.9,294.2,435.8,294,436z"/>
						<path class="st3" d="M294.8,435.6c0,0.1,0,0.3,0,0.4l0.1,0C294.8,435.8,294.8,435.7,294.8,435.6L294.8,435.6z"/>
						<path class="st3" d="M293,445.9c0,1.6,0,3,0,4.5c0.2,0.1,0.4,0.2,0.3,0.3c-0.2,0.1-0.3,0.2-0.3,0.4l0,0.6
							c0,0.1,0.1,0.1,0.1,0.2l0,0c0.1,0.1,0.3,0.1,0.4,0c0.1-0.1,0.2-0.2,0.3-0.3c-0.1,0-0.2,0.2-0.3,0.3c-0.1,0.1-0.2,0.2-0.2,0.4
							c0.1,0.2,0.1,0.4,0.1,0.6c-0.1-0.2-0.2-0.4-0.1-0.6c-0.1-0.1-0.1-0.2-0.2-0.3l-0.1-0.1l0,1.4c0,0.1,0.1,0.2,0.1,0.3
							c0.2,0.3,0.4,0.6-0.1,0.9l0,0.3c0,0,0,0,0.1-0.1c0,0,0,0.1-0.1,0.1c0,0.4,0,0.7,0.1,1.1c0.2,0.2,0.5,0.4,0.7,0.6
							c0,0-0.3,0.2-0.4,0.3c0.3,0,0.4,0.2,0.6,0.3c0.2-0.3,0.5-0.5,0.7-0.7c0.4-0.3-1.1-0.3-0.2-0.8c-0.8,0.5,0.6,0.5,0.2,0.8
							c-0.2,0.2-0.4,0.4-0.7,0.7c0.2,0.3,0.2,0.8-0.2,1.2c-0.5-0.3-0.2-0.8,0.2-1.2c-0.1-0.1-0.3-0.2-0.6-0.3
							c0.1-0.1,0.4-0.3,0.4-0.3c-0.2-0.2-0.5-0.4-0.7-0.6c0.1,0.7,0.1,1.4,0.2,2.2c0.5,4.8,2.2,8.9,4,13.6c1,2.5,1.9,5,2.7,7.5
							c1.8,5,5.5,7.9,6.7,13.4c0.1,0.5,0.5,1.2,1.1,2c0.6,0.8,1.8,1.9,3,2.4c1.2,0.6,2.6,0.9,3.7,0.9c1.2,0,2.2-0.3,2.9-0.5
							c0.9-0.8,0.9-1.6,0.8-2.4c-0.2-0.8-0.4-1.7-0.5-2.5c-0.3-1.6-0.4-2.7-0.5-2.7c-0.1-0.1-0.2-0.3-0.4-0.3c-0.2-0.1-0.4,0-0.6,0
							c-0.2,0-0.5,0-0.8-0.2c-0.2-0.2-0.5-0.6-0.4-1.2c-0.1,0.3-0.1,0.6-0.3,0.8c-0.2,0.2-0.4,0.2-0.6,0.1c-0.3-0.1-0.5-0.5-0.7-1
							c-0.1-0.5-0.2-1.3,0-2c0.6-2.2-0.3-3.7-1.4-5c-1.2-1.3-2.6-2.6-3.1-4.2c-0.3-0.8-0.9-1.5-1.3-2.4c-0.8-2.5-2.1-4.6-3.3-6.7
							c-1.3-2.1-2.5-4.3-3.2-6.8c-0.4-1.3-1.6-2.2-2.4-3.2c-0.4-0.8-0.1-1.8-0.3-2.5c-0.2-1.1-0.7-1.9-1.2-2.8c0.3,1,0.7,1.7,1,2.8
							c0.2,0.7-1.3-0.3-1.7-0.7c-0.2-0.2,0.7-0.7,0.5-0.9c-0.1-0.5-0.6-0.8-0.9-1.3c-0.2-0.2,0.7-0.3,0.6-0.4
							c-0.3-0.7-1.6-1.1-1.3-1.6c0.1-0.4,0.2-0.7,0.4-1c0-0.2,0.1-0.4,0-0.6c-0.1-0.1-0.2-0.2-0.3-0.4c-0.3,0.1-0.6,0.2-1,0.2
							c0-0.2,0.2-0.5,0.3-0.7c-0.1,0.2-0.3,0.5-0.3,0.7c0.4,0,0.7-0.1,1-0.2c-0.6-0.9-1.1-2-1.5-3l-0.1,0c0.1,0.6,0,1.2-0.6,1.8
							c0.2-0.3,0.5-0.2,0.5,0.1l-0.5,0.2c-0.3-0.5-0.6-1.1,0.2-1.6c0,0-0.2-0.2-0.3-0.4c0.1-0.2,0.4-0.1,0.7-0.2
							c0-0.1,0-0.2-0.1-0.4C293.7,445.1,293,445.9,293,445.9z"/>
						<path class="st3" d="M293.3,452.2c0-0.1-0.1-0.2-0.1-0.3l0,1.2C293.7,452.9,293.5,452.5,293.3,452.2z"/>
					</g>
				</g>
			</g>
		</g>
	</g>
</g>
<g>
	<g>
		<g>
			<g>
				<g class="st2">
					<g>
						<path class="st3" d="M321.1,451.2l-0.1,0.5c0.1-0.1,0.2-0.1,0.4-0.2C321.5,451.4,321.3,451.3,321.1,451.2z"/>
						<path class="st3" d="M320.8,452.1L320.8,452.1l0,0.2C320.8,452.2,320.8,452.1,320.8,452.1z"/>
						<path class="st3" d="M320.9,452.9c0.1-0.1,0.1-0.3,0-0.4C320.8,452.6,320.8,452.8,320.9,452.9z"/>
						<path class="st3" d="M321.2,452.4c-0.2,0-0.3,0-0.4-0.1l0,0c0,0.1,0.1,0.2,0.1,0.3C321,452.4,321.1,452.4,321.2,452.4z"/>
						<path class="st3" d="M321.2,452.4c0.1,0,0.3-0.1,0.4-0.1C321.5,452.3,321.4,452.3,321.2,452.4z"/>
						<path class="st3" d="M324.5,453.3c0.1,0.1-0.8-0.1-0.7,0.1c0.2,0.4,0.6,0.8,0.5,1.2c0.2,0.2-0.9,0.2-0.7,0.4
							c0.2,0.4,1.3,1.6,1.3,1c0-0.9-0.1-1.4-0.1-2.2c-0.3-0.7-0.6-1.4-0.8-2.1c0-0.2,0.1-0.3,0.2-0.5c-0.2,0.2-0.4,0.4-0.6,0.6
							C323.3,452.1,324.4,452.7,324.5,453.3z"/>
						<path class="st3" d="M322.5,448c0.1,0.1,0.3,0.3,0.3,0.3c-0.8,0.2-0.6,0.6-0.4,1.1l0.5-0.1c0-0.2-0.3-0.3-0.5-0.2
							c0.7-0.3,0.9-0.7,0.9-1.1C322.9,448,322.6,447.9,322.5,448z"/>
						<path class="st3" d="M323.1,447.7c0,0.1,0,0.2,0,0.3l0.1,0C323.2,447.9,323.2,447.8,323.1,447.7L323.1,447.7z"/>
						<path class="st3" d="M321.4,454.8c-0.2,1.1-0.4,2.1-0.7,3c0.2,0.1,0.4,0.2,0.2,0.3c-0.2,0-0.3,0.1-0.4,0.2l-0.1,0.4
							c0,0.1,0,0.1,0.1,0.2l0,0c0.1,0.1,0.2,0.1,0.4,0.1c0.1,0,0.2-0.1,0.4-0.1c-0.1,0-0.2,0.1-0.4,0.1c-0.1,0-0.2,0.1-0.3,0.2
							c0,0.1,0.1,0.3,0,0.4c-0.1-0.2-0.1-0.3,0-0.4c0-0.1-0.1-0.2-0.1-0.3l-0.1-0.1l-0.3,1c0,0.1,0,0.2,0,0.2
							c0.1,0.3,0.2,0.5-0.3,0.6l-0.1,0.2c0,0,0.1,0,0.1,0c0,0-0.1,0-0.1,0.1l-0.2,0.7c0.2,0.2,0.4,0.4,0.5,0.6c0,0-0.3,0.1-0.5,0.1
							c0.2,0.1,0.4,0.2,0.4,0.3c0.3-0.1,0.6-0.2,0.8-0.3c0.5-0.1-0.9-0.5,0-0.6c-0.9,0.1,0.5,0.5,0,0.6c-0.2,0.1-0.5,0.2-0.8,0.3
							c0.1,0.3-0.1,0.5-0.6,0.7c-0.4-0.4,0.1-0.6,0.6-0.7c-0.1-0.1-0.2-0.2-0.4-0.3c0.2,0,0.5-0.1,0.5-0.1c-0.1-0.2-0.3-0.4-0.5-0.6
							c-0.1,0.5-0.3,1-0.4,1.5c-1,3.2-1.2,6.2-1.9,9.6c-0.4,1.8-0.9,3.6-1.5,5.4c-1.2,3.5,0.2,6.7-2.1,10.4
							c-0.4,0.7-0.4,1.7-0.3,2.7c0.1,0.6,0.2,1.4,0.4,2.3c0.2,0.8,0.6,1.5,0.9,2.1c1.5,1.2,3.1,0.4,4.1-0.3c1.1-0.8,1.8-1.5,1.9-1.6
							c1-1.2,1.3-1.6,1.4-2c0.1-0.4,0.1-0.8,1-2c-1.1,1.5-2.3-0.9,0-2.4c3.6-2.1,0.6-4.7,1.5-7.1c0.2-0.6,0.1-1.2,0.2-1.9
							c1.3-3.6,0-7.1,0.6-10.9c0.1-1-0.7-2-1.1-2.9c-0.1-0.7,0.5-1.3,0.5-1.8c0.1-0.8-0.1-1.5-0.4-2.3c0.1,0.8,0.2,1.3,0.3,2.2
							c0,0.6-1.2-0.6-1.4-1c-0.2-0.2,0.9-0.3,0.7-0.5c0.1-0.3-0.3-0.7-0.5-1.1c-0.2-0.2,0.8,0,0.7-0.1c-0.1-0.5-1.3-1.1-1-1.4
							c0.2-0.2,0.4-0.4,0.6-0.6c0.1-0.1,0.1-0.3,0.1-0.4l-0.2-0.3c-0.3,0-0.7,0-1-0.1c0.1-0.1,0.3-0.3,0.4-0.4
							c-0.1,0.1-0.3,0.3-0.4,0.4c0.4,0,0.7,0.1,1,0.1c-0.4-0.8-0.8-1.6-1.1-2.4l-0.1,0c0,0.4-0.2,0.8-0.8,1.2
							c0.2-0.1,0.5-0.1,0.5,0.1l-0.5,0.1c-0.2-0.4-0.4-0.8,0.4-1.1c0,0-0.2-0.2-0.3-0.3c0.2-0.1,0.4,0,0.7,0c0-0.1,0-0.2,0-0.3
							C322.1,454.4,321.4,454.8,321.4,454.8z"/>
						<path class="st3" d="M320.6,459.2c0-0.1,0-0.1,0-0.2l-0.3,0.8C320.8,459.7,320.7,459.4,320.6,459.2z"/>
					</g>
				</g>
			</g>
		</g>
	</g>
</g>
<g>
	<g>
		<g>
			<g>
				<g class="st2">
					<g>
						<path class="st3" d="M164.6,122.1l-0.3,0.6c0.1-0.1,0.3-0.1,0.5-0.2C164.9,122.4,164.7,122.3,164.6,122.1z"/>
						<path class="st3" d="M163.9,123.2c0,0,0,0.1-0.1,0.1l0,0.1C163.9,123.4,163.9,123.3,163.9,123.2z"/>
						<path class="st3" d="M163.6,124.4c0.1-0.2,0.2-0.4,0.2-0.6C163.7,124,163.6,124.1,163.6,124.4z"/>
						<path class="st3" d="M164.3,123.7c-0.2,0-0.3,0-0.4-0.2l0,0c0,0.1,0,0.3,0,0.4C164,123.8,164.1,123.7,164.3,123.7z"/>
						<path class="st3" d="M164.3,123.7c0.2,0,0.3,0,0.4,0C164.5,123.6,164.4,123.6,164.3,123.7z"/>
						<path class="st3" d="M167.2,125.3c0,0.1-0.8-0.3-0.7,0c0,0.6,0.2,1.2,0.1,1.6c0.1,0.3-1,0.2-0.9,0.5c0,0.6,0.8,2.3,1,1.6
							c0.3-1.1,0.3-2,0.6-3c0-0.9,0-1.9,0-2.8c0.1-0.2,0.2-0.4,0.4-0.6c-0.3,0.2-0.5,0.4-0.8,0.7
							C166.5,123.6,167.3,124.6,167.2,125.3z"/>
						<path class="st3" d="M167.5,118c0,0.2,0.1,0.5,0.1,0.5c-0.9,0.1-0.9,0.7-0.9,1.3l0.5,0c0.1-0.3-0.1-0.5-0.4-0.3
							c0.8-0.3,1.2-0.7,1.4-1.3C167.9,118.1,167.7,117.9,167.5,118z"/>
						<path class="st3" d="M168.3,117.8c0,0.1-0.1,0.2-0.1,0.4l0.1,0C168.3,118.1,168.3,118,168.3,117.8L168.3,117.8z"/>
						<path class="st3" d="M163.5,127c-0.3,0.7-0.6,1.4-0.8,2.1c-0.3,0.7-0.5,1.4-0.8,2c0.1,0.2,0.3,0.3,0.2,0.4
							c-0.2,0.1-0.3,0.1-0.4,0.2l-0.2,0.6c0,0.1,0,0.2,0,0.2l0,0c0.1,0.1,0.2,0.2,0.4,0.1c0.1,0,0.3-0.1,0.4-0.1
							c-0.1,0-0.2,0.1-0.4,0.1c-0.1,0.1-0.3,0.1-0.4,0.2c0,0.2,0,0.4-0.1,0.6c0-0.3,0-0.4,0.1-0.6c0-0.1,0-0.2,0-0.4l-0.1-0.1
							c-0.2,0.4-0.4,0.9-0.5,1.3c0,0.1,0,0.2,0,0.3c0,0.4,0.1,0.7-0.4,0.8l-0.1,0.2c0,0,0.1,0,0.1,0c0,0-0.1,0.1-0.1,0.1l-0.4,1
							c0.1,0.3,0.3,0.6,0.3,0.8c0,0-0.3,0.1-0.5,0.1c0.2,0.1,0.3,0.3,0.4,0.5c0.3-0.1,0.7-0.2,0.9-0.3c0.5-0.1-0.8-0.7,0.1-0.8
							c-0.9,0.1,0.4,0.7-0.1,0.8c-0.2,0.1-0.6,0.2-0.9,0.3c0.1,0.4-0.2,0.8-0.7,1c-0.3-0.5,0.1-0.8,0.7-1c0-0.2-0.2-0.3-0.4-0.5
							c0.2,0,0.5-0.1,0.5-0.1c-0.1-0.3-0.2-0.5-0.3-0.8c-0.3,0.7-0.5,1.3-0.7,2c-0.4,1.1-0.8,2.2-1,3.4c-0.2,1.1-0.5,2.3-0.7,3.4
							c-0.3,2.3-0.6,4.6-0.8,7.1c-0.2,1.3-0.3,2.7-0.4,4c-0.1,0.7-0.2,1.3-0.3,2c-0.1,0.7-0.1,1.3-0.2,2c-0.2,1.3-0.2,2.6,0,3.8
							c0.1,1.2,0.3,2.5,0.5,3.7c0.2,1.2,0.4,2.5,0.5,3.8c0.1,1.3,0.1,2.6-0.1,4.1c-0.1,1.1,0.4,2.5,0.9,3.9c0.2,0.7,0.6,1.4,0.9,2
							c0.3,0.6,0.6,1.1,0.8,1.6c2.5,1.8,5.7-1.3,5.8-1.5c1.3-1.4,1.4-2.2,1.2-3c-0.1-0.4-0.2-0.9-0.3-1.4c0-0.6,0-1.3,0.2-2.1
							c-0.2,1.1-0.9,1-1.3,0.2c-0.4-0.8-0.6-2.2,0.3-3.4c0.7-0.9,1-1.7,1-2.6c0-0.8-0.1-1.6-0.4-2.4c-0.6-1.6-1.3-3.2-1.1-4.9
							c0.1-0.8-0.1-1.7-0.2-2.6c0.1-0.6,0.1-1.3,0.2-1.9c0.1-0.6,0.1-1.2,0.1-1.8c0-0.6,0-1.2-0.1-1.8c0-0.6,0-1.2-0.1-1.8
							c0-0.6-0.1-1.2-0.1-1.8c0-0.6,0-1.2,0-1.9c0-0.6,0-1.3,0.1-1.9c0-0.6,0.2-1.3,0.3-1.9c0.1-0.7,0-1.4-0.2-2.1
							c-0.2-0.7-0.4-1.3-0.5-2c0-0.9,0.6-1.7,0.8-2.4c0.3-1.1,0.2-2.1,0-3.1c-0.1,1.1,0,1.9-0.2,3c-0.1,0.8-1.1-0.8-1.2-1.4
							c-0.1-0.3,1-0.3,0.8-0.6c0.1-0.5-0.2-1-0.3-1.6c-0.1-0.3,0.8,0,0.7-0.1c0-0.7-1-1.6-0.6-2c0.2-0.3,0.5-0.5,0.7-0.8
							c0.1-0.2,0.2-0.3,0.2-0.5c0-0.1-0.1-0.3-0.1-0.4c-0.3,0-0.7-0.1-1-0.2c0.1-0.2,0.4-0.3,0.5-0.5c-0.1,0.2-0.4,0.3-0.5,0.5
							c0.4,0.1,0.7,0.2,1,0.2c-0.2-1.1-0.2-2.3-0.2-3.4l-0.1,0c-0.1,0.6-0.4,1.1-1.2,1.5c0.3-0.2,0.5,0,0.5,0.3l-0.5,0
							c0-0.6-0.1-1.2,0.7-1.4c0,0-0.1-0.3-0.2-0.4c0.2-0.1,0.5,0,0.7,0.1c0-0.1,0-0.2,0.1-0.4C164.4,126.5,163.5,127,163.5,127z"/>
						<path class="st3" d="M161.3,133c0-0.1,0-0.2,0-0.3c-0.2,0.4-0.3,0.7-0.5,1.1C161.4,133.7,161.4,133.3,161.3,133z"/>
					</g>
				</g>
			</g>
		</g>
	</g>
</g>
<g>
	<g>
		<g>
			<g>
				<g class="st2">
					<g>
						<path class="st3" d="M176.1,153l-0.3,0.2c0.1,0,0.2,0.1,0.4,0.1C176.3,153.3,176.2,153.1,176.1,153z"/>
						<path class="st3" d="M175.6,153.3L175.6,153.3l0,0.1C175.6,153.4,175.6,153.3,175.6,153.3z"/>
						<path class="st3" d="M175.4,153.9c0.1,0,0.2-0.1,0.2-0.2C175.4,153.6,175.4,153.7,175.4,153.9z"/>
						<path class="st3" d="M175.8,153.7c-0.1-0.1-0.2-0.2-0.3-0.3l0,0c0,0.1,0,0.1,0,0.2C175.6,153.6,175.7,153.7,175.8,153.7z"/>
						<path class="st3" d="M175.8,153.7c0.1,0.1,0.2,0.1,0.3,0.2C176,153.9,175.9,153.8,175.8,153.7z"/>
						<path class="st3" d="M178,156.3c0,0.1-0.6-0.6-0.5-0.4c0,0.4,0.1,0.8-0.1,1c0.1,0.2-0.8-0.4-0.7-0.2c0,0.4,0.4,1.8,0.6,1.5
							c0.3-0.5,0.4-0.9,0.7-1.4c0.1-0.6,0-1.2,0.1-1.7c0.1-0.1,0.2-0.1,0.3-0.2c-0.2,0-0.4,0-0.6,0C177.5,154.9,178.1,156,178,156.3
							z"/>
						<path class="st3" d="M178.3,151.8c0,0.1,0.1,0.4,0.1,0.4c-0.6-0.4-0.7,0-0.7,0.4l0.4,0.3c0.1-0.1-0.1-0.4-0.3-0.4
							c0.6,0.2,0.9,0.1,1-0.2C178.6,152.1,178.4,151.9,178.3,151.8z"/>
						<path class="st3" d="M178.9,152.1c0,0.1,0,0.1-0.1,0.2l0.1,0.1C178.9,152.3,178.9,152.2,178.9,152.1L178.9,152.1z"/>
						<path class="st3" d="M175.1,155.3c-0.5,0.5-1.1,1-1.6,1.4c0.1,0.2,0.2,0.4,0.1,0.3c-0.2-0.1-0.3-0.1-0.4-0.1l-0.2,0.2
							c0,0,0,0.1,0,0.1l0,0c0,0.1,0.2,0.2,0.3,0.3c0.1,0,0.2,0.1,0.3,0.2c-0.1,0-0.2-0.1-0.3-0.2c-0.1-0.1-0.2-0.1-0.3-0.1
							c0,0.1-0.1,0.2-0.2,0.2c0-0.2,0.1-0.2,0.2-0.2c0-0.1,0-0.1,0-0.2l0-0.1l-0.6,0.4c0,0.1,0,0.1,0,0.2c0,0.2,0,0.4-0.5,0.2
							l-0.1,0.1c0,0,0,0,0.1,0c0,0-0.1,0-0.1,0l-0.4,0.3c0.1,0.2,0.1,0.4,0.2,0.6c0,0-0.3-0.2-0.4-0.2c0.1,0.2,0.2,0.4,0.2,0.5
							c0.3,0.1,0.6,0.3,0.8,0.3c0.4,0.2-0.5-0.8,0.2-0.3c-0.8-0.5,0.2,0.6-0.2,0.3c-0.2-0.1-0.5-0.2-0.8-0.3c0,0.2-0.2,0.3-0.7,0.1
							c-0.2-0.4,0.3-0.3,0.7-0.1c0-0.1-0.1-0.3-0.2-0.5c0.1,0.1,0.4,0.2,0.4,0.2c0-0.2-0.1-0.4-0.2-0.6c-0.3,0.2-0.6,0.4-0.9,0.6
							c-2,1.4-3.2,3.1-4.8,5.1c-0.9,1.1-1.8,2.1-2.8,3.2c-1,1.1-1.3,2.5-1.6,3.8c-0.4,1.3-0.8,2.7-1.9,4.3c-0.4,0.6-0.4,1.6-0.3,2.5
							c0.2,0.9,0.5,1.8,0.7,2.4c1,0.6,2.4,0.3,3.6-0.2c1.2-0.4,2.2-0.9,2.3-1c1.6-0.9,1.8-1.2,2-1.6c0.1-0.4,0.1-0.8,1-1.5
							c-0.5,0.4-1.1,0.4-1.3,0.1c-0.2-0.3,0.1-1,1.3-1.3c1.8-0.5,2-1,2-1.6c-0.1-0.6-0.4-1.4,0.2-1.9c0.3-0.2,0.3-0.6,0.4-0.9
							c0.9-0.7,1.2-1.5,1.5-2.5c0.3-0.9,0.6-2,1.4-2.8c0.4-0.5,0-1.5,0-2.2c0.1-0.4,0.8-0.4,1-0.7c0.3-0.4,0.4-0.9,0.4-1.6
							c-0.2,0.5-0.3,0.9-0.5,1.4c-0.2,0.3-0.7-1-0.8-1.4c-0.1-0.2,0.8,0.4,0.7,0.2c0.2-0.2,0-0.6,0-1c-0.1-0.2,0.6,0.5,0.6,0.3
							c0.1-0.4-0.6-1.4-0.3-1.4c0.2,0,0.4,0,0.6,0c0.1,0,0.2-0.1,0.2-0.2l0-0.3c-0.2-0.2-0.5-0.4-0.8-0.7c0.1,0,0.3,0,0.4,0
							c-0.1,0-0.3,0-0.4,0c0.3,0.2,0.5,0.5,0.8,0.7c-0.1-0.7,0-1.5,0.1-2.1l-0.1-0.1c-0.1,0.3-0.4,0.4-1,0.2
							c0.2,0.1,0.4,0.3,0.3,0.4l-0.4-0.3c0-0.4,0-0.8,0.7-0.4c0,0-0.1-0.2-0.1-0.3c0.2,0,0.4,0.3,0.5,0.4c0-0.1,0.1-0.1,0.1-0.2
							C175.8,155.5,175.1,155.3,175.1,155.3z"/>
						<path class="st3" d="M172.9,157.4c0-0.1,0-0.1,0-0.2l-0.5,0.3C172.8,157.8,172.9,157.6,172.9,157.4z"/>
					</g>
				</g>
			</g>
		</g>
	</g>
</g>
</svg>
