<?xml version="1.0" encoding="utf-8"?>
<!-- Generator: Adobe Illustrator 24.1.1, SVG Export Plug-In . SVG Version: 6.00 Build 0)  -->
<svg version="1.1" xmlns="http://www.w3.org/2000/svg" xmlns:xlink="http://www.w3.org/1999/xlink" x="0px" y="0px"
	 viewBox="0 0 426.6 630" style="enable-background:new 0 0 426.6 630;" xml:space="preserve">
<style type="text/css">
	.st0{fill:#E3145E;stroke:#FFFFFF;stroke-width:4;stroke-linecap:round;stroke-linejoin:round;stroke-miterlimit:10;}
	.st1{fill:none;stroke:#FFFFFF;stroke-width:4;stroke-linecap:round;stroke-linejoin:round;stroke-miterlimit:10;}
	.st2{fill:#FFFFFF;}
</style>
<g id="Layer_1">
	<g>
		<g>
			<polygon class="st0" points="130.8,18.5 102.5,45.7 165.8,45.7 191.4,19.4 			"/>
			<polygon class="st0" points="172.4,97.1 96.2,97.1 102.5,45.7 166.1,45.7 172.4,97.1 201.4,65.9 191.4,19.4 166.1,45.7 			"/>
		</g>
		<g>
			<polygon class="st0" points="44.2,55 15.9,82.2 79.3,82.2 104.9,55.9 			"/>
			<polygon class="st0" points="85.8,133.6 9.7,133.6 15.9,82.2 79.5,82.2 85.8,133.6 114.9,102.4 104.9,55.9 79.5,82.2 			"/>
		</g>
		<g>
			<polygon class="st0" points="127.9,55 99.6,82.2 163,82.2 188.5,55.9 			"/>
			<polygon class="st0" points="169.5,133.6 93.3,133.6 99.6,82.2 163.2,82.2 169.5,133.6 198.5,102.4 188.5,55.9 163.2,82.2 			"/>
		</g>
		<g>
			<polygon class="st0" points="212.5,55.5 184.2,82.6 247.5,82.6 273.1,56.3 			"/>
			<polygon class="st0" points="254,134 177.9,134 184.2,82.6 247.8,82.6 254,134 283.1,102.9 273.1,56.3 247.8,82.6 			"/>
		</g>
	</g>
	<g>
		<polygon class="st0" points="44.5,195 16.1,222.2 159.5,222.2 185.1,195.9 		"/>
		<polygon class="st0" points="166,273.6 159.7,222.2 166,273.6 195.1,242.4 185.1,195.9 159.7,222.2 		"/>
		<polygon class="st0" points="159.7,222.2 166,273.6 9.9,273.6 16.1,222.2 		"/>
	</g>
	<g>
		<path class="st0" d="M416.2,184.4c0,57.7-26.1,89.2-58.3,89.2s-58.3-31.5-58.3-89.2s26.1-119.8,58.3-119.8
			S416.2,126.7,416.2,184.4z"/>
		<path class="st0" d="M302.2,151.9c0,0,18.1-4,55.7-4s55.7,4,55.7,4"/>
		<path class="st1" d="M357.9,147.9V64.6c0,0-18.7-25.6-2.3-32.5c12.4-5.2,18.3-11.7,2.3-32.1"/>
	</g>
	<g>
		<path class="st2" d="M22.3,297.9h-3.1v5.1c0,0.5,0,0.9,0,1.1c0,0.2,0.1,0.4,0.3,0.5c0.2,0.2,0.4,0.2,0.7,0.2l1.9,0l0.1,2.7
			c-1.1,0.3-2,0.4-2.5,0.4c-1.5,0-2.5-0.3-3.1-1c-0.5-0.7-0.8-1.9-0.8-3.7v-5.2h-1.5v-2.9h1.5v-3.5h3.4v3.5h3.1V297.9z"/>
		<path class="st2" d="M25.1,296.5c0.9-1.1,2.4-1.7,4.4-1.7c2.1,0,3.5,0.6,4.4,1.7c0.9,1.1,1.3,2.7,1.3,4.8c0,4.4-1.9,6.6-5.7,6.6
			s-5.8-2.2-5.8-6.6C23.8,299.2,24.2,297.6,25.1,296.5z M27.7,304.1c0.3,0.6,1,0.9,1.8,0.9s1.5-0.3,1.8-0.9c0.3-0.6,0.5-1.5,0.5-2.8
			s-0.2-2.2-0.5-2.8c-0.3-0.6-1-0.9-1.8-0.9s-1.5,0.3-1.8,0.9c-0.3,0.6-0.5,1.5-0.5,2.8S27.4,303.5,27.7,304.1z"/>
		<path class="st2" d="M52.2,298.2c-2.1-0.3-3.5-0.4-4.3-0.4s-1.4,0.1-1.6,0.2s-0.4,0.4-0.4,0.7c0,0.3,0.2,0.5,0.5,0.7
			c0.3,0.1,1.2,0.3,2.5,0.5c1.3,0.2,2.3,0.6,2.9,1.2c0.6,0.5,0.8,1.4,0.8,2.7c0,2.7-1.7,4-5,4c-1.1,0-2.4-0.1-4-0.4l-0.8-0.2
			l0.1-2.8c2.1,0.3,3.5,0.4,4.3,0.4c0.8,0,1.4-0.1,1.6-0.2c0.3-0.2,0.4-0.4,0.4-0.7s-0.2-0.6-0.5-0.7c-0.3-0.2-1.1-0.3-2.4-0.5
			s-2.3-0.6-2.9-1.1c-0.6-0.5-1-1.4-1-2.8c0-1.3,0.5-2.3,1.4-3c0.9-0.7,2.1-1,3.5-1c1,0,2.3,0.2,4,0.5l0.8,0.2L52.2,298.2z"/>
		<path class="st2" d="M55,312.8v-17.8h3.3v0.7c1.1-0.6,2-1,2.9-1c1.7,0,2.9,0.5,3.7,1.5c0.8,1,1.2,2.7,1.2,5.1c0,2.4-0.4,4.1-1.3,5
			c-0.9,0.9-2.3,1.4-4.4,1.4c-0.6,0-1.1,0-1.8-0.1l-0.3,0v5.1H55z M60.6,297.8c-0.6,0-1.2,0.1-1.9,0.4l-0.3,0.1v6.5
			c0.8,0.1,1.4,0.2,1.8,0.2c1,0,1.6-0.3,2-0.9c0.4-0.6,0.5-1.5,0.5-2.9C62.7,298.9,62,297.8,60.6,297.8z"/>
		<path class="st2" d="M68.6,307.6v-12.5H72v1.3c1.4-0.8,2.7-1.4,4-1.6v3.4c-1.4,0.3-2.5,0.6-3.5,0.9l-0.5,0.2v8.4H68.6z"/>
		<path class="st2" d="M77.9,293.5v-3.4h3.4v3.4H77.9z M77.9,307.6v-12.5h3.4v12.5H77.9z"/>
		<path class="st2" d="M87.7,307.6h-3.4v-12.5h3.3v0.7c1.1-0.7,2.2-1,3.1-1c1.7,0,2.8,0.5,3.5,1.5c0.6,1,0.9,2.5,0.9,4.6v6.8h-3.4
			v-6.7c0-1.1-0.1-1.9-0.4-2.4s-0.8-0.8-1.5-0.8c-0.7,0-1.3,0.1-2,0.3l-0.3,0.1V307.6z"/>
		<path class="st2" d="M105.1,297.9h-3.1v5.1c0,0.5,0,0.9,0,1.1c0,0.2,0.1,0.4,0.3,0.5c0.2,0.2,0.4,0.2,0.7,0.2l1.9,0l0.1,2.7
			c-1.1,0.3-2,0.4-2.5,0.4c-1.5,0-2.5-0.3-3.1-1c-0.5-0.7-0.8-1.9-0.8-3.7v-5.2h-1.5v-2.9h1.5v-3.5h3.4v3.5h3.1V297.9z"/>
	</g>
	<g>
		<path class="st2" d="M22.3,155.8h-3.1v5.1c0,0.5,0,0.9,0,1.1s0.1,0.4,0.3,0.5c0.2,0.1,0.4,0.2,0.7,0.2l1.9,0l0.1,2.7
			c-1.1,0.3-2,0.4-2.5,0.4c-1.5,0-2.5-0.3-3.1-1c-0.5-0.7-0.8-1.9-0.8-3.7v-5.2h-1.5v-2.9h1.5v-3.5h3.4v3.5h3.1V155.8z"/>
		<path class="st2" d="M25.1,154.3c0.9-1.1,2.4-1.7,4.4-1.7c2.1,0,3.5,0.6,4.4,1.7c0.9,1.1,1.3,2.7,1.3,4.8c0,4.4-1.9,6.6-5.7,6.6
			s-5.8-2.2-5.8-6.6C23.8,157.1,24.2,155.5,25.1,154.3z M27.7,162c0.3,0.6,1,0.9,1.8,0.9s1.5-0.3,1.8-0.9c0.3-0.6,0.5-1.5,0.5-2.8
			c0-1.3-0.2-2.2-0.5-2.8c-0.3-0.6-1-0.9-1.8-0.9s-1.5,0.3-1.8,0.9c-0.3,0.6-0.5,1.5-0.5,2.8C27.2,160.4,27.4,161.4,27.7,162z"/>
		<path class="st2" d="M46.6,165.4h-3.4v-12.5h3.3v0.7c1.1-0.7,2.1-1,3-1c1.3,0,2.4,0.4,3.1,1.2c1.5-0.8,2.9-1.2,4.2-1.2
			c1.6,0,2.8,0.5,3.4,1.4s1,2.5,1,4.6v6.8h-3.3v-6.7c0-1.1-0.1-1.9-0.4-2.4c-0.2-0.5-0.7-0.8-1.4-0.8c-0.5,0-1.2,0.1-2,0.3l-0.4,0.1
			c0.1,1.3,0.1,2.2,0.1,2.9v6.5h-3.4V159c0-1.2-0.1-2.1-0.3-2.6c-0.2-0.5-0.7-0.8-1.4-0.8c-0.6,0-1.3,0.1-1.9,0.3l-0.3,0.1V165.4z"
			/>
		<path class="st2" d="M64.9,154.3c0.9-1.1,2.4-1.7,4.4-1.7c2.1,0,3.5,0.6,4.4,1.7c0.9,1.1,1.3,2.7,1.3,4.8c0,4.4-1.9,6.6-5.8,6.6
			s-5.8-2.2-5.8-6.6C63.6,157.1,64,155.5,64.9,154.3z M67.5,162c0.3,0.6,1,0.9,1.8,0.9s1.5-0.3,1.8-0.9c0.3-0.6,0.5-1.5,0.5-2.8
			c0-1.3-0.2-2.2-0.5-2.8c-0.3-0.6-1-0.9-1.8-0.9s-1.5,0.3-1.8,0.9c-0.3,0.6-0.5,1.5-0.5,2.8C67,160.4,67.1,161.4,67.5,162z"/>
		<path class="st2" d="M76.2,152.9h3.5l2,9.6h0.7l2.1-9.6h3.4l-3,12.5h-5.7L76.2,152.9z"/>
		<path class="st2" d="M93,162.2c0.4,0.3,1,0.5,1.7,0.5c1.5,0,2.9-0.1,4.1-0.1l0.7-0.1l0,2.5c-1.9,0.5-3.6,0.7-5.2,0.7
			c-1.9,0-3.3-0.5-4.1-1.5c-0.9-1-1.3-2.6-1.3-4.9c0-4.5,1.8-6.7,5.5-6.7c3.6,0,5.4,1.9,5.4,5.6l-0.3,2.3h-7.4
			C92.4,161.3,92.6,161.9,93,162.2z M96.7,158c0-1-0.2-1.7-0.5-2.1c-0.3-0.4-0.9-0.6-1.7-0.6s-1.4,0.2-1.7,0.6
			c-0.3,0.4-0.5,1.1-0.5,2.1H96.7z"/>
	</g>
	<g>
		<path class="st2" d="M318.3,297.9h-3.1v5.1c0,0.5,0,0.9,0,1.1c0,0.2,0.1,0.4,0.3,0.5c0.2,0.1,0.4,0.2,0.7,0.2l1.9,0l0.2,2.7
			c-1.1,0.3-2,0.4-2.5,0.4c-1.5,0-2.5-0.3-3.1-1s-0.8-1.9-0.8-3.7v-5.2h-1.5v-2.8h1.5v-3.5h3.3v3.5h3.1V297.9z"/>
		<path class="st2" d="M321.2,296.5c0.9-1.1,2.4-1.7,4.4-1.7c2.1,0,3.5,0.6,4.4,1.7c0.9,1.1,1.3,2.7,1.3,4.8c0,4.4-1.9,6.6-5.8,6.6
			c-3.8,0-5.8-2.2-5.8-6.6C319.9,299.2,320.3,297.6,321.2,296.5z M323.8,304.1c0.3,0.6,1,0.9,1.8,0.9c0.9,0,1.5-0.3,1.8-0.9
			s0.5-1.5,0.5-2.8c0-1.3-0.2-2.2-0.5-2.8c-0.3-0.6-1-0.9-1.8-0.9c-0.9,0-1.5,0.3-1.8,0.9c-0.3,0.6-0.5,1.5-0.5,2.8
			C323.3,302.6,323.4,303.5,323.8,304.1z"/>
		<path class="st2" d="M348.9,299v5.2c0,0.4,0.1,0.7,0.2,0.8c0.1,0.2,0.3,0.3,0.6,0.3l-0.1,2.5c-0.8,0-1.5-0.1-2-0.2
			c-0.5-0.1-1-0.4-1.5-0.7c-1.2,0.6-2.4,0.9-3.7,0.9c-2.6,0-3.9-1.4-3.9-4.1c0-1.3,0.4-2.3,1.1-2.8s1.8-0.9,3.3-1l2.7-0.2V299
			c0-0.5-0.1-0.9-0.3-1.1c-0.2-0.2-0.6-0.3-1.1-0.3l-4.7,0.2l-0.1-2.3c1.8-0.5,3.5-0.7,5.1-0.7c1.6,0,2.8,0.3,3.5,1
			C348.5,296.4,348.9,297.5,348.9,299z M343.3,302.3c-0.9,0.1-1.4,0.6-1.4,1.5c0,0.9,0.4,1.4,1.2,1.4c0.6,0,1.3-0.1,2.1-0.3l0.4-0.1
			v-2.7L343.3,302.3z"/>
		<path class="st2" d="M359,297.9h-3.1v5.1c0,0.5,0,0.9,0,1.1c0,0.2,0.1,0.4,0.3,0.5c0.2,0.1,0.4,0.2,0.7,0.2l1.9,0l0.1,2.7
			c-1.1,0.3-2,0.4-2.5,0.4c-1.5,0-2.5-0.3-3.1-1s-0.8-1.9-0.8-3.7v-5.2h-1.5v-2.8h1.5v-3.5h3.4v3.5h3.1V297.9z"/>
		<path class="st2" d="M368.1,297.9H365v5.1c0,0.5,0,0.9,0,1.1c0,0.2,0.1,0.4,0.3,0.5c0.2,0.1,0.4,0.2,0.7,0.2l1.9,0l0.2,2.7
			c-1.1,0.3-2,0.4-2.5,0.4c-1.5,0-2.5-0.3-3.1-1s-0.8-1.9-0.8-3.7v-5.2h-1.5v-2.8h1.5v-3.5h3.3v3.5h3.1V297.9z"/>
		<path class="st2" d="M379.9,299v5.2c0,0.4,0.1,0.7,0.2,0.8c0.1,0.2,0.3,0.3,0.6,0.3l-0.1,2.5c-0.8,0-1.5-0.1-2-0.2
			c-0.5-0.1-1-0.4-1.5-0.7c-1.2,0.6-2.4,0.9-3.7,0.9c-2.6,0-3.9-1.4-3.9-4.1c0-1.3,0.4-2.3,1.1-2.8s1.8-0.9,3.3-1l2.7-0.2V299
			c0-0.5-0.1-0.9-0.3-1.1c-0.2-0.2-0.6-0.3-1.1-0.3l-4.7,0.2l-0.1-2.3c1.8-0.5,3.5-0.7,5.1-0.7s2.8,0.3,3.5,1
			C379.5,296.4,379.9,297.5,379.9,299z M374.2,302.3c-0.9,0.1-1.4,0.6-1.4,1.5c0,0.9,0.4,1.4,1.2,1.4c0.6,0,1.3-0.1,2.1-0.3l0.4-0.1
			v-2.7L374.2,302.3z"/>
		<path class="st2" d="M387.7,294.8c0.9,0,2,0.1,3.3,0.4l0.7,0.2l-0.1,2.6c-1.3-0.1-2.3-0.2-2.9-0.2c-1.2,0-1.9,0.2-2.3,0.7
			s-0.6,1.4-0.6,2.8c0,1.4,0.2,2.3,0.6,2.8c0.4,0.5,1.1,0.8,2.3,0.8l2.9-0.2l0.1,2.7c-1.8,0.4-3.1,0.5-4.1,0.5c-1.9,0-3.2-0.5-4-1.6
			c-0.8-1-1.2-2.7-1.2-5s0.4-4,1.3-5C384.5,295.3,385.9,294.8,387.7,294.8z"/>
		<path class="st2" d="M397.5,307.6h-3.3v-17.5h3.3v10l1.3-0.2l2.5-4.7h3.8l-3.3,5.9l3.4,6.6h-3.8l-2.5-4.9l-1.4,0.2V307.6z"/>
	</g>
	<g>
		<path class="st2" d="M132.6,23h6.3L137,37.8h0.6L148,23.2h7l-1.5,14.6h0.6L164.3,23h6.3l-13.3,18.3h-9.2l1.5-13.3l-9.1,13.3h-9.4
			L132.6,23z"/>
	</g>
	<g>
		<path class="st2" d="M45.5,77.7l14-18.3h10.9l-1,18.3h-6.3l0.2-3.2h-9.1l-2.4,3.2H45.5z M63.2,62.7l-6.6,8.7h6.9l0.6-8.7H63.2z"/>
	</g>
	<g>
		<path class="st2" d="M144.5,62.3c-1.3,0-2.4,0.2-3.2,0.7c-0.8,0.4-1.2,1-1.2,1.6c0,0.6,0.2,1.1,0.7,1.3c0.5,0.3,1.8,0.7,4,1.3
			c2.2,0.6,3.7,1.2,4.5,1.8c0.8,0.6,1.2,1.6,1.2,2.8c0,2-1.1,3.6-3.2,4.7c-2.1,1.1-5,1.6-8.6,1.6c-1.4,0-2.9-0.1-4.5-0.3
			c-1.6-0.2-2.8-0.4-3.7-0.5l-1.3-0.3l1.1-2.7c3.4,0.4,6.2,0.5,8.1,0.5s3.4-0.2,4.3-0.6c0.9-0.4,1.4-1.1,1.4-2.1
			c0-0.5-0.3-0.9-0.8-1.2c-0.5-0.3-1.8-0.7-3.9-1.2c-2.1-0.6-3.6-1.2-4.4-1.8c-0.9-0.7-1.3-1.6-1.3-2.8c0-1.7,1-3.2,2.9-4.3
			c1.9-1.1,4.5-1.7,7.7-1.7c1.5,0,3,0.1,4.6,0.3c1.6,0.2,2.8,0.3,3.7,0.5l1.3,0.3l-1.1,2.6C149.4,62.5,146.6,62.3,144.5,62.3z"/>
	</g>
	<g>
		<path class="st2" d="M228,77.7h-11.2l7.2-18.3h9.8c6.8,0,10.3,1.9,10.3,5.6c0,2.6-0.8,5-2.5,7.1c-1.9,2.4-4.4,4-7.6,4.9
			C232.2,77.5,230.2,77.7,228,77.7z M235.6,71c0.7-1,1.2-2,1.5-3.1c0.3-1,0.5-2,0.5-2.9c0-0.9-0.4-1.5-1.3-1.9
			c-0.8-0.3-2.1-0.5-3.8-0.5h-3.5l-4.6,11.8h4.1c1.6,0,2.9-0.3,4.2-1C234,72.9,234.9,72,235.6,71z"/>
	</g>
	<g>
		<path class="st0" d="M358.3,147.9V59.6c-25.4,0-52,43.7-60,88.3l-0.7,4C297.6,151.9,320.7,147.9,358.3,147.9"/>
	</g>
	<g>
		<path class="st2" d="M49.1,205.1c-1,0-1.8,0.2-2.4,0.5c-0.6,0.3-0.9,0.7-0.9,1.2c0,0.5,0.2,0.8,0.5,1c0.4,0.2,1.4,0.5,3,1
			c1.6,0.4,2.8,0.9,3.4,1.4c0.6,0.5,0.9,1.2,0.9,2.1c0,1.5-0.8,2.7-2.4,3.5c-1.6,0.8-3.7,1.2-6.4,1.2c-1.1,0-2.2-0.1-3.4-0.2
			c-1.2-0.1-2.1-0.3-2.8-0.4l-1-0.2l0.8-2c2.6,0.3,4.6,0.4,6.1,0.4s2.6-0.2,3.2-0.5c0.7-0.3,1-0.8,1-1.5c0-0.4-0.2-0.7-0.6-0.9
			c-0.4-0.2-1.4-0.5-2.9-0.9c-1.6-0.4-2.7-0.9-3.3-1.4c-0.7-0.5-1-1.2-1-2.1c0-1.3,0.7-2.4,2.2-3.2c1.4-0.8,3.4-1.3,5.8-1.3
			c1.1,0,2.2,0.1,3.5,0.2c1.2,0.1,2.1,0.3,2.8,0.4l1,0.2l-0.9,2C52.8,205.3,50.7,205.1,49.1,205.1z"/>
		<path class="st2" d="M67.4,206.4c2.8,0,4.2,0.9,4.2,2.8c0,0.5-0.2,1.3-0.7,2.5l-1.9,4.9h-4.6l1.9-4.7c0.4-1,0.6-1.7,0.6-2.1
			c0-0.4-0.1-0.7-0.3-0.9c-0.2-0.2-0.5-0.3-0.9-0.3c-0.8,0-1.8,0.3-2.9,0.9l-0.6,0.3l-2.6,6.8h-4.6l5.5-14.1H65l-1.9,5
			c0.5-0.3,1.2-0.6,2-0.8S66.7,206.4,67.4,206.4z"/>
		<path class="st2" d="M72.5,216.7l3.9-10.1h4.6l-3.9,10.1H72.5z M76.8,205.6l1.1-2.8h4.6l-1.1,2.8H76.8z"/>
		<path class="st2" d="M91.9,202.4c0.9,0,1.8,0.1,2.8,0.4l0.4,0.1l-0.8,2c-0.8-0.1-1.5-0.1-2.1-0.1c-0.6,0-1,0.1-1.3,0.4
			c-0.2,0.3-0.5,0.7-0.7,1.2l-0.2,0.4h3.6l-1,2.3h-3.5l-3.1,7.8l-2.2,4.3h-4.2l4.8-12h-1.6l1-2.3h1.5l0.2-0.4c0.5-1.4,1.3-2.4,2.1-3
			C88.7,202.6,90.1,202.4,91.9,202.4z"/>
		<path class="st2" d="M98.4,214.1c0,0.4,0.3,0.6,1,0.6l2.3-0.1l-0.4,1.9c-1.2,0.3-2.5,0.5-3.8,0.5c-1.3,0-2.3-0.2-3-0.6
			c-0.7-0.4-1-0.9-1-1.5c0-0.6,0.2-1.3,0.5-2.1l1.5-3.8h-1.9l1-2.3h1.8l1-2.6h4.6l-1,2.6h3.6l-1,2.3h-3.6l-1.6,4
			C98.5,213.4,98.4,213.8,98.4,214.1z"/>
	</g>
	<g>
		<path class="st2" d="M321.4,124.7h-8.1l3.6-9.1h3.2l-3,7.5h4.9L321.4,124.7z"/>
		<path class="st2" d="M323,124.7l3.6-9.1h4.9l0,6.6l5.2-6.6h5l-3.6,9.1h-3.2l3-7.5h-0.1l-5.6,7.1h-3l0-7.1H329l-2.9,7.5H323z"/>
		<path class="st2" d="M350,115.6c2.7,0,4.1,0.7,4.1,2c0,0.6-0.2,1.1-0.6,1.4c-0.4,0.4-1.1,0.7-1.9,1c0.6,0.2,1,0.4,1.2,0.7
			c0.2,0.2,0.3,0.5,0.3,0.9c0,0.9-0.5,1.6-1.6,2.2c-1.1,0.6-2.6,0.9-4.5,0.9H341l3.6-9.1H350z M348.3,120.9h-2.6l-0.9,2.2h2.7
			c0.7,0,1.2-0.1,1.6-0.4c0.4-0.3,0.6-0.6,0.6-1.1C349.7,121.2,349.3,120.9,348.3,120.9z M349.5,117.2h-2.4l-0.9,2.2h2.4
			c0.6,0,1.2-0.1,1.6-0.4c0.4-0.3,0.6-0.6,0.6-1C350.8,117.4,350.4,117.2,349.5,117.2z"/>
	</g>
</g>
<g id="Layer_2">
	<g>
		<g>
			<polygon class="st0" points="130.8,353.5 102.5,380.7 165.8,380.7 191.4,354.4 			"/>
			<polygon class="st0" points="172.4,412.1 96.2,412.1 102.5,380.7 166.1,380.7 172.4,412.1 201.4,400.9 191.4,354.4 166.1,380.7 
							"/>
		</g>
		<g>
			<polygon class="st0" points="44.2,390 15.9,417.2 79.3,417.2 104.9,390.9 			"/>
			<polygon class="st0" points="85.8,448.6 9.7,448.6 15.9,417.2 79.5,417.2 85.8,448.6 114.9,417.4 104.9,390.9 79.5,417.2 			"/>
		</g>
		<g>
			<polygon class="st0" points="127.9,390 99.6,417.2 163,417.2 188.5,390.9 			"/>
			<polygon class="st0" points="169.5,448.6 93.3,448.6 99.6,417.2 163.2,417.2 169.5,448.6 198.5,417.4 188.5,390.9 163.2,417.2 
							"/>
		</g>
		<g>
			<polygon class="st0" points="212.5,390.5 184.2,417.6 247.5,417.6 273.1,391.3 			"/>
			<polygon class="st0" points="254,449 177.9,449 184.2,417.6 247.8,417.6 254,449 283.1,417.9 273.1,391.3 247.8,417.6 			"/>
		</g>
	</g>
	<g>
		<polygon class="st0" points="44.5,530 16.1,557.2 159.5,557.2 185.1,530.9 		"/>
		<polygon class="st0" points="166,588.6 159.7,557.2 166,588.6 195.1,557.4 185.1,530.9 159.7,557.2 		"/>
		<polygon class="st0" points="159.7,557.2 166,588.6 9.9,588.6 16.1,557.2 		"/>
	</g>
	<g>
		<path class="st0" d="M416.2,499.4c0,57.7-26.1,89.2-58.3,89.2s-58.3-31.5-58.3-89.2s26.1-119.8,58.3-119.8
			S416.2,441.7,416.2,499.4z"/>
		<path class="st0" d="M302.2,466.9c0,0,18.1-4,55.7-4s55.7,4,55.7,4"/>
		<path class="st1" d="M357.9,462.9v-83.3c0,0-18.7-25.6-2.3-32.5c12.4-5.2,18.3-11.7,2.3-32.1"/>
	</g>
	<g>
		<path class="st2" d="M22.3,610.8h-3.1v5.1c0,0.5,0,0.9,0,1.1c0,0.2,0.1,0.4,0.3,0.5c0.2,0.2,0.4,0.2,0.7,0.2l1.9,0l0.1,2.7
			c-1.1,0.3-2,0.4-2.5,0.4c-1.5,0-2.5-0.3-3.1-1c-0.5-0.7-0.8-1.9-0.8-3.7v-5.2h-1.5v-2.9h1.5v-3.5h3.4v3.5h3.1V610.8z"/>
		<path class="st2" d="M25.1,609.3c0.9-1.1,2.4-1.7,4.4-1.7c2.1,0,3.5,0.6,4.4,1.7c0.9,1.1,1.3,2.7,1.3,4.8c0,4.4-1.9,6.6-5.7,6.6
			s-5.8-2.2-5.8-6.6C23.8,612.1,24.2,610.5,25.1,609.3z M27.7,617c0.3,0.6,1,0.9,1.8,0.9s1.5-0.3,1.8-0.9c0.3-0.6,0.5-1.5,0.5-2.8
			s-0.2-2.2-0.5-2.8c-0.3-0.6-1-0.9-1.8-0.9s-1.5,0.3-1.8,0.9c-0.3,0.6-0.5,1.5-0.5,2.8S27.4,616.4,27.7,617z"/>
		<path class="st2" d="M52.2,611c-2.1-0.3-3.5-0.4-4.3-0.4s-1.4,0.1-1.6,0.2s-0.4,0.4-0.4,0.7c0,0.3,0.2,0.5,0.5,0.7
			c0.3,0.1,1.2,0.3,2.5,0.5c1.3,0.2,2.3,0.6,2.9,1.2c0.6,0.5,0.8,1.4,0.8,2.7c0,2.7-1.7,4-5,4c-1.1,0-2.4-0.1-4-0.4l-0.8-0.2
			l0.1-2.8c2.1,0.3,3.5,0.4,4.3,0.4c0.8,0,1.4-0.1,1.6-0.2c0.3-0.2,0.4-0.4,0.4-0.7s-0.2-0.6-0.5-0.7c-0.3-0.2-1.1-0.3-2.4-0.5
			s-2.3-0.6-2.9-1.1c-0.6-0.5-1-1.4-1-2.8c0-1.3,0.5-2.3,1.4-3c0.9-0.7,2.1-1,3.5-1c1,0,2.3,0.2,4,0.5l0.8,0.2L52.2,611z"/>
		<path class="st2" d="M55,625.7v-17.8h3.3v0.7c1.1-0.6,2-1,2.9-1c1.7,0,2.9,0.5,3.7,1.5c0.8,1,1.2,2.7,1.2,5.1c0,2.4-0.4,4.1-1.3,5
			c-0.9,0.9-2.3,1.4-4.4,1.4c-0.6,0-1.1,0-1.8-0.1l-0.3,0v5.1H55z M60.6,610.6c-0.6,0-1.2,0.1-1.9,0.4l-0.3,0.1v6.5
			c0.8,0.1,1.4,0.2,1.8,0.2c1,0,1.6-0.3,2-0.9c0.4-0.6,0.5-1.5,0.5-2.9C62.7,611.8,62,610.6,60.6,610.6z"/>
		<path class="st2" d="M68.6,620.4v-12.5H72v1.3c1.4-0.8,2.7-1.4,4-1.6v3.4c-1.4,0.3-2.5,0.6-3.5,0.9L72,612v8.4H68.6z"/>
		<path class="st2" d="M77.9,606.3v-3.4h3.4v3.4H77.9z M77.9,620.4v-12.5h3.4v12.5H77.9z"/>
		<path class="st2" d="M87.7,620.4h-3.4v-12.5h3.3v0.7c1.1-0.7,2.2-1,3.1-1c1.7,0,2.8,0.5,3.5,1.5c0.6,1,0.9,2.5,0.9,4.6v6.8h-3.4
			v-6.7c0-1.1-0.1-1.9-0.4-2.4s-0.8-0.8-1.5-0.8c-0.7,0-1.3,0.1-2,0.3l-0.3,0.1V620.4z"/>
		<path class="st2" d="M105.1,610.8h-3.1v5.1c0,0.5,0,0.9,0,1.1c0,0.2,0.1,0.4,0.3,0.5c0.2,0.2,0.4,0.2,0.7,0.2l1.9,0l0.1,2.7
			c-1.1,0.3-2,0.4-2.5,0.4c-1.5,0-2.5-0.3-3.1-1c-0.5-0.7-0.8-1.9-0.8-3.7v-5.2h-1.5v-2.9h1.5v-3.5h3.4v3.5h3.1V610.8z"/>
	</g>
	<g>
		<path class="st2" d="M22.3,470.8h-3.1v5.1c0,0.5,0,0.9,0,1.1s0.1,0.4,0.3,0.5c0.2,0.1,0.4,0.2,0.7,0.2l1.9,0l0.1,2.7
			c-1.1,0.3-2,0.4-2.5,0.4c-1.5,0-2.5-0.3-3.1-1c-0.5-0.7-0.8-1.9-0.8-3.7v-5.2h-1.5v-2.9h1.5v-3.5h3.4v3.5h3.1V470.8z"/>
		<path class="st2" d="M25.1,469.3c0.9-1.1,2.4-1.7,4.4-1.7c2.1,0,3.5,0.6,4.4,1.7c0.9,1.1,1.3,2.7,1.3,4.8c0,4.4-1.9,6.6-5.7,6.6
			s-5.8-2.2-5.8-6.6C23.8,472.1,24.2,470.5,25.1,469.3z M27.7,477c0.3,0.6,1,0.9,1.8,0.9s1.5-0.3,1.8-0.9c0.3-0.6,0.5-1.5,0.5-2.8
			c0-1.3-0.2-2.2-0.5-2.8c-0.3-0.6-1-0.9-1.8-0.9s-1.5,0.3-1.8,0.9c-0.3,0.6-0.5,1.5-0.5,2.8C27.2,475.4,27.4,476.4,27.7,477z"/>
		<path class="st2" d="M46.6,480.4h-3.4v-12.5h3.3v0.7c1.1-0.7,2.1-1,3-1c1.3,0,2.4,0.4,3.1,1.2c1.5-0.8,2.9-1.2,4.2-1.2
			c1.6,0,2.8,0.5,3.4,1.4s1,2.5,1,4.6v6.8h-3.3v-6.7c0-1.1-0.1-1.9-0.4-2.4c-0.2-0.5-0.7-0.8-1.4-0.8c-0.5,0-1.2,0.1-2,0.3l-0.4,0.1
			c0.1,1.3,0.1,2.2,0.1,2.9v6.5h-3.4V474c0-1.2-0.1-2.1-0.3-2.6c-0.2-0.5-0.7-0.8-1.4-0.8c-0.6,0-1.3,0.1-1.9,0.3l-0.3,0.1V480.4z"
			/>
		<path class="st2" d="M64.9,469.3c0.9-1.1,2.4-1.7,4.4-1.7c2.1,0,3.5,0.6,4.4,1.7c0.9,1.1,1.3,2.7,1.3,4.8c0,4.4-1.9,6.6-5.8,6.6
			s-5.8-2.2-5.8-6.6C63.6,472.1,64,470.5,64.9,469.3z M67.5,477c0.3,0.6,1,0.9,1.8,0.9s1.5-0.3,1.8-0.9c0.3-0.6,0.5-1.5,0.5-2.8
			c0-1.3-0.2-2.2-0.5-2.8c-0.3-0.6-1-0.9-1.8-0.9s-1.5,0.3-1.8,0.9c-0.3,0.6-0.5,1.5-0.5,2.8C67,475.4,67.1,476.4,67.5,477z"/>
		<path class="st2" d="M76.2,467.9h3.5l2,9.6h0.7l2.1-9.6h3.4l-3,12.5h-5.7L76.2,467.9z"/>
		<path class="st2" d="M93,477.2c0.4,0.3,1,0.5,1.7,0.5c1.5,0,2.9-0.1,4.1-0.1l0.7-0.1l0,2.5c-1.9,0.5-3.6,0.7-5.2,0.7
			c-1.9,0-3.3-0.5-4.1-1.5c-0.9-1-1.3-2.6-1.3-4.9c0-4.5,1.8-6.7,5.5-6.7c3.6,0,5.4,1.9,5.4,5.6l-0.3,2.3h-7.4
			C92.4,476.3,92.6,476.9,93,477.2z M96.7,473c0-1-0.2-1.7-0.5-2.1c-0.3-0.4-0.9-0.6-1.7-0.6s-1.4,0.2-1.7,0.6
			c-0.3,0.4-0.5,1.1-0.5,2.1H96.7z"/>
	</g>
	<g>
		<path class="st2" d="M318.3,610.8h-3.1v5.1c0,0.5,0,0.9,0,1.1c0,0.2,0.1,0.4,0.3,0.5c0.2,0.1,0.4,0.2,0.7,0.2l1.9,0l0.2,2.7
			c-1.1,0.3-2,0.4-2.5,0.4c-1.5,0-2.5-0.3-3.1-1s-0.8-1.9-0.8-3.7v-5.2h-1.5v-2.8h1.5v-3.5h3.3v3.5h3.1V610.8z"/>
		<path class="st2" d="M321.2,609.3c0.9-1.1,2.4-1.7,4.4-1.7c2.1,0,3.5,0.6,4.4,1.7c0.9,1.1,1.3,2.7,1.3,4.8c0,4.4-1.9,6.6-5.8,6.6
			c-3.8,0-5.8-2.2-5.8-6.6C319.9,612.1,320.3,610.5,321.2,609.3z M323.8,617c0.3,0.6,1,0.9,1.8,0.9c0.9,0,1.5-0.3,1.8-0.9
			s0.5-1.5,0.5-2.8c0-1.3-0.2-2.2-0.5-2.8c-0.3-0.6-1-0.9-1.8-0.9c-0.9,0-1.5,0.3-1.8,0.9c-0.3,0.6-0.5,1.5-0.5,2.8
			C323.3,615.4,323.4,616.4,323.8,617z"/>
		<path class="st2" d="M348.9,611.8v5.2c0,0.4,0.1,0.7,0.2,0.8c0.1,0.2,0.3,0.3,0.6,0.3l-0.1,2.5c-0.8,0-1.5-0.1-2-0.2
			c-0.5-0.1-1-0.4-1.5-0.7c-1.2,0.6-2.4,0.9-3.7,0.9c-2.6,0-3.9-1.4-3.9-4.1c0-1.3,0.4-2.3,1.1-2.8s1.8-0.9,3.3-1l2.7-0.2v-0.8
			c0-0.5-0.1-0.9-0.3-1.1c-0.2-0.2-0.6-0.3-1.1-0.3l-4.7,0.2l-0.1-2.3c1.8-0.5,3.5-0.7,5.1-0.7c1.6,0,2.8,0.3,3.5,1
			C348.5,609.3,348.9,610.3,348.9,611.8z M343.3,615.1c-0.9,0.1-1.4,0.6-1.4,1.5c0,0.9,0.4,1.4,1.2,1.4c0.6,0,1.3-0.1,2.1-0.3
			l0.4-0.1v-2.7L343.3,615.1z"/>
		<path class="st2" d="M359,610.8h-3.1v5.1c0,0.5,0,0.9,0,1.1c0,0.2,0.1,0.4,0.3,0.5c0.2,0.1,0.4,0.2,0.7,0.2l1.9,0l0.1,2.7
			c-1.1,0.3-2,0.4-2.5,0.4c-1.5,0-2.5-0.3-3.1-1s-0.8-1.9-0.8-3.7v-5.2h-1.5v-2.8h1.5v-3.5h3.4v3.5h3.1V610.8z"/>
		<path class="st2" d="M368.1,610.8H365v5.1c0,0.5,0,0.9,0,1.1c0,0.2,0.1,0.4,0.3,0.5c0.2,0.1,0.4,0.2,0.7,0.2l1.9,0l0.2,2.7
			c-1.1,0.3-2,0.4-2.5,0.4c-1.5,0-2.5-0.3-3.1-1s-0.8-1.9-0.8-3.7v-5.2h-1.5v-2.8h1.5v-3.5h3.3v3.5h3.1V610.8z"/>
		<path class="st2" d="M379.9,611.8v5.2c0,0.4,0.1,0.7,0.2,0.8c0.1,0.2,0.3,0.3,0.6,0.3l-0.1,2.5c-0.8,0-1.5-0.1-2-0.2
			c-0.5-0.1-1-0.4-1.5-0.7c-1.2,0.6-2.4,0.9-3.7,0.9c-2.6,0-3.9-1.4-3.9-4.1c0-1.3,0.4-2.3,1.1-2.8s1.8-0.9,3.3-1l2.7-0.2v-0.8
			c0-0.5-0.1-0.9-0.3-1.1c-0.2-0.2-0.6-0.3-1.1-0.3l-4.7,0.2l-0.1-2.3c1.8-0.5,3.5-0.7,5.1-0.7s2.8,0.3,3.5,1
			C379.5,609.3,379.9,610.3,379.9,611.8z M374.2,615.1c-0.9,0.1-1.4,0.6-1.4,1.5c0,0.9,0.4,1.4,1.2,1.4c0.6,0,1.3-0.1,2.1-0.3
			l0.4-0.1v-2.7L374.2,615.1z"/>
		<path class="st2" d="M387.7,607.6c0.9,0,2,0.1,3.3,0.4l0.7,0.2l-0.1,2.6c-1.3-0.1-2.3-0.2-2.9-0.2c-1.2,0-1.9,0.2-2.3,0.7
			s-0.6,1.4-0.6,2.8c0,1.4,0.2,2.3,0.6,2.8c0.4,0.5,1.1,0.8,2.3,0.8l2.9-0.2l0.1,2.7c-1.8,0.4-3.1,0.5-4.1,0.5c-1.9,0-3.2-0.5-4-1.6
			c-0.8-1-1.2-2.7-1.2-5s0.4-4,1.3-5C384.5,608.1,385.9,607.6,387.7,607.6z"/>
		<path class="st2" d="M397.5,620.4h-3.3v-17.5h3.3v10l1.3-0.2l2.5-4.7h3.8l-3.3,5.9l3.4,6.6h-3.8l-2.5-4.9l-1.4,0.2V620.4z"/>
	</g>
	<g>
		<path class="st2" d="M132.6,358h6.3l-1.9,14.9h0.6l10.3-14.6h7l-1.5,14.6h0.6l10.3-14.9h6.3l-13.3,18.3h-9.2l1.5-13.3l-9.1,13.3
			h-9.4L132.6,358z"/>
	</g>
	<g>
		<path class="st2" d="M45.5,412.7l14-18.3h10.9l-1,18.3h-6.3l0.2-3.2h-9.1l-2.4,3.2H45.5z M63.2,397.7l-6.6,8.7h6.9l0.6-8.7H63.2z"
			/>
	</g>
	<g>
		<path class="st2" d="M144.5,397.3c-1.3,0-2.4,0.2-3.2,0.7c-0.8,0.4-1.2,1-1.2,1.6s0.2,1.1,0.7,1.3c0.5,0.3,1.8,0.7,4,1.3
			c2.2,0.6,3.7,1.2,4.5,1.8c0.8,0.6,1.2,1.6,1.2,2.8c0,2-1.1,3.6-3.2,4.7c-2.1,1.1-5,1.6-8.6,1.6c-1.4,0-2.9-0.1-4.5-0.3
			c-1.6-0.2-2.8-0.4-3.7-0.5l-1.3-0.3l1.1-2.7c3.4,0.4,6.2,0.5,8.1,0.5s3.4-0.2,4.3-0.6c0.9-0.4,1.4-1.1,1.4-2.1
			c0-0.5-0.3-0.9-0.8-1.2c-0.5-0.3-1.8-0.7-3.9-1.2c-2.1-0.6-3.6-1.2-4.4-1.8c-0.9-0.7-1.3-1.6-1.3-2.8c0-1.7,1-3.2,2.9-4.3
			c1.9-1.1,4.5-1.7,7.7-1.7c1.5,0,3,0.1,4.6,0.3c1.6,0.2,2.8,0.3,3.7,0.5l1.3,0.3l-1.1,2.6C149.4,397.5,146.6,397.3,144.5,397.3z"/>
	</g>
	<g>
		<path class="st2" d="M228,412.7h-11.2l7.2-18.3h9.8c6.8,0,10.3,1.9,10.3,5.6c0,2.6-0.8,5-2.5,7.1c-1.9,2.4-4.4,4-7.6,4.9
			C232.2,412.5,230.2,412.7,228,412.7z M235.6,406c0.7-1,1.2-2,1.5-3.1c0.3-1,0.5-2,0.5-2.9c0-0.9-0.4-1.5-1.3-1.9
			c-0.8-0.3-2.1-0.5-3.8-0.5h-3.5l-4.6,11.8h4.1c1.6,0,2.9-0.3,4.2-1C234,407.9,234.9,407,235.6,406z"/>
	</g>
	<g>
		<path class="st2" d="M49.1,540.1c-1,0-1.8,0.2-2.4,0.5c-0.6,0.3-0.9,0.7-0.9,1.2c0,0.5,0.2,0.8,0.5,1c0.4,0.2,1.4,0.5,3,1
			c1.6,0.4,2.8,0.9,3.4,1.4c0.6,0.5,0.9,1.2,0.9,2.1c0,1.5-0.8,2.7-2.4,3.5c-1.6,0.8-3.7,1.2-6.4,1.2c-1.1,0-2.2-0.1-3.4-0.2
			c-1.2-0.1-2.1-0.3-2.8-0.4l-1-0.2l0.8-2c2.6,0.3,4.6,0.4,6.1,0.4s2.6-0.2,3.2-0.5c0.7-0.3,1-0.8,1-1.5c0-0.4-0.2-0.7-0.6-0.9
			c-0.4-0.2-1.4-0.5-2.9-0.9c-1.6-0.4-2.7-0.9-3.3-1.4c-0.7-0.5-1-1.2-1-2.1c0-1.3,0.7-2.4,2.2-3.2c1.4-0.8,3.4-1.3,5.8-1.3
			c1.1,0,2.2,0.1,3.5,0.2c1.2,0.1,2.1,0.3,2.8,0.4l1,0.2l-0.9,2C52.8,540.3,50.7,540.1,49.1,540.1z"/>
		<path class="st2" d="M67.4,541.4c2.8,0,4.2,0.9,4.2,2.8c0,0.5-0.2,1.3-0.7,2.5l-1.9,4.9h-4.6l1.9-4.7c0.4-1,0.6-1.7,0.6-2.1
			s-0.1-0.7-0.3-0.9c-0.2-0.2-0.5-0.3-0.9-0.3c-0.8,0-1.8,0.3-2.9,0.9l-0.6,0.3l-2.6,6.8h-4.6l5.5-14.1H65l-1.9,5
			c0.5-0.3,1.2-0.6,2-0.8S66.7,541.4,67.4,541.4z"/>
		<path class="st2" d="M72.5,551.7l3.9-10.1h4.6l-3.9,10.1H72.5z M76.8,540.6l1.1-2.8h4.6l-1.1,2.8H76.8z"/>
		<path class="st2" d="M91.9,537.4c0.9,0,1.8,0.1,2.8,0.4l0.4,0.1l-0.8,2c-0.8-0.1-1.5-0.1-2.1-0.1c-0.6,0-1,0.1-1.3,0.4
			c-0.2,0.3-0.5,0.7-0.7,1.2l-0.2,0.4h3.6l-1,2.3h-3.5l-3.1,7.8l-2.2,4.3h-4.2l4.8-12h-1.6l1-2.3h1.5l0.2-0.4c0.5-1.4,1.3-2.4,2.1-3
			C88.7,537.6,90.1,537.4,91.9,537.4z"/>
		<path class="st2" d="M98.4,549.1c0,0.4,0.3,0.6,1,0.6l2.3-0.1l-0.4,1.9c-1.2,0.3-2.5,0.5-3.8,0.5c-1.3,0-2.3-0.2-3-0.6
			c-0.7-0.4-1-0.9-1-1.5c0-0.6,0.2-1.3,0.5-2.1l1.5-3.8h-1.9l1-2.3h1.8l1-2.6h4.6l-1,2.6h3.6l-1,2.3h-3.6l-1.6,4
			C98.5,548.4,98.4,548.8,98.4,549.1z"/>
	</g>
	<g>
		<path class="st2" d="M321.4,439.7h-8.1l3.6-9.1h3.2l-3,7.5h4.9L321.4,439.7z"/>
		<path class="st2" d="M323,439.7l3.6-9.1h4.9l0,6.6l5.2-6.6h5l-3.6,9.1h-3.2l3-7.5h-0.1l-5.6,7.1h-3l0-7.1H329l-2.9,7.5H323z"/>
		<path class="st2" d="M350,430.6c2.7,0,4.1,0.7,4.1,2c0,0.6-0.2,1.1-0.6,1.4c-0.4,0.4-1.1,0.7-1.9,1c0.6,0.2,1,0.4,1.2,0.7
			c0.2,0.2,0.3,0.5,0.3,0.9c0,0.9-0.5,1.6-1.6,2.2c-1.1,0.6-2.6,0.9-4.5,0.9H341l3.6-9.1H350z M348.3,435.9h-2.6l-0.9,2.2h2.7
			c0.7,0,1.2-0.1,1.6-0.4c0.4-0.3,0.6-0.6,0.6-1.1C349.7,436.2,349.3,435.9,348.3,435.9z M349.5,432.2h-2.4l-0.9,2.2h2.4
			c0.6,0,1.2-0.1,1.6-0.4s0.6-0.6,0.6-1C350.8,432.4,350.4,432.2,349.5,432.2z"/>
	</g>
</g>
</svg>
