<?xml version="1.0" encoding="utf-8"?>
<!-- Generator: Adobe Illustrator 24.1.1, SVG Export Plug-In . SVG Version: 6.00 Build 0)  -->
<svg version="1.1" id="Layer_1" xmlns="http://www.w3.org/2000/svg" xmlns:xlink="http://www.w3.org/1999/xlink" x="0px" y="0px"
	 viewBox="0 0 900 505.5" style="enable-background:new 0 0 900 505.5;" xml:space="preserve">
<style type="text/css">
	.st0{fill:#E3AFB0;}
	.st1{fill:#D3A3A5;}
	.st2{fill:#C69A9C;}
</style>
<g>
	<path class="st0" d="M1,505.5V0h558.9c0,0-19.9,25-19.3,51.3c0.6,26.4,26.1,49.8,34.8,72.8c8.8,23.1,14.4,72.5-9.8,116.3
		c-31.7,57.2-27.7,64.8-27.2,80.2c1.4,34.9,25.2,68.5,38.6,97.5c12.1,26.2,10.1,52.7-17.2,87.4"/>
</g>
<path class="st1" d="M1,505.5V0h542.8c0,0-19,25.1-18.4,51.3c0.6,26.4,24.8,49.8,33.2,72.8c8.4,23.1,13.8,72.5-9.4,116.3
	c-30.2,57.2-26.4,64.8-25.9,80.2c1.3,34.9,24,68.5,36.8,97.5c11.5,26.2,9.6,52.7-16.4,87.4"/>
<g>
	<path class="st0" d="M1,505.5V0h517.7c0,0-18.4,25-17.9,51.3c0.6,26.4,24.1,49.8,32.3,72.8c8.1,23.1,13.4,72.5-9.1,116.3
		c-29.4,57.2-25.7,64.8-25.2,80.2c1.3,34.9,23.3,68.5,35.8,97.5c11.2,26.2,9.3,52.7-15.9,87.4"/>
</g>
<path class="st1" d="M1,505.5V0h491.1c0,0-17.1,25.1-16.6,51.3c0.5,26.4,22.5,49.8,30.1,72.8c7.6,23.1,12.5,72.5-8.5,116.3
	c-27.3,57.2-23.9,64.8-23.5,80.2c1.2,34.9,21.7,68.5,33.3,97.5c10.4,26.2,8.7,52.7-14.8,87.4"/>
<path class="st0" d="M1,505.5V0h445.6c0,0-15.6,25.1-15.1,51.3c0.5,26.4,20.4,49.8,27.3,72.8c6.9,23.1,11.3,72.5-7.7,116.3
	c-24.8,57.2-21.7,64.8-21.3,80.2c1.1,34.9,19.7,68.5,30.2,97.5c9.4,26.2,7.9,52.7-13.4,87.4"/>
<g>
	<g>
		<path class="st2" d="M389.2,434.7c2.6,0,2.6-5,0-5S386.6,434.7,389.2,434.7L389.2,434.7z"/>
	</g>
</g>
<g>
	<g>
		<path class="st2" d="M324.1,261.1c2.6,0,2.6-5,0-5S321.5,261.1,324.1,261.1L324.1,261.1z"/>
	</g>
</g>
<g>
	<g>
		<path class="st2" d="M391.9,146.5c2.6,0,2.6-5,0-5S389.2,146.5,391.9,146.5L391.9,146.5z"/>
	</g>
</g>
<g>
	<g>
		<path class="st2" d="M408.8,218.1c2.6,0,2.6-5,0-5S406.2,218.1,408.8,218.1L408.8,218.1z"/>
	</g>
</g>
<g>
	<g>
		<path class="st2" d="M255.6,358.3c2.6,0,2.6-5,0-5C253,353.3,253,358.3,255.6,358.3L255.6,358.3z"/>
	</g>
</g>
<g>
	<g>
		<path class="st2" d="M307.1,117.8c2.6,0,2.6-5,0-5S304.5,117.8,307.1,117.8L307.1,117.8z"/>
	</g>
</g>
<g>
	<g>
		<path class="st2" d="M248.5,293c2.6,0,2.6-5,0-5C245.9,288,245.9,293,248.5,293L248.5,293z"/>
	</g>
</g>
<g>
	<g>
		<path class="st2" d="M394.5,289.8c2.6,0,2.6-5,0-5S391.9,289.8,394.5,289.8L394.5,289.8z"/>
	</g>
</g>
<g>
	<g>
		<path class="st2" d="M345,396.5c2.6,0,2.6-5,0-5C342.3,391.5,342.3,396.5,345,396.5L345,396.5z"/>
	</g>
</g>
<g>
	<g>
		<path class="st2" d="M385.4,377.4c2.6,0,2.6-5,0-5C382.7,372.4,382.7,377.4,385.4,377.4L385.4,377.4z"/>
	</g>
</g>
<g>
	<g>
		<path class="st2" d="M441.4,420.4c2.6,0,2.6-5,0-5S438.8,420.4,441.4,420.4L441.4,420.4z"/>
	</g>
</g>
<g>
	<g>
		<path class="st2" d="M408.8,330.3c2.6,0,2.6-5,0-5S406.2,330.3,408.8,330.3L408.8,330.3z"/>
	</g>
</g>
<g>
	<g>
		<path class="st2" d="M428.4,191.1c2.6,0,2.6-5,0-5C425.8,186.1,425.8,191.1,428.4,191.1L428.4,191.1z"/>
	</g>
</g>
<g>
	<g>
		<path class="st2" d="M352.8,15.9c2.6,0,2.6-5,0-5C350.1,10.9,350.1,15.9,352.8,15.9L352.8,15.9z"/>
	</g>
</g>
<g>
	<g>
		<path class="st2" d="M354.7,337.6c2.6,0,2.6-5,0-5C352.1,332.6,352.1,337.6,354.7,337.6L354.7,337.6z"/>
	</g>
</g>
<g>
	<g>
		<path class="st2" d="M313,191.1c2.6,0,2.6-5,0-5S310.4,191.1,313,191.1L313,191.1z"/>
	</g>
</g>
<g>
	<g>
		<path class="st2" d="M340.4,108.3c2.6,0,2.6-5,0-5C337.8,103.3,337.8,108.3,340.4,108.3L340.4,108.3z"/>
	</g>
</g>
<g>
	<g>
		<path class="st2" d="M268.7,92.4c2.6,0,2.6-5,0-5C266,87.4,266,92.4,268.7,92.4L268.7,92.4z"/>
	</g>
</g>
<g>
	<g>
		<path class="st2" d="M268.7,92.4c2.6,0,2.6-5,0-5C266,87.4,266,92.4,268.7,92.4L268.7,92.4z"/>
	</g>
</g>
<g>
	<g>
		<path class="st2" d="M220.4,240.5c2.6,0,2.6-5,0-5C217.8,235.5,217.8,240.5,220.4,240.5L220.4,240.5z"/>
	</g>
</g>
<g>
	<g>
		<path class="st2" d="M246.6,121c2.6,0,2.6-5,0-5C243.9,116,243.9,121,246.6,121L246.6,121z"/>
	</g>
</g>
<g>
	<g>
		<path class="st2" d="M310.4,109.9c2.6,0,2.6-5,0-5C307.8,104.9,307.8,109.9,310.4,109.9L310.4,109.9z"/>
	</g>
</g>
<g>
	<g>
		<path class="st2" d="M310.4,78c2.6,0,2.6-5,0-5C307.8,73,307.8,78,310.4,78L310.4,78z"/>
	</g>
</g>
<g>
	<g>
		<path class="st2" d="M341.7,76.5c2.6,0,2.6-5,0-5S339.1,76.5,341.7,76.5L341.7,76.5z"/>
	</g>
</g>
<g>
	<g>
		<path class="st2" d="M383.4,173.6c2.6,0,2.6-5,0-5S380.7,173.6,383.4,173.6L383.4,173.6z"/>
	</g>
</g>
<g>
	<g>
		<path class="st2" d="M373,33.5c2.6,0,2.6-5,0-5S370.3,33.5,373,33.5L373,33.5z"/>
	</g>
</g>
<g>
	<g>
		<path class="st2" d="M315.6,41.4c2.6,0,2.6-5,0-5C313,36.4,313,41.4,315.6,41.4L315.6,41.4z"/>
	</g>
</g>
<g>
	<g>
		<path class="st2" d="M403,132.2c2.6,0,2.6-5,0-5C400.3,127.2,400.3,132.2,403,132.2L403,132.2z"/>
	</g>
</g>
<g>
	<g>
		<path class="st2" d="M406.8,167.2c2.6,0,2.6-5,0-5C404.2,162.2,404.2,167.2,406.8,167.2L406.8,167.2z"/>
	</g>
</g>
<g>
	<g>
		<path class="st2" d="M344.3,261.2c2.6,0,2.6-5,0-5S341.7,261.2,344.3,261.2L344.3,261.2z"/>
	</g>
</g>
<g>
	<g>
		<path class="st2" d="M345.6,172c2.6,0,2.6-5,0-5C343,167,343,172,345.6,172L345.6,172z"/>
	</g>
</g>
<g>
	<g>
		<path class="st2" d="M386.1,248.4c2.6,0,2.6-5,0-5C383.4,243.4,383.4,248.4,386.1,248.4L386.1,248.4z"/>
	</g>
</g>
<g>
	<g>
		<path class="st2" d="M366.5,301c2.6,0,2.6-5,0-5C363.9,296,363.8,301,366.5,301L366.5,301z"/>
	</g>
</g>
<g>
	<g>
		<path class="st2" d="M367.8,280.3c2.6,0,2.6-5,0-5C365.1,275.3,365.1,280.3,367.8,280.3L367.8,280.3z"/>
	</g>
</g>
<g>
	<g>
		<path class="st2" d="M408.8,69.4c2.6,0,2.6-5,0-5S406.2,69.4,408.8,69.4L408.8,69.4z"/>
	</g>
</g>
<g>
	<g>
		<path class="st2" d="M296.1,342.4c2.6,0,2.6-5,0-5C293.5,337.4,293.5,342.4,296.1,342.4L296.1,342.4z"/>
	</g>
</g>
<g>
	<g>
		<path class="st2" d="M276.5,194.3c2.6,0,2.6-5,0-5C273.9,189.3,273.9,194.3,276.5,194.3L276.5,194.3z"/>
	</g>
</g>
<g>
	<g>
		<path class="st2" d="M255,15.9c2.6,0,2.6-5,0-5S252.4,15.9,255,15.9L255,15.9z"/>
	</g>
</g>
<g>
	<g>
		<path class="st2" d="M304.5,95.5c2.6,0,2.6-5,0-5S301.9,95.5,304.5,95.5L304.5,95.5z"/>
	</g>
</g>
<g>
	<g>
		<path class="st2" d="M299.4,259.5c2.6,0,2.6-5,0-5S296.7,259.5,299.4,259.5L299.4,259.5z"/>
	</g>
</g>
<g>
	<g>
		<path class="st2" d="M206.8,117.8c2.6,0,2.6-5,0-5S204.2,117.8,206.8,117.8L206.8,117.8z"/>
	</g>
</g>
<g>
	<g>
		<path class="st2" d="M186.5,265.9c2.6,0,2.6-5,0-5C183.9,260.9,183.9,265.9,186.5,265.9L186.5,265.9z"/>
	</g>
</g>
<g>
	<g>
		<path class="st2" d="M135.7,124.2c2.6,0,2.6-5,0-5S133.1,124.2,135.7,124.2L135.7,124.2z"/>
	</g>
</g>
<g>
	<g>
		<path class="st2" d="M77.1,207c2.6,0,2.6-5,0-5C74.5,202,74.5,207,77.1,207L77.1,207z"/>
	</g>
</g>
<g>
	<g>
		<path class="st2" d="M2.8,66.9c2.6,0,2.6-5,0-5C0.1,61.9,0.1,66.9,2.8,66.9L2.8,66.9z"/>
	</g>
</g>
<g>
	<g>
		<path class="st2" d="M62.1,52.6c2.6,0,2.6-5,0-5S59.5,52.6,62.1,52.6L62.1,52.6z"/>
	</g>
</g>
<g>
	<g>
		<path class="st2" d="M146.8,195.9c2.6,0,2.6-5,0-5S144.2,195.9,146.8,195.9L146.8,195.9z"/>
	</g>
</g>
<g>
	<g>
		<path class="st2" d="M96,299.4c2.6,0,2.6-5,0-5C93.4,294.4,93.4,299.4,96,299.4L96,299.4z"/>
	</g>
</g>
<g>
	<g>
		<path class="st2" d="M235.5,377.4c2.6,0,2.6-5,0-5C232.8,372.4,232.8,377.4,235.5,377.4L235.5,377.4z"/>
	</g>
</g>
<g>
	<g>
		<path class="st2" d="M51.7,332.8c2.6,0,2.6-5,0-5C49,327.8,49,332.8,51.7,332.8L51.7,332.8z"/>
	</g>
</g>
<g>
	<g>
		<path class="st2" d="M101.2,420.4c2.6,0,2.6-5,0-5C98.5,415.4,98.5,420.4,101.2,420.4L101.2,420.4z"/>
	</g>
</g>
<g>
	<g>
		<path class="st2" d="M159.9,461.8c2.6,0,2.6-5,0-5C157.2,456.8,157.2,461.8,159.9,461.8L159.9,461.8z"/>
	</g>
</g>
<g>
	<g>
		<path class="st2" d="M271.9,464.9c2.6,0,2.6-5,0-5S269.3,464.9,271.9,464.9L271.9,464.9z"/>
	</g>
</g>
</svg>
