<?xml version="1.0" encoding="utf-8"?>
<!-- Generator: Adobe Illustrator 24.1.1, SVG Export Plug-In . SVG Version: 6.00 Build 0)  -->
<svg version="1.1" id="Layer_1" xmlns="http://www.w3.org/2000/svg" xmlns:xlink="http://www.w3.org/1999/xlink" x="0px" y="0px"
	 viewBox="0 0 505.6 505.5" style="enable-background:new 0 0 505.6 505.5;" xml:space="preserve">
<style type="text/css">
	.st0{fill:#E3AFB0;}
	.st1{fill:#D3A3A5;}
	.st2{fill:#C69A9C;}
</style>
<g>
	<path class="st0" d="M505.6,504.3H0.1V93.4c0,0,25,19.9,51.3,19.3c26.4-0.6,49.8-26.1,72.8-34.8c23.1-8.8,72.5-14.4,116.3,9.8
		c57.2,31.7,64.8,27.7,80.2,27.2c34.9-1.4,68.5-25.2,97.5-38.6c26.2-12.1,52.7-10.1,87.4,17.2"/>
</g>
<path class="st1" d="M505.6,504.3H0.1V109.5c0,0,25.1,19,51.3,18.4c26.4-0.6,49.8-24.8,72.8-33.2c23.1-8.4,72.5-13.8,116.3,9.4
	c57.2,30.2,64.8,26.4,80.2,25.9c34.9-1.3,68.5-24,97.5-36.8c26.2-11.5,52.7-9.6,87.4,16.4"/>
<g>
	<path class="st0" d="M505.6,504.3H0.1V134.6c0,0,25,18.4,51.3,17.9c26.4-0.6,49.8-24.1,72.8-32.3c23.1-8.1,72.5-13.4,116.3,9.1
		c57.2,29.4,64.8,25.7,80.2,25.2c34.9-1.3,68.5-23.3,97.5-35.8c26.2-11.2,52.7-9.3,87.4,15.9"/>
</g>
<path class="st1" d="M505.6,504.3H0.1V161.2c0,0,25.1,17.1,51.3,16.6c26.4-0.5,49.8-22.5,72.8-30.1c23.1-7.6,72.5-12.5,116.3,8.5
	c57.2,27.3,64.8,23.9,80.2,23.5c34.9-1.2,68.5-21.7,97.5-33.3c26.2-10.4,52.7-8.7,87.4,14.8"/>
<path class="st0" d="M505.6,504.3H0.1V206.7c0,0,25.1,15.6,51.3,15.1c26.4-0.5,49.8-20.4,72.8-27.3c23.1-6.9,72.5-11.3,116.3,7.7
	c57.2,24.8,64.8,21.7,80.2,21.3c34.9-1.1,68.5-19.7,97.5-30.2c26.2-9.4,52.7-7.9,87.4,13.4"/>
<g>
	<g>
		<path class="st2" d="M434.8,264.1c0-2.6-5-2.6-5,0S434.8,266.7,434.8,264.1L434.8,264.1z"/>
	</g>
</g>
<g>
	<g>
		<path class="st2" d="M261.2,329.2c0-2.6-5-2.6-5,0S261.2,331.8,261.2,329.2L261.2,329.2z"/>
	</g>
</g>
<g>
	<g>
		<path class="st2" d="M146.6,261.4c0-2.6-5-2.6-5,0S146.6,264.1,146.6,261.4L146.6,261.4z"/>
	</g>
</g>
<g>
	<g>
		<path class="st2" d="M218.2,244.5c0-2.6-5-2.6-5,0S218.2,247.1,218.2,244.5L218.2,244.5z"/>
	</g>
</g>
<g>
	<g>
		<path class="st2" d="M358.4,397.7c0-2.6-5-2.6-5,0S358.4,400.3,358.4,397.7L358.4,397.7z"/>
	</g>
</g>
<g>
	<g>
		<path class="st2" d="M117.9,346.2c0-2.6-5-2.6-5,0S117.9,348.8,117.9,346.2L117.9,346.2z"/>
	</g>
</g>
<g>
	<g>
		<path class="st2" d="M293.1,404.8c0-2.6-5-2.6-5,0S293.1,407.4,293.1,404.8L293.1,404.8z"/>
	</g>
</g>
<g>
	<g>
		<path class="st2" d="M289.9,258.8c0-2.6-5-2.6-5,0S289.9,261.4,289.9,258.8L289.9,258.8z"/>
	</g>
</g>
<g>
	<g>
		<path class="st2" d="M396.6,308.3c0-2.6-5-2.6-5,0C391.6,311,396.6,311,396.6,308.3L396.6,308.3z"/>
	</g>
</g>
<g>
	<g>
		<path class="st2" d="M377.5,267.9c0-2.6-5-2.6-5,0C372.5,270.6,377.5,270.6,377.5,267.9L377.5,267.9z"/>
	</g>
</g>
<g>
	<g>
		<path class="st2" d="M420.5,211.9c0-2.6-5-2.6-5,0S420.5,214.5,420.5,211.9L420.5,211.9z"/>
	</g>
</g>
<g>
	<g>
		<path class="st2" d="M330.4,244.5c0-2.6-5-2.6-5,0S330.4,247.1,330.4,244.5L330.4,244.5z"/>
	</g>
</g>
<g>
	<g>
		<path class="st2" d="M191.2,224.9c0-2.6-5-2.6-5,0S191.2,227.5,191.2,224.9L191.2,224.9z"/>
	</g>
</g>
<g>
	<g>
		<path class="st2" d="M16,300.5c0-2.6-5-2.6-5,0C11,303.2,16,303.2,16,300.5L16,300.5z"/>
	</g>
</g>
<g>
	<g>
		<path class="st2" d="M337.7,298.6c0-2.6-5-2.6-5,0S337.7,301.2,337.7,298.6L337.7,298.6z"/>
	</g>
</g>
<g>
	<g>
		<path class="st2" d="M191.2,340.3c0-2.6-5-2.6-5,0S191.2,342.9,191.2,340.3L191.2,340.3z"/>
	</g>
</g>
<g>
	<g>
		<path class="st2" d="M108.4,312.9c0-2.6-5-2.6-5,0S108.4,315.5,108.4,312.9L108.4,312.9z"/>
	</g>
</g>
<g>
	<g>
		<path class="st2" d="M92.5,384.6c0-2.6-5-2.6-5,0C87.5,387.3,92.5,387.3,92.5,384.6L92.5,384.6z"/>
	</g>
</g>
<g>
	<g>
		<path class="st2" d="M92.5,384.6c0-2.6-5-2.6-5,0C87.5,387.3,92.5,387.3,92.5,384.6L92.5,384.6z"/>
	</g>
</g>
<g>
	<g>
		<path class="st2" d="M240.6,432.9c0-2.6-5-2.6-5,0C235.6,435.5,240.6,435.5,240.6,432.9L240.6,432.9z"/>
	</g>
</g>
<g>
	<g>
		<path class="st2" d="M121.1,406.7c0-2.6-5-2.6-5,0C116.1,409.4,121.1,409.4,121.1,406.7L121.1,406.7z"/>
	</g>
</g>
<g>
	<g>
		<path class="st2" d="M110,342.9c0-2.6-5-2.6-5,0S110,345.5,110,342.9L110,342.9z"/>
	</g>
</g>
<g>
	<g>
		<path class="st2" d="M78.1,342.9c0-2.6-5-2.6-5,0S78.1,345.5,78.1,342.9L78.1,342.9z"/>
	</g>
</g>
<g>
	<g>
		<path class="st2" d="M76.6,311.6c0-2.6-5-2.6-5,0S76.6,314.2,76.6,311.6L76.6,311.6z"/>
	</g>
</g>
<g>
	<g>
		<path class="st2" d="M173.7,269.9c0-2.6-5-2.6-5,0S173.7,272.6,173.7,269.9L173.7,269.9z"/>
	</g>
</g>
<g>
	<g>
		<path class="st2" d="M33.6,280.3c0-2.6-5-2.6-5,0S33.6,283,33.6,280.3L33.6,280.3z"/>
	</g>
</g>
<g>
	<g>
		<path class="st2" d="M41.5,337.7c0-2.6-5-2.6-5,0S41.5,340.3,41.5,337.7L41.5,337.7z"/>
	</g>
</g>
<g>
	<g>
		<path class="st2" d="M132.3,250.3c0-2.6-5-2.6-5,0C127.3,253,132.3,253,132.3,250.3L132.3,250.3z"/>
	</g>
</g>
<g>
	<g>
		<path class="st2" d="M167.3,246.5c0-2.6-5-2.6-5,0C162.3,249.1,167.3,249.1,167.3,246.5L167.3,246.5z"/>
	</g>
</g>
<g>
	<g>
		<path class="st2" d="M261.3,309c0-2.6-5-2.6-5,0S261.3,311.6,261.3,309L261.3,309z"/>
	</g>
</g>
<g>
	<g>
		<path class="st2" d="M172.1,307.7c0-2.6-5-2.6-5,0S172.1,310.3,172.1,307.7L172.1,307.7z"/>
	</g>
</g>
<g>
	<g>
		<path class="st2" d="M248.5,267.2c0-2.6-5-2.6-5,0C243.5,269.9,248.5,269.9,248.5,267.2L248.5,267.2z"/>
	</g>
</g>
<g>
	<g>
		<path class="st2" d="M301.1,286.8c0-2.6-5-2.6-5,0S301.1,289.5,301.1,286.8L301.1,286.8z"/>
	</g>
</g>
<g>
	<g>
		<path class="st2" d="M280.4,285.5c0-2.6-5-2.6-5,0C275.4,288.2,280.4,288.2,280.4,285.5L280.4,285.5z"/>
	</g>
</g>
<g>
	<g>
		<path class="st2" d="M69.5,244.5c0-2.6-5-2.6-5,0S69.5,247.1,69.5,244.5L69.5,244.5z"/>
	</g>
</g>
<g>
	<g>
		<path class="st2" d="M342.5,357.2c0-2.6-5-2.6-5,0S342.5,359.8,342.5,357.2L342.5,357.2z"/>
	</g>
</g>
<g>
	<g>
		<path class="st2" d="M194.4,376.8c0-2.6-5-2.6-5,0S194.4,379.4,194.4,376.8L194.4,376.8z"/>
	</g>
</g>
<g>
	<g>
		<path class="st2" d="M16,398.3c0-2.6-5-2.6-5,0S16,400.9,16,398.3L16,398.3z"/>
	</g>
</g>
<g>
	<g>
		<path class="st2" d="M95.6,348.8c0-2.6-5-2.6-5,0S95.6,351.4,95.6,348.8L95.6,348.8z"/>
	</g>
</g>
<g>
	<g>
		<path class="st2" d="M259.6,353.9c0-2.6-5-2.6-5,0S259.6,356.6,259.6,353.9L259.6,353.9z"/>
	</g>
</g>
<g>
	<g>
		<path class="st2" d="M117.9,446.5c0-2.6-5-2.6-5,0S117.9,449.1,117.9,446.5L117.9,446.5z"/>
	</g>
</g>
<g>
	<g>
		<path class="st2" d="M266,466.8c0-2.6-5-2.6-5,0S266,469.4,266,466.8L266,466.8z"/>
	</g>
</g>
<g>
	<g>
		<path class="st2" d="M377.5,417.8c0-2.6-5-2.6-5,0C372.5,420.5,377.5,420.5,377.5,417.8L377.5,417.8z"/>
	</g>
</g>
<g>
	<g>
		<path class="st2" d="M51.7,332.8c2.6,0,2.6-5,0-5C49,327.8,49,332.8,51.7,332.8L51.7,332.8z"/>
	</g>
</g>
<g>
	<g>
		<path class="st2" d="M461.9,493.4c0-2.6-5-2.6-5,0C456.9,496.1,461.9,496.1,461.9,493.4L461.9,493.4z"/>
	</g>
</g>
<g>
	<g>
		<path class="st2" d="M465,381.4c0-2.6-5-2.6-5,0S465,384,465,381.4L465,381.4z"/>
	</g>
</g>
</svg>
