<?xml version="1.0" encoding="utf-8"?>
<!-- Generator: Adobe Illustrator 24.1.1, SVG Export Plug-In . SVG Version: 6.00 Build 0)  -->
<svg version="1.1" id="Layer_1" xmlns="http://www.w3.org/2000/svg" xmlns:xlink="http://www.w3.org/1999/xlink" x="0px" y="0px"
	 viewBox="0 0 700 300" style="enable-background:new 0 0 700 300;" xml:space="preserve">
<style type="text/css">
	.st0{fill:#FFFFFF;}
</style>
<g>
	<path class="st0" d="M51.8,94.2c3.1,0,9.9,1.8,20.6,5.3c3.9,1.2,8,3.9,12.5,8.2c1.3,1.2,2.7,1.9,4.2,1.9c3.3,4.5,5,9.3,5,14.2
		c-0.7,5.3-3.4,11-8.1,16.9c-5.7,5.6-9.2,9.4-10.6,11.6c-4.5,2.4-7.5,4.3-8.9,5.7c-2.3,0.4-5.7,2.4-10.3,5.9
		c-2,1.6-6.1,2.4-12.2,2.4c0,3.1-1.6,6.2-4.7,9.2c-0.8,0-1.4,2.4-1.7,7.2v0.8c0.8,1.9,1.1,3,1.1,3.2v0.3c-1.7,5.7-2.5,9-2.5,10
		c-2.3,1-3.4,3.2-3.4,6.8c0,1.4-0.6,2.7-1.9,3.9h-0.6c-0.1-1.7-0.6-2.6-1.4-2.6c0,1.8-1.5,6.5-4.4,14.2c-0.3,2.6-0.9,3.9-1.7,3.9
		l-0.2-1.3v-1c0-1.8,0.7-5.9,2.2-12.2v-0.5c0-6.2-0.5-9.2-1.4-9.2c-0.1-0.3-0.2-0.7-0.2-1.4c0.3-4.8,0.5-7.8,0.5-8.9
		c-0.3-0.7-0.5-1.1-0.8-1.1c0,0.3-0.2,0.5-0.6,0.5h-0.6V187c0-3,1.5-9.4,4.4-19.2c0.4-1.7,0.6-2.7,0.6-3.2c-0.2,0-0.5-0.3-0.8-0.8
		v-1.6l0.2-2.6c-0.3,0-1.6-0.6-3.9-1.9v-0.5c0.1-0.4,0.3-0.6,0.6-0.6h3.3c0-0.9-2.9-2.5-8.6-4.7v-0.6c0-0.3,0.2-0.5,0.5-0.5h1.5
		c2.8,1,4.9,1.5,6.4,1.5h0.8c1.7,0,3-2.4,3.9-7.3c0.2-0.1,0.9-2.7,2.2-7.9c-0.2-1-0.2-1.8-0.2-2.4v-1.1c1.4-4.7,2.1-7.5,2.1-8.4
		c0.8,0,1.2-2,1.5-6.1c1.1-3.5,2.2-5.3,3.3-5.3c0.1,0,2.5-1.1,6.9-3.4c2.9,0,4.6-0.1,5.3-0.3v-0.2c-4.6-0.7-8.9-1.1-12.8-1.3
		c-0.8-0.6-2.2-1.4-4.2-2.1c-4.3,0.3-7.5,0.5-9.7,0.5l-0.3-0.5l2.8-2.1v-0.2l-1.5-0.3c-1.5,0.5-4.2,1-8.1,1.4
		c-2.8,2.1-5.9,3.2-9.1,3.2c-1.2,0.9-2.3,1.4-3.1,1.4h0c-0.4,0-0.6-0.2-0.6-0.6v-0.5c13.1-6.2,20.6-9.2,22.6-9.2
		c2.9,0,5.8-1.1,8.6-3.2c1.8,0,2.8-0.1,2.8-0.3l1.4,0.3c1.4,0,3.9,0.1,7.6,0.2c1.9-0.3,2.9-0.5,3-0.5v-0.5c-0.7,0-1.1-0.3-1.1-0.8
		v-0.3L51.8,94.2z M12.4,150.9h1.4l0.3,1.3v0.5l-1.5,0.3h-0.5l-0.3-1.9L12.4,150.9z M16.3,158.3h0.3c1.8,0.2,2.8,1,2.8,2.4v0.5
		c-1.8,0.6-2.8,1-2.8,1.1c-1.1,0-1.7-0.6-1.7-1.8v-0.3C14.9,159.2,15.3,158.6,16.3,158.3z M26.6,106.4v0.2h0.6v-0.2H26.6z
		 M39.3,110.8h2l0.2,1.3v0.3c-0.3,0-0.7,0.2-1.1,0.6h-0.8l-0.6-1.3C39.2,111.3,39.3,111,39.3,110.8z M61.1,109.8l-0.3,1.9v6
		c0,0.2,0.1,0.3,0.3,0.3c-1.5,6.6-3,10-4.5,10c-2.2,2.5-3.6,6.1-4.2,10.8c0,0.7-0.2,2.3-0.6,4.7c4.8-1.8,8.3-3.3,10.6-4.4
		c2.4-4.1,5.2-6.1,8.3-6.1c3.2-1.8,4.7-4.9,4.7-9.2c0-3.2-2.2-6.2-6.7-9.2C68.8,112.3,66.2,110.7,61.1,109.8z M52.1,95.1
		c0,0.3,0.2,0.5,0.6,0.5v-0.5H52.1z M52.4,164.3v0.3h0.3c0.4-0.2,0.6-0.3,0.8-0.3V164h-0.2C52.9,164.2,52.6,164.3,52.4,164.3z"/>
	<path class="st0" d="M118.8,98.9h1.9c5.8,0.5,8.7,1.2,8.7,1.9c1,0.8,2.6,1.6,4.7,2.4c1,1.4,3.1,3.1,6.2,5.2
		c1.1,1.5,1.7,2.9,1.7,4.3c0,1.1,0.1,2.9,0.3,5.3l-1,7.1c-0.5,1.6-1.4,2.4-2.6,2.4H137c-0.2,0-0.6,0.8-1.5,2.4h-0.2
		c-0.5,0-0.8-0.6-1-1.7H134c-0.5,0-1.1,1.6-1.6,4.8c-0.7,0.8-1.1,1.2-1.2,1.2H131l-0.2-1.2c0-0.8,0.1-2,0.2-3.6l-1-0.2
		c0-0.6,0.4-1.3,1.2-1.9c-0.5-3-1.1-4.6-1.9-4.6c0-0.3-1-2.2-2.9-5.7c0-1-0.4-1.7-1.2-2.1c-4.4,0.3-7.6,0.9-9.4,1.9
		c-3.6,2.1-5.9,3.9-6.9,5.5c-1.5,2.7-2.2,4.6-2.2,5.7v0.2c0.3,1.1,0.5,1.7,0.5,1.9c-0.3,1.7-0.5,2.8-0.5,3.4c0.6,0,1,1,1,3.1
		c1.5,1.5,2.6,3.3,3.2,5.5c1.3,0.7,1.9,1.1,1.9,1.4v0.2l-0.3,1.7c1.3,1.3,3.3,2.8,6,4.5c7.8,10.3,11.8,16,11.8,17.2
		c2.3,5,3.4,9.9,3.4,14.5c0,4.8-1.8,8.2-5.3,10.1c-0.7,0.6-1.9,2.8-3.6,6.6c-2.7,3.5-6.1,5.2-10.1,5.2c-1.4,1-2.6,1.5-3.8,1.5
		c-1.4-0.2-2.5-0.2-3.4-0.2h-2.1l-4.6,1.2h-0.2c-1.1-1-2.1-1.5-3.1-1.5l-3.4,0.7c-5.5-0.4-8.2-1.6-8.2-3.5c0-0.7-1.7-1.6-5-2.6h-0.7
		c-0.3,0-0.6,0.1-0.9,0.2c-1.9-0.8-3.8-2.6-5.5-5.5l0.2-1.7v-0.5c0-0.2-0.4-1.7-1.2-4.3v-0.7h1c0,0.6,0.3,0.9,0.7,0.9l0.5-0.2
		c0-2.5-0.6-6.3-1.7-11.5c0.2-0.3,0.2-0.6,0.2-0.7H74c0.2,0,0.7,1.2,1.5,3.6h0.3l-0.3-1.2v-1.9H76c1.4,2.9,2.2,4.3,2.4,4.3v-0.3
		c-0.6-4.1-1-6.7-1-7.6c0-3.9,1.2-9.4,3.6-16.5h0.7l0.5,0.3c0,0.6-0.8,4.5-2.4,11.7c-0.1,0.7-0.2,1.9-0.2,3.6c0,2.5,1.7,6.4,5,11.9
		c0.4,0.4,1.7,1.1,4.1,2.1c0.6,1.3,1.4,1.9,2.4,1.9h1.1v1.2l-0.2,0.5c1.7,1.1,3.5,1.7,5.3,1.7h0.2v-0.3c-1-0.2-1.8-0.8-2.4-1.9V188
		c0-0.3,0.2-0.5,0.5-0.5c2.1,1,3.4,1.5,3.8,1.5c1,0.3,2.8,0.5,5.3,0.7l0.5-0.3c0.2,0,0.3,0.1,0.3,0.3c4.7,0,7.4-0.8,8.1-2.4
		c1.4-1,2.1-2.7,2.1-5v-1.9c0-0.8-0.2-2.5-0.7-5.3c0.3-1.2,0.6-1.8,1-1.9c-0.7-2.4-3.5-6.1-8.6-11.2c-0.5,0-0.7-0.1-0.7-0.2
		c-0.7,0-1.4,1.1-2.2,3.3h-0.2c-0.5-1-0.9-1.5-1.2-1.5h-0.2c-0.3,1.1-0.6,3-1,6h-1c-0.3-0.7-0.6-3.2-1-7.4c-1.7-1.4-2.6-2.5-2.6-3.3
		l1.4-1.2c0-0.7-1.2-2.1-3.6-4.3c-1.7-5.7-3.2-8.6-4.6-8.6c-0.8-1.2-1.2-2.3-1.2-3.3c0.3,0,0.5-0.1,0.5-0.5v-0.2
		c-0.3-1.2-1.1-2.7-2.4-4.6c-0.7-2.6-1-4.4-1-5.5c0.6-6.3,1.4-9.5,2.4-9.5c0.4-0.5,0.8-1.8,1.2-4c0.7-1.1,1-2.4,1-3.9v-1.6
		c3.5-4.5,6.1-6.7,7.9-6.7c0.4,0,2-0.8,4.8-2.4c0.8,0,1.2,0.1,1.2,0.2v0.8c-0.3,0-0.5,0.2-0.7,0.7c0,0.3,0.2,0.4,0.5,0.4h0.7
		C110.3,100.8,114.7,98.9,118.8,98.9z M76,178v0.5h0.3V178H76z M76,180.7v0.7c1.1,4.1,2.4,6.2,3.9,6.2v-0.2c-1.8-2-3-4.2-3.6-6.7H76
		z M96,153.5v0.2h0.5v-0.2H96z M103,171.8c0.6,0.2,0.9,0.5,0.9,0.7v0.9h-1.6V172C102.4,172,102.6,172,103,171.8z M107.5,165.6
		c1.4,0,2.1,0.9,2.1,2.6c-0.6,0.5-1.2,0.7-1.7,0.7h-0.5c-0.5,0-0.8-0.7-1-2.1C106.6,166.6,106.9,166.2,107.5,165.6z M112.3,118.2
		l-0.5,0.7h0.3l0.5-0.7H112.3z M132.2,136.7h0.5c0.2,0,0.5,0.2,0.7,0.7c0,0.3-0.3,0.6-0.9,1h-0.3c-0.2,0-0.5-0.2-0.7-0.7v-0.3
		C131.5,137.3,131.7,137,132.2,136.7z M138,131.3c1.3,0.5,1.9,1.2,1.9,2.1c-0.3,0.7-0.6,1.1-1,1.2h-1.7l-0.2-1.2v-1.2
		C137.1,132.1,137.4,131.7,138,131.3z"/>
	<path class="st0" d="M194.7,94.7h0.2v0.5l-1.5,5c0,2.4-0.8,5-2.3,7.7c0,2.9-1.3,5.7-3.9,8.4c-2.7,8.8-5.2,15.2-7.4,19.3
		c-3.3,3-5.6,6.2-6.9,9.7c-0.7,0-1.5,2.5-2.5,7.4c-1.2,4.6-3,6.9-5.2,6.9c-0.6,1-1.7,4.5-3.4,10.4c-1.2,1.5-2.3,4.2-3.2,8.2
		c-1.4,1.1-2,2.9-2,5.2v1.5c0,0.3-0.2,0.5-0.5,0.5h-0.5c0-0.5-0.2-0.8-0.5-0.8c-0.7,0-1.1,1.2-1.2,3.5c0.3,5.3,0.5,8.2,0.5,8.7v2
		c0,0.3-0.2,0.5-0.5,0.5c-0.4,0-1.1-2.5-2-7.4c-0.2,0-0.3-0.2-0.3-0.7c-0.9,1.2-2.2,2.4-3.9,3.7c-1.6,2.6-3,6.1-4.2,10.6
		c0.2,1.1,0.3,2,0.3,2.7v0.5c0,0.8-1.3,4-4,9.7c-1,3.3-2,5-3.2,5c-1,0.5-2,2.3-3.2,5.7c-1.3,3.5-2.3,5.2-3.2,5.2l-0.3-0.5v-0.3
		c0-1.2,0.2-2.1,0.5-2.7l-0.5-0.3c-0.3,0-2,3.2-5,9.5c-1.1,2.1-2.5,3.9-4.2,5.4c-0.6,2.2-1.3,3.3-2,3.3c-0.3,0-0.5-0.2-0.5-0.5v-0.5
		c0.9-1.2,2-4,3.5-8.2c2.3-2.9,3.5-5.9,3.5-9.2c1.3-2.6,2-4.4,2-5.5c0-1.2-0.2-2.3-0.5-3.2c2.3-5.8,3.5-9.9,3.5-12.2l-0.5-0.2
		c0,0.3-0.2,0.5-0.5,0.5s-0.5-0.2-0.5-0.5c0-1.2,1.8-5.9,5.5-14.1c1.2-3.5,3.2-8.2,6-14.1c-0.2-0.9-0.3-1.6-0.3-2.2v-0.5
		c0-0.7,0.8-2.6,2.3-5.7l0.2-1.2c-0.2,0-0.9-1.4-2.2-4.2c-0.7-0.8-1-1.5-1-2.3v-0.5l1.5-4.7c0.8-1.3,1.2-2.2,1.2-2.7v-0.5l-2.5-12.4
		c0-2.4-0.7-3.9-2.2-4.7c-1-5.6-2-8.4-3-8.4c-0.3-3.2-0.7-4.7-1.2-4.7l0.2-1.7v-0.5c-1.1-2.7-1.7-4.4-1.7-5v-0.2
		c0-0.3,1.1-2.4,3.2-6.2c1.7-4.1,3.2-6.2,4.7-6.2h2.8c0.3-1.4,0.9-2.3,1.7-2.7h0.2c0.6,0.9,1.2,1.4,1.7,1.5c0.6-4.5,1.2-6.7,1.7-6.7
		h0.2c0.5,0,0.8,1.9,1,5.7c0.3,1.5,0.6,3.7,1,6.5c1.3,0.9,2,3.2,2,6.9v0.7c-0.8,3.4-1.2,5.5-1.2,6.2c0,0.5,0.8,2.4,2.3,5.7v1.2
		c-0.6,0-1.1,0.5-1.5,1.5l2.2,5.5v1c0,0.5-0.3,1.6-1,3.5c0.4,0,0.8,0.7,1.2,2h0.2c0-0.8,1-3.1,3-6.9c0-1.2,1-3.4,3-6.5
		c0.6-4.2,1.7-7.3,3.2-9.1c1.4-2.3,4.1-5.1,8.2-8.4c-0.8,0-1.2-0.2-1.2-0.5V113c0.4-0.5,0.8-1.3,1.2-2.5c-0.8-0.3-1.2-0.8-1.2-1.5
		l2-5.2l3.7-1.7c0-0.6,2.2-1.4,6.7-2.5l2-2.5l0.5-0.2c1.1,0.3,1.8,0.8,2,1.5v0.5l-0.2,1.2l2-1.7h0.7c0,1.2,0.4,2,1.2,2.3
		c0.8-1.2,1.7-3,2.8-5.5C193.7,94.9,194.2,94.7,194.7,94.7z M130.5,232.4v0.5h0.3v-0.5H130.5z M138.9,98.4c1,0,1.6,0.4,2,1.2v0.5
		c0,1.3-0.3,2-1,2.3h-1c-1.2-0.8-1.7-1.6-1.7-2.3C137.2,99,137.8,98.4,138.9,98.4z M144.9,93.2h1.5l0.2,1.2V95l-1.2,0.2h-0.7
		l-0.2-1.2C144.7,94,144.9,93.7,144.9,93.2z M178.8,134.6c0,0.3-0.2,0.7-0.5,1.2h0.2l0.5-1v-0.2H178.8z M185,91.5h0.8
		c1.5,0,2.2,0.7,2.2,2c0,0.7-0.5,1.3-1.5,2h-1.2c0-0.2-0.3-0.8-1-2C184.7,92.3,185,91.7,185,91.5z M193.6,89.2h1
		c0.3,0,0.5,0.2,0.5,0.5V91l-1.2,0.3l-0.7-1v-0.5C193.2,89.4,193.4,89.2,193.6,89.2z"/>
	<path class="st0" d="M232.6,92c9.2,2.4,13.8,5.2,13.8,8.4v0.9c0,0.2-0.1,0.2-0.3,0.2c1.6,1.8,2.4,4.7,2.4,8.6c-0.3,0-0.6,0.3-1.1,1
		v1.6c0,0.5-1,1.9-3.1,4.3c-1.1,2.1-2.5,3.2-4.2,3.2c-0.4,0-1.7-0.3-3.9-0.9c0,0.3-0.3,0.9-0.8,2H235v-0.9l0.2-1.1l-1.3-0.2
		c-1.2,0-2.6,1.8-4.2,5.4h-0.8V124c1.2-2.4,1.8-4.9,1.8-7.5l-0.2-2.7c-1.6,0-4.6,2.7-8.9,7.9c-5.4,4.8-8.1,8.4-8.1,10.6
		c-0.9,2.7-2.2,4.7-3.9,5.9c-1.6,2.6-2.6,4.1-3.2,4.6c-1.5,0-3.4,4.1-5.5,12.3c-5.4,11.1-8.1,18.4-8.1,22c-0.7,1.9-1.4,3.6-2.1,5
		l0.2,1.1c0,0.1-0.3,0.6-1,1.4c0.3,1.1,0.5,1.7,0.5,1.8c-0.3,0.5-0.5,0.9-0.5,1.4v0.2c0,0.8,0.3,1.5,0.8,2.3H190
		c0,0.2,0.3,0.6,0.8,1.1c2.6-0.6,3.9-1.4,3.9-2.3c1.3-0.8,2.5-2.7,3.7-5.7c3.2-2.5,5.1-4.4,5.7-5.9c2-1.7,3.4-2.5,4.4-2.5v0.2
		l-0.5,0.7v0.2h0.2c0.8-0.3,2-1.7,3.7-4.1c0.5,0,2.4-1.9,5.7-5.7c0.8-0.6,1.6-1,2.4-1.4v0.5c-0.3,1-0.5,1.7-0.5,2
		c0.2,0,0.5,0.1,0.8,0.2c1.1,0,2.6-1.4,4.4-4.1c4.2-3.8,7.1-7.3,8.6-10.7c1.2-0.3,2.3-1.4,3.2-3.4l1.3-1.1l0.2,0.5v0.2
		c-1.3,1.2-2.9,4.1-5,8.8c-1.9,1.7-4.4,4.8-7.5,9.3c-0.9,0-1.9,1.1-2.9,3.2c-0.6,0-1,0.8-1.1,2.3c-2.1,2.6-3.2,4.5-3.2,5.7H218
		c0-0.7,0.2-1.3,0.5-1.9h-0.2c-0.3,0-1.1,1.7-2.4,5c-3.2,4.4-7,9-11.5,13.8c0,0.3-0.2,0.6-0.5,1.1h0.2c0.8-0.6,1.4-0.9,1.9-0.9v0.5
		c-5.2,4.2-9.5,6.4-12.8,6.4h-1c-6.2,0-10.8-3.2-13.8-9.7c-1.1-2.8-1.6-6.3-1.6-10.5V171c0.2-1.6,1.6-6.2,4.2-13.8
		c0.7,0,2.5-4,5.2-12c1.5-3.6,6.4-12.4,14.6-26.5c0-1.1,1.1-2.5,3.2-4.3c0.3-1.3,1.8-3.2,4.7-5.9c0.2-0.2,0.6-0.9,1.3-2l-0.8-0.5
		c-0.6,0-2.6,1.5-6,4.6c-1,0-2.6,1.1-4.7,3.4l-0.8,0.5h-0.2v-0.9c0.9-0.3,2.1-1.4,3.4-3.4c2.8-2.9,5.2-5,7.3-6.5
		c-0.2-0.3-0.3-0.6-0.3-1c1.1-0.2,1.6-0.8,1.6-1.8h0.3l0.8,0.5c0-2.5,1.6-4.1,4.7-5L219,95v-0.5c-0.5,0-0.8-0.1-0.8-0.5
		c0.1-0.5,0.8-0.7,2.1-0.7h6.3C230,92.5,232.1,92,232.6,92z M192.9,134.5c0,0.3-0.2,0.6-0.6,1.1v0.2h0.3c0-0.3,0.2-0.6,0.5-1.1v-0.2
		H192.9z M207.6,139.9c0,0.2-0.1,0.4-0.3,0.7h0.3l0.2-0.5v-0.3h-0.2V139.9z M210.1,179.9v0.2c0.7-0.3,1-0.8,1-1.4
		C210.9,178.7,210.6,179.1,210.1,179.9z M229.7,128.4h0.8l0.2,1.1l-1,0.5l-0.5-0.7v-0.5C229.3,128.5,229.4,128.4,229.7,128.4z
		 M231.3,114.7v0.5h0.2v-0.5H231.3z M237.3,123.8h1.6c0.5,1.1,0.8,1.8,0.8,2.1v0.5c0,0.2-0.3,0.4-0.8,0.7h-1.3c-0.3,0-0.6-0.3-1-0.9
		V126C236.5,125.6,236.8,124.9,237.3,123.8z"/>
	<path class="st0" d="M308.3,79.1c0.3,0,0.5,0.2,0.5,0.5v1c-1,2.9-1.5,6.6-1.5,11.1v4.2c0.7,0.5,1,1,1,1.5c0,0.1-0.3,1.1-1,2.9v1.2
		c0,2-0.4,6-1.2,11.9c0.2,2.3,0.3,4.3,0.3,5.9c0,1.7-2.5,7.5-7.4,17.3v2l0.2,1.5c-0.6,4.5-1.5,6.7-2.7,6.7c-1.2,0.6-1.7,1.5-1.7,2.7
		h1.5c0.7,0,1,0.7,1,2h1.5c0.3,1.1,0.5,1.8,0.5,2.3v0.7c-1.1,0.3-1.8,0.5-2.2,0.5h-1.2c0-0.3-0.2-0.6-0.5-1v-0.7l0.2-0.5h-0.7
		c-0.4,0-0.8,1.6-1.2,4.7c1.2,0,2.4,0.7,3.5,2.2c0,0.3-0.8,0.5-2.5,0.5v0.3c1.4,0,3.2,0.2,5.7,0.5v0.8c0,0.5-2.7,1.3-8.2,2.2
		c-1.1,2.2-2.5,5.8-4,10.9c-3.1,2.9-4.7,5.1-4.7,6.7c-0.5,3-0.9,4.8-1,5.2c0.5,1.2,0.8,2.3,1,3.5l-3,7.9c0,2.3-1.1,3.8-3.2,4.5
		c-0.7,0.5-1.6,3-2.8,7.4c-0.9,1.3-1.4,2-1.7,2c-0.5,0-0.7-1.1-0.7-3.2c-1.2,0.1-1.7,1-1.7,2.7L265,224c-0.3,2.6-1.1,3.9-2.3,3.9
		l-0.2-0.5v-0.3c0.8-4.5,2.2-9.8,4.2-16.1c-0.2-0.9-0.2-1.6-0.2-2.2c0.7-2.4,1-3.8,1-4v-0.5c0-0.5-0.3-1.6-1-3.4v-0.3
		c1.3-6.6,2-10.2,2-10.9h-0.2l-0.7,0.5h-0.5c-0.3,0-0.5-0.2-0.5-0.5c0.8-3.5,2.9-10.3,6.2-20.3c0.5-0.5,0.7-1.6,0.7-3.2v-0.5
		c-0.2-1.3-0.8-2-2-2c-1.4,0.8-2.9,1.2-4.4,1.2h-1c-0.5-1.3-1.3-2-2.2-2l-4.7,1.2h-1c-0.4,0-1.8-0.4-4.2-1.2c0,1.5-0.8,3.8-2.3,6.6
		c-2.1,7.1-3.9,10.7-5.5,10.7c-1.1,0.9-1.9,3.1-2.5,6.6c-0.2,0.9-0.2,1.9-0.2,2.8c0.5,1.6,0.7,2.7,0.7,3.2c-1.8,4.5-2.7,7.3-2.7,8.2
		c-0.6,2.7-1.6,4-3,4c-0.6,0.6-1.4,3.1-2.3,7.4c-1,1.1-1.6,1.7-1.7,1.7H234l-0.2-1.7v-1.2h-1c0,2.1-2.2,6.2-6.7,12.1
		c-0.8,2.5-1.7,3.7-2.7,3.7v0c0-2,1.7-5.7,5-11.1c0.2-0.8,0.5-4.1,1-9.9c-0.8-1.1-1.2-2-1.2-2.5c0.8-2.8,1.2-5.2,1.2-7.2
		c0.2-2.1,0.3-3.1,0.3-3.2h-0.3c-0.4,0.3-0.7,0.5-0.7,0.5h-0.2l-0.5-0.3c2.5-10.5,4.8-18.2,6.9-23v-1.5c0-0.6-0.2-1.1-0.7-1.7
		c1.2-4.2,1.7-6.5,1.7-6.7c-4-0.9-6-1.8-6-2.5v-0.2c1.3-0.4,2-0.9,2-1.5l-10.6-4.7c-2.3,0-3.5-0.7-3.7-2l0.5-0.3
		c3.7,0.8,5.8,1.2,6.2,1.2c0.3-0.8,0.8-1.2,1.7-1.2h0.2c1.3,0,2,0.5,2,1.5s0.8,1.5,2.5,1.5h0.8c0.4,0,0.7-1.1,1-3.2
		c-1.7-0.5-2.5-1.2-2.5-2.3c1.2-0.3,1.7-0.6,1.7-1c-0.1-0.3-2-1.2-5.7-2.8l-0.5-0.7c0.5-0.3,1-0.5,1.5-0.5c3.6,0.5,6.3,0.7,7.9,0.7
		h2.3c2-0.8,3.3-1.2,3.9-1.2v0.3c0.5-0.1,0.9-0.4,1.2-1l-0.2-1.2c0-0.8,0.7-2.8,2-6.2c0-1.2,0.5-2.6,1.5-4.2c0-5.6,1.8-9.5,5.5-11.9
		c1.5-1.4,3.6-4.3,6.5-8.9c0.1,0,0.6-0.2,1.5-0.5c1.5,0.5,2.5,0.7,3.2,0.7c0.6-2.1,1.5-3.2,2.8-3.2c0.3,1.6,0.5,2.6,0.5,3h0.3
		c1.8-4.6,3.3-6.9,4.4-6.9l0.2,0.5v0.8c-1.3,5.4-2.2,10.4-2.7,14.9c0.3,2.3,0.5,4,0.5,5v1.2c0,1.6-1.9,5.9-5.7,12.8
		c-1.5,3.1-2.3,6.2-2.3,9.2c2.6,0,4.4-0.7,5.7-2.2c6,0.3,9,0.9,9,1.7h0.2c0-1.5,0.8-2.2,2.3-2.2c1.7,0,2.5-0.7,2.5-2
		c0-0.3,0.1-0.8,0.5-1.5c-0.2-1.1-0.2-2-0.2-2.7v-1.2c0-0.2,0.3-1.3,1-3.2l-0.5-0.8v-0.7c1.5-5,2.2-8.3,2.2-9.9h-2
		c0-0.5-0.2-0.9-0.5-1.5c0-3.5,0.8-5.2,2.5-5.2c1.8-1.5,2.8-4,2.8-7.7c-0.3-0.5-0.5-1-0.5-1.5v-0.3l1.5-5.9v-4
		c0-1.4,1.9-3.3,5.7-5.7c0.8-1.8,2.3-3.3,4.5-4.4h0.2c1.2,0,2.4,0.2,3.7,0.7c0.6-1.5,1.5-2.3,2.5-2.3c0.2,0.9,0.6,1.6,1,2
		c0.5,0,1.1-1.2,1.7-3.5C307.2,80,307.9,79.1,308.3,79.1z M220.8,142.5h1l0.3,1.2v0.3c0,0.3-0.2,0.5-0.5,0.5h-1.2
		c0-0.4-0.1-0.7-0.2-1C220.3,142.8,220.6,142.5,220.8,142.5z M228.8,191.8v0.5h0.2v-0.5H228.8z M234.5,212.9v0.5h0.2v-0.5H234.5z
		 M260.5,98.7c1.5,0,2.2,0.7,2.2,2c-0.1,1.5-0.8,2.2-2.2,2.2c-1-0.9-1.5-1.9-1.5-2.9C259.7,99.1,260.2,98.7,260.5,98.7z
		 M267.2,188.6v0.5h0.2v-0.5H267.2z M268.4,95.4h1c0,0.3,0.2,0.5,0.5,0.5c0,0.9-0.3,1.4-1,1.7h-0.7c0-0.3-0.2-0.6-0.5-1v-0.5
		C267.6,95.9,267.9,95.7,268.4,95.4z M272.6,210.4v0.5h0.5v-0.5H272.6z M298.4,76.8h0.7c1.3,0,2,0.3,2.3,1v0.7c0,1.5-0.7,2.3-2,2.3
		h-0.5c-0.8-1.2-1.2-2-1.2-2.5C298.1,77.6,298.4,77.1,298.4,76.8z M300.6,156.9h1.2l0.2,1.2v0.5l-1.2,0.3h-0.5l-0.2-1.2v-0.3
		C300.1,157,300.3,156.9,300.6,156.9z M303.5,158.1h0.8c0.5,0,0.7,0.3,0.7,1c0,0.3-0.3,0.7-1,1.2c-0.8-0.3-1.2-0.7-1.2-1v-0.5
		C302.8,158.6,303.1,158.4,303.5,158.1z M303.1,126.4v0.5c0.3,0,0.5-0.2,0.5-0.5H303.1z M306.8,73.4h0.7c0.2,0,0.5,0.3,1,1v0.8
		c-0.2,0-0.5,0.2-1,0.5h-0.7c0-0.6-0.2-1-0.5-1C306.6,74.1,306.8,73.7,306.8,73.4z"/>
	<path class="st0" d="M337.1,96.3h1c1.3,1.1,2.4,1.7,3.4,1.7h2.5c1.3,0,3.6,1.5,6.9,4.5h0.3c1.1-0.3,1.8-0.5,2.2-0.5
		c0.9,0,1.5,0.4,2,1.2c0,0.4-0.5,1.4-1.5,3.2c2.3,3.3,3.5,5.7,3.5,7.2v0.5l-1.2,0.3h-0.5c-0.7,0-1.4-0.2-2-0.5
		c-0.8,0.3-1.2,0.8-1.2,1.5c1.8,1.7,3.2,2.5,4.2,2.5c0.1-0.6,0.3-1,0.7-1h1.5c1.5,0.2,2.3,0.9,2.3,2c0,0.3-0.5,1.1-1.5,2.3
		c3.5,2.5,5.2,7.7,5.2,15.6c1.2,1.6,1.7,2.9,1.7,3.7c-1,4-1.7,7.9-2,11.7c-0.6,1.3-1.1,3.4-1.5,6.4l1.5-1.2h0.3v0.2
		c0,4.3-3.6,11.3-10.9,20.8c-6.2,6.5-11,10.3-14.6,11.7c-6.3,3.4-10.1,5.3-11.4,5.7c-1.4,0-2.1,0.1-2.2,0.2c-4.1,0-9.1-1.7-14.9-5.2
		c-8.1-6.3-12.2-15.7-12.2-28v-1.2c0-0.9,0.1-2.1,0.2-3.5v-0.2h-0.2c-1,3.5-1.6,5.2-2,5.2l-0.5-0.7v-2l2-10.2c0.3-3.9,0.6-5.9,1-5.9
		v-1.2c-0.9-1.3-1.4-1.9-1.5-2c1.5-5.1,2.3-7.8,2.3-8.2h-1.2c-0.3,0-0.5-0.1-0.5-0.5v-0.3c1.9-4.5,4.5-8.7,7.7-12.6
		c2.1-1.5,3.2-2.9,3.2-4l-0.3-1c1.2-2.1,3.8-4.5,7.9-7.4c1.1-1.5,4.4-3.2,9.9-5c1.8-2.1,5.1-3.2,9.9-3.2v-1.2c0-0.3,0.2-0.5,0.7-0.5
		v-0.3L337.1,96.3z M350.2,117.8l-0.2,0.5l2.5,2.5v1c-0.6,0.2-0.9,0.2-1,0.2v0.3c0.7,0.7,1,1.5,1,2.5v1.2h-1
		c-1.7-2.4-3.5-4.6-5.2-6.5c-2.1,0.3-3.5,0.5-4.2,0.5c-0.4,0-1.7-0.6-3.7-1.7c0,1.2-2.2,4.6-6.4,10.2c-1.2,2.8-3.8,5.9-7.7,9.4
		c-3.5,5-5.2,9.6-5.2,13.8c-0.3,6.5-0.9,9.7-2,9.7l-1.2,1.7c0.2,0.6,0.5,2.3,0.7,5.2c1.8,4.6,3.9,6.9,6.2,6.9c1.7,0.8,3.3,1.2,5,1.2
		c0.5,0,3.2-0.9,8.2-2.7c2.6,0,4.4-0.9,5.5-2.8c1.8-1.4,3.5-3.8,5.2-7.4c0.4-4.5,1-7.4,2-8.7c2.7-5.2,4-9,4-11.6
		c0.4-1.2,1.3-2.3,2.7-3.5c0.7-1.4,1-2.8,1-4.4c0-1.6-0.2-4.3-0.7-8.2c0.1-0.3,0.2-0.6,0.2-1h0.7c0.2,0,0.8,0.7,2,2h0.3
		c0.3,0,0.5-0.2,0.5-0.5c-1.2-3.5-3.6-6.7-7.2-9.4C351.5,118.3,350.9,118.1,350.2,117.8z M327.7,132.4v0.5c0.3,0,0.5-0.2,0.5-0.5
		H327.7z M363.1,160.2v0.5h0.2v-0.5H363.1z"/>
</g>
<g>
	<path class="st0" d="M372.3,109.7h35c15.5,0,27.8,7.7,27.8,23.8c0,18.3-12.9,27.8-35.9,27.8h-26.7l-7,34.6H354L372.3,109.7z
		 M374.6,151.8h24.5c13,0,24.2-3.8,24.2-17.7c-0.1-9.9-6.8-14.9-19-14.9h-22.6L374.6,151.8z"/>
	<path class="st0" d="M518.7,146.6c0,26.5-15.6,51.2-49.2,51.2c-24.2,0-38.3-16.1-38.3-38.6c0-25.6,16.8-51.3,49.3-51.3
		C504,107.9,518.7,123.6,518.7,146.6z M443.6,158.4c0,17.4,9.2,29.8,27.4,29.8c23.3,0,35.5-19.3,35.5-41.5c0-17.8-10-29.2-27.3-29.2
		C457.8,117.5,443.6,136.4,443.6,158.4z"/>
	<path class="st0" d="M600.4,158.6c3.4-16.1,7.2-31.6,9.6-40.6h-0.1c-5.6,12-28.5,48.3-46.4,78h-10.2c-3.8-23.6-10.9-64.7-12.4-77.9
		h-0.1c-1.5,10.1-5,28.4-8.1,42.9l-7.4,35h-10.8l18.3-86.3h16.6c4.9,27.4,11.8,64.8,12.4,71.4h0.1c4.6-8.3,27.9-45.4,43.8-71.4h16.8
		L603.9,196h-11.5L600.4,158.6z"/>
	<path class="st0" d="M632.2,109.7h35c15.5,0,27.8,7.7,27.8,23.8c0,18.3-12.9,27.8-35.9,27.8h-26.7l-7,34.6H614L632.2,109.7z
		 M634.5,151.8H659c13,0,24.2-3.8,24.2-17.7c-0.1-9.9-6.8-14.9-19-14.9h-22.6L634.5,151.8z"/>
</g>
</svg>
