<?xml version="1.0" encoding="utf-8"?>
<!-- Generator: Adobe Illustrator 24.1.1, SVG Export Plug-In . SVG Version: 6.00 Build 0)  -->
<svg version="1.1" id="Layer_1" xmlns="http://www.w3.org/2000/svg" xmlns:xlink="http://www.w3.org/1999/xlink" x="0px" y="0px"
	 viewBox="0 0 300 900" style="enable-background:new 0 0 300 900;" xml:space="preserve">
<style type="text/css">
	.st0{fill:#E2185F;}
</style>
<path class="st0" d="M0,450V0h60.2c0,0-19,22.3-18.4,45.7c0.6,23.5,24.9,44.3,33.3,64.8c8.4,20.6,13.8,64.5-9.4,103.5
	c-30.3,50.9-26.5,57.7-26,71.4c1.3,31.1,24.1,61,36.9,86.8c11.5,23.3,9.6,46.9-16.4,77.8"/>
<path class="st0" d="M0,900V450h60.2c0,0-19,22.3-18.4,45.7c0.6,23.5,24.9,44.3,33.3,64.8c8.4,20.6,13.8,64.5-9.4,103.5
	c-30.3,50.9-26.5,57.7-26,71.4c1.3,31.1,24.1,61,36.9,86.8c11.5,23.3,9.6,46.9-16.4,77.8"/>
</svg>
